{"glyphs":{"0":{"ha":833,"x_min":74,"x_max":760,"o":"m 417 -11 q 161 117 249 -11 q 74 489 74 244 q 161 863 74 735 q 417 990 249 990 q 672 863 585 990 q 760 490 760 736 q 672 117 760 244 q 417 -11 585 -11 m 417 85 q 589 183 533 85 q 644 490 644 282 q 590 797 644 700 q 417 894 535 894 q 244 797 300 894 q 189 490 189 699 q 244 183 189 282 q 417 85 300 85 z "},"1":{"ha":833,"x_min":171,"x_max":736,"o":"m 683 96 q 722 83 708 96 q 736 49 736 71 q 723 13 736 25 q 683 0 710 0 l 224 0 q 184 13 197 0 q 171 49 171 25 q 185 83 171 71 q 224 96 199 96 l 396 96 l 396 840 l 244 742 q 222 735 233 735 q 188 753 203 735 q 174 792 174 771 q 196 833 174 821 l 407 971 q 456 986 431 986 q 494 971 479 986 q 510 928 510 956 l 510 96 l 683 96 z "},"2":{"ha":833,"x_min":89,"x_max":758,"o":"m 706 96 q 744 83 731 96 q 758 49 758 71 q 706 0 758 0 l 161 0 q 122 15 138 0 q 107 50 107 29 q 126 96 107 76 l 461 464 q 562 603 531 542 q 593 728 593 665 q 547 851 593 808 q 415 894 500 894 q 288 870 349 894 q 165 796 226 846 q 126 779 144 779 q 100 794 111 779 q 89 829 89 808 q 111 876 89 858 q 250 960 168 929 q 418 990 332 990 q 628 921 550 990 q 707 733 707 851 q 669 571 707 649 q 543 397 631 493 l 265 96 l 706 96 z "},"3":{"ha":833,"x_min":74,"x_max":729,"o":"m 547 503 q 683 417 636 478 q 729 265 729 356 q 643 64 729 138 q 408 -10 557 -10 q 235 21 318 -10 q 96 104 153 51 q 74 151 74 125 q 85 186 74 172 q 111 200 96 200 q 150 185 131 200 q 275 110 214 133 q 407 86 336 86 q 563 133 510 86 q 617 269 617 181 q 392 449 617 449 l 318 449 q 283 463 296 449 q 269 497 269 478 q 283 531 269 517 q 318 544 296 544 l 369 544 q 536 592 478 544 q 594 731 594 640 q 547 852 594 810 q 414 894 500 894 q 288 870 349 894 q 165 796 226 846 q 126 781 146 781 q 100 794 111 781 q 89 829 89 808 q 111 876 89 856 q 249 960 168 929 q 417 990 331 990 q 629 922 550 990 q 707 739 708 854 q 663 593 706 656 q 547 503 621 531 z "},"4":{"ha":833,"x_min":60,"x_max":793,"o":"m 740 307 q 779 294 765 307 q 793 260 793 281 q 740 213 793 213 l 636 213 l 636 51 q 620 8 636 24 q 579 -7 604 -7 q 539 8 554 -7 q 524 51 524 24 l 524 213 l 113 213 q 74 226 88 213 q 60 261 60 240 q 75 304 60 281 l 529 961 q 579 986 549 986 q 619 971 603 986 q 636 928 636 956 l 636 307 l 740 307 m 189 307 l 524 307 l 524 789 l 189 307 z "},"5":{"ha":833,"x_min":106,"x_max":764,"o":"m 454 614 q 617 575 547 614 q 726 466 688 536 q 764 304 764 396 q 722 141 764 213 q 606 30 681 69 q 435 -10 532 -10 q 267 21 349 -10 q 128 104 185 51 q 106 151 106 125 q 117 186 106 172 q 143 200 128 200 q 182 185 163 200 q 304 110 243 135 q 432 86 365 86 q 593 144 535 86 q 651 303 651 203 q 593 460 651 400 q 436 519 535 519 q 231 422 310 519 q 183 401 211 401 q 151 413 164 401 q 138 446 138 425 l 138 925 q 152 964 138 949 q 193 979 167 979 l 682 979 q 722 967 707 979 q 736 932 736 954 q 722 897 736 910 q 682 885 707 885 l 250 885 l 250 536 q 341 594 289 574 q 454 614 393 614 z "},"6":{"ha":832,"x_min":76,"x_max":767,"o":"m 457 615 q 615 576 546 615 q 724 467 685 538 q 763 304 763 396 q 722 142 763 214 q 610 29 682 69 q 447 -11 538 -11 q 173 113 269 -11 q 76 465 76 236 q 121 747 76 629 q 250 928 165 865 q 451 990 335 990 q 609 960 531 990 q 743 876 688 929 q 767 829 767 854 q 756 794 767 808 q 729 781 744 781 q 689 796 710 781 q 454 894 568 894 q 261 782 331 894 q 192 467 192 669 l 192 449 q 295 571 224 526 q 457 615 367 615 m 442 85 q 593 144 536 85 q 650 303 650 204 q 592 460 650 401 q 440 519 535 519 q 284 459 344 519 q 224 303 224 399 q 284 145 224 206 q 442 85 344 85 z "},"7":{"ha":833,"x_min":83,"x_max":750,"o":"m 699 979 q 737 966 724 979 q 750 932 750 953 q 738 889 750 913 l 276 21 q 228 -10 260 -10 q 188 6 206 -10 q 171 43 171 21 q 181 74 171 58 l 614 883 l 135 883 q 97 896 110 883 q 83 931 83 908 q 97 967 83 954 q 135 979 110 979 l 699 979 z "},"8":{"ha":833,"x_min":65,"x_max":768,"o":"m 586 503 q 720 413 672 476 q 768 260 768 349 q 676 62 768 133 q 417 -10 585 -10 q 157 62 249 -10 q 65 260 65 133 q 114 414 65 350 q 249 503 163 478 q 132 590 175 531 q 89 731 89 650 q 176 920 89 850 q 417 990 263 990 q 658 920 571 990 q 744 731 744 850 q 701 590 744 650 q 586 503 658 529 m 201 722 q 256 590 201 636 q 417 544 311 544 q 577 590 522 544 q 632 722 632 636 q 577 850 632 804 q 417 896 522 896 q 256 850 311 896 q 201 722 201 804 m 417 85 q 656 267 656 85 q 417 449 656 449 q 178 267 178 449 q 417 85 178 85 z "},"9":{"ha":833,"x_min":67,"x_max":757,"o":"m 386 990 q 660 867 564 990 q 757 514 757 743 q 713 232 757 350 q 583 51 668 114 q 382 -11 499 -11 q 224 19 303 -11 q 90 103 146 50 q 67 150 67 125 q 78 185 67 171 q 104 199 89 199 q 144 183 124 199 q 379 85 265 85 q 572 197 503 85 q 642 513 642 310 l 642 531 q 538 408 610 453 q 376 364 467 364 q 218 403 288 364 q 110 513 149 442 q 71 675 71 583 q 111 838 71 765 q 224 950 151 910 q 386 990 296 990 m 393 460 q 549 520 489 460 q 610 676 610 581 q 549 834 610 774 q 392 894 489 894 q 240 835 297 894 q 183 676 183 775 q 241 519 183 578 q 393 460 299 460 z "},"\u0000":{"ha":0,"x_min":0,"x_max":0,"o":""},"\r":{"ha":358,"x_min":0,"x_max":0,"o":""}," ":{"ha":358,"x_min":0,"x_max":0,"o":""},"A":{"ha":1010,"x_min":40,"x_max":969,"o":"m 964 65 q 969 42 969 54 q 953 7 969 21 q 915 -7 938 -7 q 867 26 881 -7 l 768 251 l 244 251 l 144 26 q 96 -7 131 -7 q 57 8 74 -7 q 40 43 40 22 q 46 65 40 54 l 443 949 q 468 978 451 968 q 504 988 485 988 q 542 977 525 988 q 567 949 558 967 l 964 65 m 286 346 l 726 346 l 506 844 l 286 346 z "},"Á":{"ha":1010,"x_min":40,"x_max":969,"o":"m 964 65 q 969 42 969 54 q 953 7 969 21 q 915 -7 938 -7 q 867 26 881 -7 l 768 251 l 244 251 l 144 26 q 96 -7 131 -7 q 57 8 74 -7 q 40 43 40 22 q 46 65 40 54 l 443 949 q 468 978 451 968 q 504 988 485 988 q 542 977 525 988 q 567 949 558 967 l 964 65 m 286 346 l 726 346 l 506 844 l 286 346 m 525 1061 q 507 1056 515 1056 q 485 1064 494 1056 q 476 1083 476 1072 q 486 1106 476 1096 l 624 1256 q 672 1279 646 1279 q 706 1265 692 1279 q 721 1232 721 1251 q 688 1181 721 1203 l 525 1061 z "},"Ă":{"ha":1010,"x_min":40,"x_max":969,"o":"m 964 65 q 969 42 969 54 q 953 7 969 21 q 915 -7 938 -7 q 867 26 881 -7 l 768 251 l 244 251 l 144 26 q 96 -7 131 -7 q 57 8 74 -7 q 40 43 40 22 q 46 65 40 54 l 443 949 q 468 978 451 968 q 504 988 485 988 q 542 977 525 988 q 567 949 558 967 l 964 65 m 286 346 l 726 346 l 506 844 l 286 346 m 506 1079 q 378 1109 433 1079 q 292 1197 322 1139 q 285 1222 285 1211 q 296 1249 285 1239 q 322 1258 307 1258 q 365 1235 347 1258 q 425 1178 390 1196 q 506 1161 460 1161 q 586 1178 551 1161 q 646 1235 621 1196 q 688 1258 664 1258 q 715 1249 704 1258 q 725 1222 725 1239 q 719 1197 725 1208 q 634 1110 690 1140 q 506 1079 578 1079 z "},"Ắ":{"ha":1010,"x_min":40,"x_max":969,"o":"m 964 65 q 969 42 969 54 q 953 7 969 21 q 915 -7 938 -7 q 867 26 881 -7 l 768 251 l 244 251 l 144 26 q 96 -7 131 -7 q 57 8 74 -7 q 40 43 40 22 q 46 65 40 54 l 443 949 q 468 978 451 968 q 504 988 485 988 q 542 977 525 988 q 567 949 558 967 l 964 65 m 286 346 l 726 346 l 506 844 l 286 346 m 522 1203 q 504 1197 515 1197 q 484 1206 493 1197 q 475 1225 475 1214 q 488 1250 475 1238 l 617 1386 q 664 1408 639 1408 q 695 1396 682 1408 q 708 1364 708 1383 q 676 1314 708 1336 l 522 1203 m 506 1056 q 378 1086 433 1056 q 292 1175 322 1117 q 285 1200 285 1192 q 294 1224 285 1215 q 319 1233 304 1233 q 361 1211 343 1233 q 506 1132 413 1132 q 650 1211 599 1132 q 690 1233 668 1233 q 715 1224 706 1233 q 725 1200 725 1215 q 719 1175 725 1186 q 634 1086 690 1117 q 506 1056 578 1056 z "},"Ặ":{"ha":1010,"x_min":40,"x_max":969,"o":"m 964 65 q 969 42 969 54 q 953 7 969 21 q 915 -7 938 -7 q 867 26 881 -7 l 768 251 l 244 251 l 144 26 q 96 -7 131 -7 q 57 8 74 -7 q 40 43 40 22 q 46 65 40 54 l 443 949 q 468 978 451 968 q 504 988 485 988 q 542 977 525 988 q 567 949 558 967 l 964 65 m 286 346 l 726 346 l 506 844 l 286 346 m 506 -260 q 454 -241 474 -260 q 435 -192 435 -222 q 454 -142 435 -161 q 506 -124 474 -124 q 556 -142 536 -124 q 576 -192 576 -161 q 557 -241 576 -222 q 506 -260 538 -260 m 506 1079 q 378 1109 433 1079 q 292 1197 322 1139 q 285 1222 285 1211 q 296 1249 285 1239 q 322 1258 307 1258 q 365 1235 347 1258 q 425 1178 390 1196 q 506 1161 460 1161 q 586 1178 551 1161 q 646 1235 621 1196 q 688 1258 664 1258 q 715 1249 704 1258 q 725 1222 725 1239 q 719 1197 725 1208 q 634 1110 690 1140 q 506 1079 578 1079 z "},"Ằ":{"ha":1010,"x_min":40,"x_max":969,"o":"m 964 65 q 969 42 969 54 q 953 7 969 21 q 915 -7 938 -7 q 867 26 881 -7 l 768 251 l 244 251 l 144 26 q 96 -7 131 -7 q 57 8 74 -7 q 40 43 40 22 q 46 65 40 54 l 443 949 q 468 978 451 968 q 504 988 485 988 q 542 977 525 988 q 567 949 558 967 l 964 65 m 286 346 l 726 346 l 506 844 l 286 346 m 335 1314 q 303 1364 303 1336 q 315 1396 303 1383 q 347 1408 328 1408 q 394 1386 372 1408 l 524 1250 q 536 1225 536 1238 q 527 1206 536 1214 q 507 1197 518 1197 q 489 1203 496 1197 l 335 1314 m 506 1056 q 378 1086 433 1056 q 292 1175 322 1117 q 285 1200 285 1192 q 294 1224 285 1215 q 319 1233 304 1233 q 361 1211 343 1233 q 506 1132 413 1132 q 650 1211 599 1132 q 690 1233 668 1233 q 715 1224 706 1233 q 725 1200 725 1215 q 719 1175 725 1186 q 634 1086 690 1117 q 506 1056 578 1056 z "},"Ẳ":{"ha":1010,"x_min":40,"x_max":969,"o":"m 964 65 q 969 42 969 54 q 953 7 969 21 q 915 -7 938 -7 q 867 26 881 -7 l 768 251 l 244 251 l 144 26 q 96 -7 131 -7 q 57 8 74 -7 q 40 43 40 22 q 46 65 40 54 l 443 949 q 468 978 451 968 q 504 988 485 988 q 542 977 525 988 q 567 949 558 967 l 964 65 m 286 346 l 726 346 l 506 844 l 286 346 m 543 1222 q 531 1204 542 1211 q 508 1197 521 1197 q 483 1206 493 1197 q 472 1232 472 1215 q 487 1267 472 1254 q 529 1292 501 1279 q 556 1306 547 1300 q 564 1319 564 1311 q 549 1337 564 1331 q 506 1343 533 1343 q 435 1333 481 1343 q 405 1338 417 1329 q 393 1361 393 1347 q 415 1392 393 1383 q 511 1408 454 1408 q 614 1385 576 1408 q 651 1325 651 1361 q 635 1284 651 1297 q 586 1256 619 1271 q 556 1240 567 1247 q 543 1222 544 1233 m 506 1056 q 378 1086 433 1056 q 292 1175 322 1117 q 285 1200 285 1192 q 294 1224 285 1215 q 319 1233 304 1233 q 361 1211 343 1233 q 506 1132 413 1132 q 650 1211 599 1132 q 690 1233 668 1233 q 715 1224 706 1233 q 725 1200 725 1215 q 719 1175 725 1186 q 634 1086 690 1117 q 506 1056 578 1056 z "},"Ẵ":{"ha":1010,"x_min":40,"x_max":969,"o":"m 964 65 q 969 42 969 54 q 953 7 969 21 q 915 -7 938 -7 q 867 26 881 -7 l 768 251 l 244 251 l 144 26 q 96 -7 131 -7 q 57 8 74 -7 q 40 43 40 22 q 46 65 40 54 l 443 949 q 468 978 451 968 q 504 988 485 988 q 542 977 525 988 q 567 949 558 967 l 964 65 m 286 346 l 726 346 l 506 844 l 286 346 m 604 1272 q 555 1280 579 1272 q 490 1304 531 1288 q 446 1322 468 1314 q 408 1329 424 1329 q 373 1320 386 1329 q 346 1294 360 1311 q 317 1274 331 1274 q 294 1282 303 1274 q 286 1304 286 1290 q 301 1351 286 1326 q 344 1392 317 1375 q 407 1408 372 1408 q 458 1400 432 1408 q 521 1375 485 1392 q 565 1358 543 1365 q 603 1350 588 1350 q 640 1360 626 1350 q 665 1386 653 1369 q 694 1407 681 1407 q 717 1398 708 1407 q 725 1375 725 1389 q 710 1330 725 1354 q 667 1289 694 1306 q 604 1272 639 1272 m 506 1056 q 378 1086 433 1056 q 292 1175 322 1117 q 285 1199 285 1189 q 296 1223 285 1214 q 322 1232 307 1232 q 361 1211 344 1232 q 506 1132 413 1132 q 650 1211 599 1132 q 689 1232 667 1232 q 715 1223 704 1232 q 725 1199 725 1214 q 719 1175 725 1186 q 634 1086 690 1117 q 506 1056 578 1056 z "},"Â":{"ha":1010,"x_min":40,"x_max":969,"o":"m 964 65 q 969 42 969 54 q 953 7 969 21 q 915 -7 938 -7 q 867 26 881 -7 l 768 251 l 244 251 l 144 26 q 96 -7 131 -7 q 57 8 74 -7 q 40 43 40 22 q 46 65 40 54 l 443 949 q 468 978 451 968 q 504 988 485 988 q 542 977 525 988 q 567 949 558 967 l 964 65 m 286 346 l 726 346 l 506 844 l 286 346 m 389 1071 q 357 1056 375 1056 q 328 1068 340 1056 q 315 1097 315 1081 q 331 1129 315 1115 l 454 1257 q 506 1279 476 1279 q 557 1257 533 1279 l 681 1129 q 696 1096 696 1114 q 683 1068 696 1081 q 656 1056 671 1056 q 622 1071 638 1056 l 506 1201 l 389 1071 z "},"Ấ":{"ha":1010,"x_min":40,"x_max":969,"o":"m 964 65 q 969 42 969 54 q 953 7 969 21 q 915 -7 938 -7 q 867 26 881 -7 l 768 251 l 244 251 l 144 26 q 96 -7 131 -7 q 57 8 74 -7 q 40 43 40 22 q 46 65 40 54 l 443 949 q 468 978 451 968 q 504 988 485 988 q 542 977 525 988 q 567 949 558 967 l 964 65 m 286 346 l 726 346 l 506 844 l 286 346 m 681 1204 q 663 1199 674 1199 q 641 1208 650 1199 q 632 1229 632 1217 q 639 1249 632 1240 l 744 1383 q 790 1410 765 1410 q 826 1395 811 1410 q 840 1361 840 1381 q 811 1311 840 1332 l 681 1204 m 386 1069 q 356 1056 372 1056 q 328 1067 340 1056 q 315 1096 315 1079 q 333 1132 315 1115 l 454 1251 q 506 1274 478 1274 q 557 1251 533 1274 l 678 1132 q 696 1097 696 1115 q 683 1068 696 1081 q 656 1056 671 1056 q 626 1068 639 1056 l 506 1196 l 386 1069 z "},"Ậ":{"ha":1010,"x_min":40,"x_max":969,"o":"m 964 65 q 969 42 969 54 q 953 7 969 21 q 915 -7 938 -7 q 867 26 881 -7 l 768 251 l 244 251 l 144 26 q 96 -7 131 -7 q 57 8 74 -7 q 40 43 40 22 q 46 65 40 54 l 443 949 q 468 978 451 968 q 504 988 485 988 q 542 977 525 988 q 567 949 558 967 l 964 65 m 286 346 l 726 346 l 506 844 l 286 346 m 506 -260 q 454 -241 474 -260 q 435 -192 435 -222 q 454 -142 435 -161 q 506 -124 474 -124 q 556 -142 536 -124 q 576 -192 576 -161 q 557 -241 576 -222 q 506 -260 538 -260 m 389 1071 q 357 1056 375 1056 q 328 1068 340 1056 q 315 1097 315 1081 q 331 1129 315 1115 l 454 1257 q 506 1279 476 1279 q 557 1257 533 1279 l 681 1129 q 696 1096 696 1114 q 683 1068 696 1081 q 656 1056 671 1056 q 622 1071 638 1056 l 506 1201 l 389 1071 z "},"Ầ":{"ha":1010,"x_min":40,"x_max":969,"o":"m 964 65 q 969 42 969 54 q 953 7 969 21 q 915 -7 938 -7 q 867 26 881 -7 l 768 251 l 244 251 l 144 26 q 96 -7 131 -7 q 57 8 74 -7 q 40 43 40 22 q 46 65 40 54 l 443 949 q 468 978 451 968 q 504 988 485 988 q 542 977 525 988 q 567 949 558 967 l 964 65 m 286 346 l 726 346 l 506 844 l 286 346 m 556 1313 q 528 1360 528 1335 q 543 1395 528 1381 q 579 1410 558 1410 q 626 1383 607 1410 l 728 1246 q 735 1226 735 1238 q 726 1207 735 1215 q 704 1199 717 1199 q 683 1206 692 1199 l 556 1313 m 386 1069 q 356 1056 372 1056 q 328 1067 340 1056 q 315 1096 315 1079 q 333 1132 315 1115 l 454 1251 q 506 1274 478 1274 q 557 1251 533 1274 l 678 1132 q 696 1097 696 1115 q 683 1068 696 1081 q 656 1056 671 1056 q 626 1068 639 1056 l 506 1196 l 386 1069 z "},"Ẩ":{"ha":1010,"x_min":40,"x_max":969,"o":"m 964 65 q 969 42 969 54 q 953 7 969 21 q 915 -7 938 -7 q 867 26 881 -7 l 768 251 l 244 251 l 144 26 q 96 -7 131 -7 q 57 8 74 -7 q 40 43 40 22 q 46 65 40 54 l 443 949 q 468 978 451 968 q 504 988 485 988 q 542 977 525 988 q 567 949 558 967 l 964 65 m 286 346 l 726 346 l 506 844 l 286 346 m 694 1222 q 683 1204 693 1211 q 660 1197 672 1197 q 635 1206 646 1197 q 625 1232 625 1215 q 640 1267 625 1254 q 682 1292 654 1279 q 708 1306 700 1300 q 717 1319 717 1311 q 701 1337 717 1331 q 658 1343 686 1343 q 588 1333 633 1343 q 558 1338 569 1329 q 546 1361 546 1347 q 568 1392 546 1383 q 664 1408 607 1408 q 767 1385 729 1408 q 804 1325 804 1361 q 787 1283 804 1297 q 739 1256 769 1268 q 707 1240 718 1247 q 694 1222 696 1233 m 386 1069 q 356 1056 372 1056 q 328 1067 340 1056 q 315 1096 315 1079 q 333 1132 315 1115 l 454 1251 q 506 1274 478 1274 q 557 1251 533 1274 l 678 1132 q 696 1097 696 1115 q 683 1068 696 1081 q 656 1056 671 1056 q 626 1068 639 1056 l 506 1196 l 386 1069 z "},"Ẫ":{"ha":1010,"x_min":40,"x_max":969,"o":"m 964 65 q 969 42 969 54 q 953 7 969 21 q 915 -7 938 -7 q 867 26 881 -7 l 768 251 l 244 251 l 144 26 q 96 -7 131 -7 q 57 8 74 -7 q 40 43 40 22 q 46 65 40 54 l 443 949 q 468 978 451 968 q 504 988 485 988 q 542 977 525 988 q 567 949 558 967 l 964 65 m 286 346 l 726 346 l 506 844 l 286 346 m 604 1272 q 555 1280 579 1272 q 490 1304 531 1288 q 446 1322 468 1314 q 408 1329 424 1329 q 373 1320 386 1329 q 346 1294 360 1311 q 317 1274 331 1274 q 294 1282 303 1274 q 286 1304 286 1290 q 301 1351 286 1326 q 344 1392 317 1375 q 407 1408 372 1408 q 458 1400 432 1408 q 521 1375 485 1392 q 565 1358 543 1365 q 603 1350 588 1350 q 640 1360 626 1350 q 665 1386 653 1369 q 694 1407 681 1407 q 717 1398 708 1407 q 725 1375 725 1389 q 710 1330 725 1354 q 667 1289 694 1306 q 604 1272 639 1272 m 386 1069 q 356 1056 372 1056 q 328 1067 340 1056 q 315 1096 315 1079 q 333 1132 315 1115 l 454 1251 q 506 1274 478 1274 q 557 1251 533 1274 l 678 1132 q 696 1097 696 1115 q 683 1068 696 1081 q 656 1056 671 1056 q 626 1068 639 1056 l 506 1196 l 386 1069 z "},"Ȁ":{"ha":1010,"x_min":40,"x_max":969,"o":"m 964 65 q 969 42 969 54 q 953 7 969 21 q 915 -7 938 -7 q 867 26 881 -7 l 768 251 l 244 251 l 144 26 q 96 -7 131 -7 q 57 8 74 -7 q 40 43 40 22 q 46 65 40 54 l 443 949 q 468 978 451 968 q 504 988 485 988 q 542 977 525 988 q 567 949 558 967 l 964 65 m 286 346 l 726 346 l 506 844 l 286 346 m 296 1197 q 281 1236 281 1217 q 294 1267 281 1254 q 325 1281 307 1281 q 371 1246 356 1281 l 444 1096 q 449 1081 449 1088 q 441 1063 449 1069 q 424 1056 433 1056 q 399 1068 408 1056 l 296 1197 m 463 1197 q 447 1236 447 1217 q 460 1267 447 1254 q 492 1281 474 1281 q 538 1246 522 1281 l 611 1096 q 615 1081 615 1088 q 608 1063 615 1069 q 590 1056 601 1056 q 565 1068 578 1056 l 463 1197 z "},"Ä":{"ha":1010,"x_min":40,"x_max":969,"o":"m 964 65 q 969 42 969 54 q 953 7 969 21 q 915 -7 938 -7 q 867 26 881 -7 l 768 251 l 244 251 l 144 26 q 96 -7 131 -7 q 57 8 74 -7 q 40 43 40 22 q 46 65 40 54 l 443 949 q 468 978 451 968 q 504 988 485 988 q 542 977 525 988 q 567 949 558 967 l 964 65 m 286 346 l 726 346 l 506 844 l 286 346 m 386 1103 q 338 1122 357 1103 q 318 1169 318 1140 q 338 1217 318 1199 q 386 1236 357 1236 q 435 1217 415 1236 q 456 1169 456 1199 q 436 1121 456 1139 q 386 1103 417 1103 m 625 1103 q 576 1122 596 1103 q 556 1169 556 1140 q 576 1217 556 1199 q 625 1236 596 1236 q 674 1217 654 1236 q 693 1169 693 1199 q 674 1122 693 1140 q 625 1103 654 1103 z "},"Ạ":{"ha":1010,"x_min":40,"x_max":969,"o":"m 964 65 q 969 42 969 54 q 953 7 969 21 q 915 -7 938 -7 q 867 26 881 -7 l 768 251 l 244 251 l 144 26 q 96 -7 131 -7 q 57 8 74 -7 q 40 43 40 22 q 46 65 40 54 l 443 949 q 468 978 451 968 q 504 988 485 988 q 542 977 525 988 q 567 949 558 967 l 964 65 m 286 346 l 726 346 l 506 844 l 286 346 m 506 -260 q 454 -241 474 -260 q 435 -192 435 -222 q 454 -142 435 -161 q 506 -124 474 -124 q 556 -142 536 -124 q 576 -192 576 -161 q 557 -241 576 -222 q 506 -260 538 -260 z "},"À":{"ha":1010,"x_min":40,"x_max":969,"o":"m 964 65 q 969 42 969 54 q 953 7 969 21 q 915 -7 938 -7 q 867 26 881 -7 l 768 251 l 244 251 l 144 26 q 96 -7 131 -7 q 57 8 74 -7 q 40 43 40 22 q 46 65 40 54 l 443 949 q 468 978 451 968 q 504 988 485 988 q 542 977 525 988 q 567 949 558 967 l 964 65 m 286 346 l 726 346 l 506 844 l 286 346 m 324 1181 q 290 1232 290 1203 q 305 1265 290 1251 q 339 1279 319 1279 q 388 1256 364 1279 l 525 1106 q 535 1083 535 1096 q 526 1064 535 1072 q 504 1056 517 1056 q 486 1061 496 1056 l 324 1181 z "},"Ả":{"ha":1010,"x_min":40,"x_max":969,"o":"m 964 65 q 969 42 969 54 q 953 7 969 21 q 915 -7 938 -7 q 867 26 881 -7 l 768 251 l 244 251 l 144 26 q 96 -7 131 -7 q 57 8 74 -7 q 40 43 40 22 q 46 65 40 54 l 443 949 q 468 978 451 968 q 504 988 485 988 q 542 977 525 988 q 567 949 558 967 l 964 65 m 286 346 l 726 346 l 506 844 l 286 346 m 544 1081 q 533 1062 543 1068 q 510 1056 524 1056 q 482 1065 493 1056 q 471 1092 471 1074 q 486 1129 471 1115 q 528 1156 501 1143 q 542 1163 531 1157 q 558 1174 553 1168 q 563 1186 563 1179 q 547 1206 563 1199 q 506 1213 532 1213 q 435 1201 469 1213 q 424 1200 431 1200 q 401 1209 410 1200 q 393 1231 393 1218 q 399 1249 393 1240 q 415 1263 404 1258 q 511 1279 454 1279 q 614 1255 576 1279 q 651 1192 651 1231 q 635 1149 651 1164 q 590 1119 619 1133 q 558 1102 569 1111 q 544 1081 547 1093 z "},"Ȃ":{"ha":1010,"x_min":40,"x_max":969,"o":"m 964 65 q 969 42 969 54 q 953 7 969 21 q 915 -7 938 -7 q 867 26 881 -7 l 768 251 l 244 251 l 144 26 q 96 -7 131 -7 q 57 8 74 -7 q 40 43 40 22 q 46 65 40 54 l 443 949 q 468 978 451 968 q 504 988 485 988 q 542 977 525 988 q 567 949 558 967 l 964 65 m 286 346 l 726 346 l 506 844 l 286 346 m 365 1101 q 324 1079 347 1079 q 297 1089 308 1079 q 286 1114 286 1099 q 292 1139 286 1128 q 377 1228 321 1197 q 506 1258 433 1258 q 633 1228 578 1258 q 719 1139 689 1197 q 726 1114 726 1125 q 715 1089 726 1099 q 688 1079 704 1079 q 646 1101 663 1079 q 506 1176 596 1176 q 365 1101 415 1176 z "},"Ā":{"ha":1010,"x_min":40,"x_max":969,"o":"m 964 65 q 969 42 969 54 q 953 7 969 21 q 915 -7 938 -7 q 867 26 881 -7 l 768 251 l 244 251 l 144 26 q 96 -7 131 -7 q 57 8 74 -7 q 40 43 40 22 q 46 65 40 54 l 443 949 q 468 978 451 968 q 504 988 485 988 q 542 977 525 988 q 567 949 558 967 l 964 65 m 286 346 l 726 346 l 506 844 l 286 346 m 338 1126 q 301 1138 314 1126 q 288 1169 288 1149 q 301 1201 288 1190 q 338 1211 314 1211 l 674 1211 q 710 1201 697 1211 q 724 1169 724 1190 q 710 1138 724 1149 q 674 1126 697 1126 l 338 1126 z "},"Ą":{"ha":1010,"x_min":40,"x_max":1036,"o":"m 993 -178 q 1010 -174 1001 -174 q 1029 -183 1022 -174 q 1036 -206 1036 -193 q 1015 -242 1036 -229 q 913 -268 968 -268 q 795 -226 840 -268 q 750 -118 750 -185 q 779 -27 750 -68 q 861 38 808 14 l 768 251 l 244 251 l 144 26 q 96 -7 131 -7 q 57 8 74 -7 q 40 43 40 22 q 46 65 40 54 l 443 949 q 468 978 451 968 q 504 988 485 988 q 542 977 525 988 q 567 949 558 967 l 964 65 q 969 42 969 54 q 960 15 969 26 q 936 -1 950 3 q 864 -38 890 -11 q 838 -107 838 -65 q 862 -172 838 -149 q 926 -194 886 -194 q 993 -178 958 -194 m 286 346 l 726 346 l 506 844 l 286 346 z "},"Å":{"ha":1010,"x_min":40,"x_max":969,"o":"m 964 65 q 969 42 969 54 q 953 7 969 21 q 915 -7 938 -7 q 867 26 881 -7 l 768 251 l 244 251 l 144 26 q 96 -7 131 -7 q 57 8 74 -7 q 40 43 40 22 q 46 65 40 54 l 444 949 q 387 999 408 965 q 365 1074 365 1032 q 406 1172 365 1132 q 506 1211 447 1211 q 605 1172 564 1211 q 646 1074 646 1132 q 624 999 646 1032 q 567 949 603 965 l 964 65 m 506 1143 q 458 1123 476 1143 q 439 1074 439 1103 q 458 1024 439 1044 q 506 1004 476 1004 q 553 1024 535 1004 q 572 1074 572 1044 q 553 1123 572 1103 q 506 1143 535 1143 m 286 346 l 726 346 l 506 844 l 286 346 z "},"Ǻ":{"ha":1010,"x_min":40,"x_max":969,"o":"m 964 65 q 969 42 969 54 q 953 7 969 21 q 915 -7 938 -7 q 867 26 881 -7 l 768 251 l 244 251 l 144 26 q 96 -7 131 -7 q 57 8 74 -7 q 40 43 40 22 q 46 65 40 54 l 444 949 q 387 999 408 965 q 365 1074 365 1032 q 406 1172 365 1132 q 506 1211 447 1211 q 583 1189 547 1211 l 721 1299 q 761 1314 740 1314 q 799 1297 783 1314 q 815 1258 815 1281 q 775 1206 815 1222 l 629 1139 q 646 1074 646 1110 q 624 999 646 1032 q 567 949 603 965 l 964 65 m 506 1143 q 458 1123 476 1143 q 439 1074 439 1103 q 458 1024 439 1044 q 506 1004 476 1004 q 553 1024 535 1004 q 572 1074 572 1044 q 553 1123 572 1103 q 506 1143 535 1143 m 286 346 l 726 346 l 506 844 l 286 346 z "},"Ã":{"ha":1010,"x_min":40,"x_max":969,"o":"m 964 65 q 969 42 969 54 q 953 7 969 21 q 915 -7 938 -7 q 867 26 881 -7 l 768 251 l 244 251 l 144 26 q 96 -7 131 -7 q 57 8 74 -7 q 40 43 40 22 q 46 65 40 54 l 443 949 q 468 978 451 968 q 504 988 485 988 q 542 977 525 988 q 567 949 558 967 l 964 65 m 286 346 l 726 346 l 506 844 l 286 346 m 604 1097 q 555 1106 581 1097 q 494 1129 529 1114 q 444 1149 464 1143 q 408 1156 425 1156 q 372 1146 385 1156 q 346 1119 358 1136 q 317 1099 331 1099 q 294 1108 303 1099 q 286 1132 286 1117 q 301 1181 286 1156 q 344 1224 317 1207 q 407 1242 372 1242 q 454 1234 431 1242 q 517 1211 478 1226 q 567 1191 547 1197 q 603 1185 586 1185 q 638 1194 625 1185 q 665 1219 651 1203 q 694 1240 681 1240 q 717 1231 708 1240 q 725 1207 725 1222 q 710 1158 725 1183 q 667 1115 694 1132 q 604 1097 639 1097 z "},"Æ":{"ha":1376,"x_min":17,"x_max":1319,"o":"m 1267 96 q 1306 83 1292 96 q 1319 47 1319 71 q 1306 13 1319 25 q 1267 0 1292 0 l 843 0 q 806 13 821 0 q 786 47 792 26 l 743 251 l 260 251 l 124 26 q 65 -8 101 -8 q 31 3 44 -8 q 17 35 17 15 q 26 65 17 50 l 572 949 q 639 979 593 979 l 1267 979 q 1306 967 1292 979 q 1319 932 1319 954 q 1306 896 1319 908 q 1267 883 1292 883 l 713 883 l 786 544 l 1239 544 q 1278 532 1264 544 q 1292 497 1292 519 q 1278 463 1292 475 q 1239 450 1264 450 l 806 450 l 882 96 l 1267 96 m 318 346 l 722 346 l 618 840 l 318 346 z "},"Ǽ":{"ha":1376,"x_min":17,"x_max":1319,"o":"m 1267 96 q 1306 83 1292 96 q 1319 47 1319 71 q 1306 13 1319 25 q 1267 0 1292 0 l 843 0 q 806 13 821 0 q 786 47 792 26 l 743 251 l 260 251 l 124 26 q 65 -8 101 -8 q 31 3 44 -8 q 17 35 17 15 q 26 65 17 50 l 572 949 q 639 979 593 979 l 1267 979 q 1306 967 1292 979 q 1319 932 1319 954 q 1306 896 1319 908 q 1267 883 1292 883 l 713 883 l 786 544 l 1239 544 q 1278 532 1264 544 q 1292 497 1292 519 q 1278 463 1292 475 q 1239 450 1264 450 l 806 450 l 882 96 l 1267 96 m 318 346 l 722 346 l 618 840 l 318 346 m 711 1061 q 693 1056 701 1056 q 672 1064 681 1056 q 663 1083 663 1072 q 672 1106 663 1096 l 810 1256 q 858 1279 832 1279 q 892 1265 878 1279 q 907 1232 907 1251 q 874 1181 907 1203 l 711 1061 z "},"B":{"ha":936,"x_min":121,"x_max":854,"o":"m 676 503 q 808 419 761 481 q 854 267 854 358 q 769 69 854 138 q 529 0 685 0 l 179 0 q 137 15 153 0 q 121 56 121 31 l 121 924 q 137 964 121 949 q 179 979 153 979 l 514 979 q 749 913 665 979 q 832 724 832 846 q 791 588 832 644 q 676 503 750 531 m 233 544 l 497 544 q 663 589 607 544 q 719 718 719 633 q 497 885 719 885 l 233 885 l 233 544 m 518 94 q 688 137 633 94 q 743 269 743 179 q 518 450 743 450 l 233 450 l 233 94 l 518 94 z "},"C":{"ha":940,"x_min":85,"x_max":878,"o":"m 536 -11 q 296 49 397 -11 q 140 223 194 110 q 85 490 85 336 q 140 756 85 643 q 296 930 194 869 q 536 990 397 990 q 712 960 629 990 q 856 875 794 931 q 878 826 878 854 q 867 792 878 807 q 840 778 856 778 q 800 793 824 778 q 672 871 729 849 q 539 893 614 893 q 291 788 378 893 q 204 490 204 683 q 291 191 204 296 q 539 86 378 86 q 671 108 613 86 q 800 186 729 131 q 840 201 824 201 q 867 188 856 201 q 878 153 878 174 q 856 104 878 125 q 712 19 794 49 q 536 -11 629 -11 z "},"Ć":{"ha":940,"x_min":85,"x_max":878,"o":"m 536 -11 q 296 49 397 -11 q 140 223 194 110 q 85 490 85 336 q 140 756 85 643 q 296 930 194 869 q 536 990 397 990 q 712 960 629 990 q 856 875 794 931 q 878 826 878 854 q 867 792 878 807 q 840 778 856 778 q 800 793 824 778 q 672 871 729 849 q 539 893 614 893 q 291 788 378 893 q 204 490 204 683 q 291 191 204 296 q 539 86 378 86 q 671 108 613 86 q 800 186 729 131 q 840 201 824 201 q 867 188 856 201 q 878 153 878 174 q 856 104 878 125 q 712 19 794 49 q 536 -11 629 -11 m 556 1061 q 538 1056 546 1056 q 516 1064 525 1056 q 507 1083 507 1072 q 517 1106 507 1096 l 654 1256 q 703 1279 676 1279 q 737 1265 722 1279 q 751 1232 751 1251 q 718 1181 751 1203 l 556 1061 z "},"Č":{"ha":940,"x_min":85,"x_max":878,"o":"m 536 -11 q 296 49 397 -11 q 140 223 194 110 q 85 490 85 336 q 140 756 85 643 q 296 930 194 869 q 536 990 397 990 q 712 960 629 990 q 856 875 794 931 q 878 826 878 854 q 867 792 878 807 q 840 778 856 778 q 800 793 824 778 q 672 871 729 849 q 539 893 614 893 q 291 788 378 893 q 204 490 204 683 q 291 191 204 296 q 539 86 378 86 q 671 108 613 86 q 800 186 729 131 q 840 201 824 201 q 867 188 856 201 q 878 153 878 174 q 856 104 878 125 q 712 19 794 49 q 536 -11 629 -11 m 536 1056 q 485 1078 508 1056 l 361 1206 q 346 1239 346 1221 q 358 1267 346 1256 q 386 1279 369 1279 q 419 1264 404 1279 l 536 1135 l 653 1264 q 686 1279 667 1279 q 714 1267 701 1279 q 726 1239 726 1254 q 711 1206 726 1221 l 588 1078 q 536 1056 564 1056 z "},"Ç":{"ha":940,"x_min":85,"x_max":878,"o":"m 840 201 q 867 188 856 201 q 878 153 878 174 q 856 104 878 125 q 722 23 799 53 q 561 -11 646 -7 l 556 -61 q 592 -57 572 -57 q 665 -81 635 -57 q 694 -153 694 -106 q 651 -236 694 -204 q 531 -268 608 -268 q 436 -251 479 -268 q 419 -238 425 -247 q 413 -219 413 -229 q 421 -198 413 -207 q 443 -189 429 -189 q 454 -190 450 -189 q 532 -201 492 -201 q 591 -189 571 -201 q 611 -153 611 -176 q 600 -125 611 -135 q 568 -115 589 -115 q 529 -122 553 -115 q 500 -128 506 -128 q 480 -120 489 -128 q 472 -101 471 -112 l 483 -8 q 270 66 360 3 q 133 238 181 129 q 85 490 85 346 q 140 756 85 643 q 296 930 194 869 q 536 990 397 990 q 712 960 629 990 q 856 875 794 931 q 878 826 878 854 q 867 792 878 807 q 840 778 856 778 q 800 793 824 778 q 672 871 729 849 q 539 893 614 893 q 291 788 378 893 q 204 490 204 683 q 291 191 204 296 q 539 86 378 86 q 671 108 613 86 q 800 186 729 131 q 840 201 824 201 z "},"Ḉ":{"ha":940,"x_min":85,"x_max":878,"o":"m 556 1061 q 538 1056 546 1056 q 516 1064 525 1056 q 507 1083 507 1072 q 517 1106 507 1096 l 654 1256 q 703 1279 676 1279 q 737 1265 722 1279 q 751 1232 751 1251 q 718 1181 751 1203 l 556 1061 m 840 201 q 867 188 856 201 q 878 153 878 174 q 856 104 878 125 q 722 23 799 53 q 561 -11 646 -7 l 556 -61 q 592 -57 572 -57 q 665 -81 635 -57 q 694 -153 694 -106 q 651 -236 694 -204 q 531 -268 608 -268 q 436 -251 479 -268 q 419 -238 425 -247 q 413 -219 413 -229 q 421 -198 413 -207 q 443 -189 429 -189 q 454 -190 450 -189 q 532 -201 492 -201 q 591 -189 571 -201 q 611 -153 611 -176 q 600 -125 611 -135 q 568 -115 589 -115 q 529 -122 553 -115 q 500 -128 506 -128 q 480 -120 489 -128 q 472 -101 471 -112 l 483 -8 q 270 66 360 3 q 133 238 181 129 q 85 490 85 346 q 140 756 85 643 q 296 930 194 869 q 536 990 397 990 q 712 960 629 990 q 856 875 794 931 q 878 826 878 854 q 867 792 878 807 q 840 778 856 778 q 800 793 824 778 q 672 871 729 849 q 539 893 614 893 q 291 788 378 893 q 204 490 204 683 q 291 191 204 296 q 539 86 378 86 q 671 108 613 86 q 800 186 729 131 q 840 201 824 201 z "},"Ĉ":{"ha":940,"x_min":85,"x_max":878,"o":"m 536 -11 q 296 49 397 -11 q 140 223 194 110 q 85 490 85 336 q 140 756 85 643 q 296 930 194 869 q 536 990 397 990 q 712 960 629 990 q 856 875 794 931 q 878 826 878 854 q 867 792 878 807 q 840 778 856 778 q 800 793 824 778 q 672 871 729 849 q 539 893 614 893 q 291 788 378 893 q 204 490 204 683 q 291 191 204 296 q 539 86 378 86 q 671 108 613 86 q 800 186 729 131 q 840 201 824 201 q 867 188 856 201 q 878 153 878 174 q 856 104 878 125 q 712 19 794 49 q 536 -11 629 -11 m 419 1071 q 388 1056 406 1056 q 358 1068 371 1056 q 346 1097 346 1081 q 361 1129 346 1115 l 485 1257 q 536 1279 507 1279 q 588 1257 564 1279 l 711 1129 q 726 1096 726 1114 q 714 1068 726 1081 q 686 1056 701 1056 q 653 1071 668 1056 l 536 1201 l 419 1071 z "},"Ċ":{"ha":940,"x_min":85,"x_max":878,"o":"m 536 -11 q 296 49 397 -11 q 140 223 194 110 q 85 490 85 336 q 140 756 85 643 q 296 930 194 869 q 536 990 397 990 q 712 960 629 990 q 856 875 794 931 q 878 826 878 854 q 867 792 878 807 q 840 778 856 778 q 800 793 824 778 q 672 871 729 849 q 539 893 614 893 q 291 788 378 893 q 204 490 204 683 q 291 191 204 296 q 539 86 378 86 q 671 108 613 86 q 800 186 729 131 q 840 201 824 201 q 867 188 856 201 q 878 153 878 174 q 856 104 878 125 q 712 19 794 49 q 536 -11 629 -11 m 536 1099 q 482 1118 503 1099 q 461 1169 461 1138 q 482 1220 461 1201 q 536 1239 503 1239 q 590 1220 569 1239 q 611 1169 611 1201 q 590 1118 611 1138 q 536 1099 569 1099 z "},"D":{"ha":1026,"x_min":121,"x_max":942,"o":"m 179 0 q 137 15 153 0 q 121 56 121 31 l 121 924 q 137 964 121 949 q 179 979 153 979 l 450 979 q 813 852 685 979 q 942 490 942 725 q 813 128 942 256 q 450 0 683 0 l 179 0 m 443 97 q 824 490 824 97 q 443 882 824 882 l 235 882 l 235 97 l 443 97 z "},"Ǆ":{"ha":1824,"x_min":121,"x_max":1785,"o":"m 179 0 q 137 15 153 0 q 121 56 121 31 l 121 924 q 137 964 121 949 q 179 979 153 979 l 450 979 q 813 852 685 979 q 942 490 942 725 q 813 128 942 256 q 450 0 683 0 l 179 0 m 443 97 q 824 490 824 97 q 443 882 824 882 l 235 882 l 235 97 l 443 97 z "},"Ð":{"ha":1044,"x_min":0,"x_max":960,"o":"m 468 979 q 831 852 703 979 q 960 490 960 725 q 831 128 960 256 q 468 0 701 0 l 197 0 q 155 16 171 0 q 139 56 139 32 l 139 450 l 51 450 q 14 462 28 450 q 0 496 0 474 q 14 531 0 518 q 51 543 28 543 l 139 543 l 139 924 q 155 964 139 949 q 197 979 171 979 l 468 979 m 463 97 q 843 490 843 97 q 463 882 843 882 l 253 882 l 253 543 l 481 543 q 517 531 504 543 q 531 496 531 518 q 517 462 531 474 q 481 450 504 450 l 253 450 l 253 97 l 463 97 z "},"Ď":{"ha":1026,"x_min":121,"x_max":942,"o":"m 179 0 q 137 15 153 0 q 121 56 121 31 l 121 924 q 137 964 121 949 q 179 979 153 979 l 450 979 q 813 852 685 979 q 942 490 942 725 q 813 128 942 256 q 450 0 683 0 l 179 0 m 443 97 q 824 490 824 97 q 443 882 824 882 l 235 882 l 235 97 l 443 97 m 513 1056 q 461 1078 485 1056 l 338 1206 q 322 1239 322 1221 q 334 1267 322 1256 q 363 1279 346 1279 q 396 1264 381 1279 l 513 1135 l 629 1264 q 663 1279 643 1279 q 690 1267 678 1279 q 703 1239 703 1254 q 688 1206 703 1221 l 564 1078 q 513 1056 540 1056 z "},"Đ":{"ha":1044,"x_min":0,"x_max":960,"o":"m 468 979 q 831 852 703 979 q 960 490 960 725 q 831 128 960 256 q 468 0 701 0 l 197 0 q 155 16 171 0 q 139 56 139 32 l 139 450 l 51 450 q 14 462 28 450 q 0 496 0 474 q 14 531 0 518 q 51 543 28 543 l 139 543 l 139 924 q 155 964 139 949 q 197 979 171 979 l 468 979 m 463 97 q 843 490 843 97 q 463 882 843 882 l 253 882 l 253 543 l 481 543 q 517 531 504 543 q 531 496 531 518 q 517 462 531 474 q 481 450 504 450 l 253 450 l 253 97 l 463 97 z "},"Ḍ":{"ha":1026,"x_min":121,"x_max":942,"o":"m 179 0 q 137 15 153 0 q 121 56 121 31 l 121 924 q 137 964 121 949 q 179 979 153 979 l 450 979 q 813 852 685 979 q 942 490 942 725 q 813 128 942 256 q 450 0 683 0 l 179 0 m 443 97 q 824 490 824 97 q 443 882 824 882 l 235 882 l 235 97 l 443 97 m 514 -260 q 463 -241 482 -260 q 443 -192 443 -222 q 463 -142 443 -161 q 514 -124 482 -124 q 565 -142 544 -124 q 585 -192 585 -161 q 565 -241 585 -222 q 514 -260 546 -260 z "},"Ḏ":{"ha":1026,"x_min":121,"x_max":942,"o":"m 179 0 q 137 15 153 0 q 121 56 121 31 l 121 924 q 137 964 121 949 q 179 979 153 979 l 450 979 q 813 852 685 979 q 942 490 942 725 q 813 128 942 256 q 450 0 683 0 l 179 0 m 443 97 q 824 490 824 97 q 443 882 824 882 l 235 882 l 235 97 l 443 97 m 346 -233 q 309 -222 322 -233 q 296 -192 296 -211 q 309 -162 296 -172 q 346 -151 322 -151 l 682 -151 q 719 -162 706 -151 q 732 -192 732 -172 q 719 -222 732 -211 q 682 -233 706 -233 l 346 -233 z "},"ǅ":{"ha":1724,"x_min":121,"x_max":1676,"o":"m 179 0 q 137 15 153 0 q 121 56 121 31 l 121 924 q 137 964 121 949 q 179 979 153 979 l 450 979 q 813 852 685 979 q 942 490 942 725 q 813 128 942 256 q 450 0 683 0 l 179 0 m 443 97 q 824 490 824 97 q 443 882 824 882 l 235 882 l 235 97 l 443 97 z "},"E":{"ha":808,"x_min":121,"x_max":751,"o":"m 179 0 q 137 15 153 0 q 121 56 121 31 l 121 924 q 137 964 121 949 q 179 979 153 979 l 699 979 q 738 967 724 979 q 751 932 751 954 q 738 897 751 910 q 699 885 724 885 l 233 885 l 233 544 l 671 544 q 710 532 696 544 q 724 497 724 519 q 710 463 724 475 q 671 450 696 450 l 233 450 l 233 94 l 699 94 q 738 83 724 94 q 751 47 751 71 q 738 13 751 25 q 699 0 724 0 l 179 0 z "},"É":{"ha":808,"x_min":121,"x_max":751,"o":"m 179 0 q 137 15 153 0 q 121 56 121 31 l 121 924 q 137 964 121 949 q 179 979 153 979 l 699 979 q 738 967 724 979 q 751 932 751 954 q 738 897 751 910 q 699 885 724 885 l 233 885 l 233 544 l 671 544 q 710 532 696 544 q 724 497 724 519 q 710 463 724 475 q 671 450 696 450 l 233 450 l 233 94 l 699 94 q 738 83 724 94 q 751 47 751 71 q 738 13 751 25 q 699 0 724 0 l 179 0 m 469 1061 q 451 1056 460 1056 q 430 1064 439 1056 q 421 1083 421 1072 q 431 1106 421 1096 l 568 1256 q 617 1279 590 1279 q 651 1265 636 1279 q 665 1232 665 1251 q 632 1181 665 1203 l 469 1061 z "},"Ĕ":{"ha":808,"x_min":121,"x_max":751,"o":"m 179 0 q 137 15 153 0 q 121 56 121 31 l 121 924 q 137 964 121 949 q 179 979 153 979 l 699 979 q 738 967 724 979 q 751 932 751 954 q 738 897 751 910 q 699 885 724 885 l 233 885 l 233 544 l 671 544 q 710 532 696 544 q 724 497 724 519 q 710 463 724 475 q 671 450 696 450 l 233 450 l 233 94 l 699 94 q 738 83 724 94 q 751 47 751 71 q 738 13 751 25 q 699 0 724 0 l 179 0 m 450 1079 q 322 1109 378 1079 q 236 1197 267 1139 q 229 1222 229 1211 q 240 1249 229 1239 q 267 1258 251 1258 q 310 1235 292 1258 q 369 1178 335 1196 q 450 1161 404 1161 q 531 1178 496 1161 q 590 1235 565 1196 q 632 1258 608 1258 q 659 1249 649 1258 q 669 1222 669 1239 q 664 1197 669 1208 q 578 1110 635 1140 q 450 1079 522 1079 z "},"Ě":{"ha":808,"x_min":121,"x_max":751,"o":"m 179 0 q 137 15 153 0 q 121 56 121 31 l 121 924 q 137 964 121 949 q 179 979 153 979 l 699 979 q 738 967 724 979 q 751 932 751 954 q 738 897 751 910 q 699 885 724 885 l 233 885 l 233 544 l 671 544 q 710 532 696 544 q 724 497 724 519 q 710 463 724 475 q 671 450 696 450 l 233 450 l 233 94 l 699 94 q 738 83 724 94 q 751 47 751 71 q 738 13 751 25 q 699 0 724 0 l 179 0 m 450 1056 q 399 1078 422 1056 l 275 1206 q 260 1239 260 1221 q 272 1267 260 1256 q 300 1279 283 1279 q 333 1264 318 1279 l 450 1135 l 567 1264 q 600 1279 581 1279 q 628 1267 615 1279 q 640 1239 640 1254 q 625 1206 640 1221 l 501 1078 q 450 1056 478 1056 z "},"Ȩ":{"ha":808,"x_min":121,"x_max":751,"o":"m 699 94 q 738 83 724 94 q 751 47 751 71 q 738 13 751 25 q 699 0 724 0 l 476 0 l 469 -61 q 506 -57 486 -57 q 578 -81 549 -57 q 608 -153 608 -106 q 565 -236 608 -204 q 444 -268 522 -268 q 350 -251 394 -268 q 333 -238 339 -247 q 326 -219 326 -229 q 335 -198 326 -207 q 357 -189 343 -189 q 368 -190 364 -189 q 446 -201 406 -201 q 505 -189 485 -201 q 525 -153 525 -176 q 514 -125 525 -135 q 482 -115 503 -115 q 443 -122 467 -115 q 414 -128 419 -128 q 394 -120 403 -128 q 386 -101 385 -112 l 399 0 l 179 0 q 137 15 153 0 q 121 56 121 31 l 121 924 q 137 964 121 949 q 179 979 153 979 l 699 979 q 738 967 724 979 q 751 932 751 954 q 738 897 751 910 q 699 885 724 885 l 233 885 l 233 544 l 671 544 q 710 532 696 544 q 724 497 724 519 q 710 463 724 475 q 671 450 696 450 l 233 450 l 233 94 l 699 94 z "},"Ḝ":{"ha":808,"x_min":121,"x_max":751,"o":"m 450 1079 q 322 1109 378 1079 q 236 1197 267 1139 q 229 1222 229 1211 q 240 1249 229 1239 q 267 1258 251 1258 q 310 1235 292 1258 q 369 1178 335 1196 q 450 1161 404 1161 q 531 1178 496 1161 q 590 1235 565 1196 q 632 1258 608 1258 q 659 1249 649 1258 q 669 1222 669 1239 q 664 1197 669 1208 q 578 1110 635 1140 q 450 1079 522 1079 m 699 94 q 738 83 724 94 q 751 47 751 71 q 738 13 751 25 q 699 0 724 0 l 476 0 l 469 -61 q 506 -57 486 -57 q 578 -81 549 -57 q 608 -153 608 -106 q 565 -236 608 -204 q 444 -268 522 -268 q 350 -251 394 -268 q 333 -238 339 -247 q 326 -219 326 -229 q 335 -198 326 -207 q 357 -189 343 -189 q 368 -190 364 -189 q 446 -201 406 -201 q 505 -189 485 -201 q 525 -153 525 -176 q 514 -125 525 -135 q 482 -115 503 -115 q 443 -122 467 -115 q 414 -128 419 -128 q 394 -120 403 -128 q 386 -101 385 -112 l 399 0 l 179 0 q 137 15 153 0 q 121 56 121 31 l 121 924 q 137 964 121 949 q 179 979 153 979 l 699 979 q 738 967 724 979 q 751 932 751 954 q 738 897 751 910 q 699 885 724 885 l 233 885 l 233 544 l 671 544 q 710 532 696 544 q 724 497 724 519 q 710 463 724 475 q 671 450 696 450 l 233 450 l 233 94 l 699 94 z "},"Ê":{"ha":808,"x_min":121,"x_max":751,"o":"m 179 0 q 137 15 153 0 q 121 56 121 31 l 121 924 q 137 964 121 949 q 179 979 153 979 l 699 979 q 738 967 724 979 q 751 932 751 954 q 738 897 751 910 q 699 885 724 885 l 233 885 l 233 544 l 671 544 q 710 532 696 544 q 724 497 724 519 q 710 463 724 475 q 671 450 696 450 l 233 450 l 233 94 l 699 94 q 738 83 724 94 q 751 47 751 71 q 738 13 751 25 q 699 0 724 0 l 179 0 m 333 1071 q 301 1056 319 1056 q 272 1068 285 1056 q 260 1097 260 1081 q 275 1129 260 1115 l 399 1257 q 450 1279 421 1279 q 501 1257 478 1279 l 625 1129 q 640 1096 640 1114 q 628 1068 640 1081 q 600 1056 615 1056 q 567 1071 582 1056 l 450 1201 l 333 1071 z "},"Ế":{"ha":808,"x_min":121,"x_max":785,"o":"m 179 0 q 137 15 153 0 q 121 56 121 31 l 121 924 q 137 964 121 949 q 179 979 153 979 l 699 979 q 738 967 724 979 q 751 932 751 954 q 738 897 751 910 q 699 885 724 885 l 233 885 l 233 544 l 671 544 q 710 532 696 544 q 724 497 724 519 q 710 463 724 475 q 671 450 696 450 l 233 450 l 233 94 l 699 94 q 738 83 724 94 q 751 47 751 71 q 738 13 751 25 q 699 0 724 0 l 179 0 m 625 1204 q 607 1199 618 1199 q 585 1208 594 1199 q 576 1229 576 1217 q 583 1249 576 1240 l 689 1383 q 735 1410 710 1410 q 770 1395 756 1410 q 785 1361 785 1381 q 756 1311 785 1332 l 625 1204 m 331 1069 q 300 1056 317 1056 q 272 1067 285 1056 q 260 1096 260 1079 q 278 1132 260 1115 l 399 1251 q 450 1274 422 1274 q 501 1251 478 1274 l 622 1132 q 640 1097 640 1115 q 628 1068 640 1081 q 600 1056 615 1056 q 571 1068 583 1056 l 450 1196 l 331 1069 z "},"Ệ":{"ha":808,"x_min":121,"x_max":751,"o":"m 179 0 q 137 15 153 0 q 121 56 121 31 l 121 924 q 137 964 121 949 q 179 979 153 979 l 699 979 q 738 967 724 979 q 751 932 751 954 q 738 897 751 910 q 699 885 724 885 l 233 885 l 233 544 l 671 544 q 710 532 696 544 q 724 497 724 519 q 710 463 724 475 q 671 450 696 450 l 233 450 l 233 94 l 699 94 q 738 83 724 94 q 751 47 751 71 q 738 13 751 25 q 699 0 724 0 l 179 0 m 450 -260 q 399 -241 418 -260 q 379 -192 379 -222 q 399 -142 379 -161 q 450 -124 418 -124 q 501 -142 481 -124 q 521 -192 521 -161 q 501 -241 521 -222 q 450 -260 482 -260 m 333 1071 q 301 1056 319 1056 q 272 1068 285 1056 q 260 1097 260 1081 q 275 1129 260 1115 l 399 1257 q 450 1279 421 1279 q 501 1257 478 1279 l 625 1129 q 640 1096 640 1114 q 628 1068 640 1081 q 600 1056 615 1056 q 567 1071 582 1056 l 450 1201 l 333 1071 z "},"Ề":{"ha":808,"x_min":121,"x_max":751,"o":"m 179 0 q 137 15 153 0 q 121 56 121 31 l 121 924 q 137 964 121 949 q 179 979 153 979 l 699 979 q 738 967 724 979 q 751 932 751 954 q 738 897 751 910 q 699 885 724 885 l 233 885 l 233 544 l 671 544 q 710 532 696 544 q 724 497 724 519 q 710 463 724 475 q 671 450 696 450 l 233 450 l 233 94 l 699 94 q 738 83 724 94 q 751 47 751 71 q 738 13 751 25 q 699 0 724 0 l 179 0 m 500 1313 q 472 1360 472 1335 q 488 1395 472 1381 q 524 1410 503 1410 q 571 1383 551 1410 l 672 1246 q 679 1226 679 1238 q 670 1207 679 1215 q 649 1199 661 1199 q 628 1206 636 1199 l 500 1313 m 331 1069 q 300 1056 317 1056 q 272 1067 285 1056 q 260 1096 260 1079 q 278 1132 260 1115 l 399 1251 q 450 1274 422 1274 q 501 1251 478 1274 l 622 1132 q 640 1097 640 1115 q 628 1068 640 1081 q 600 1056 615 1056 q 571 1068 583 1056 l 450 1196 l 331 1069 z "},"Ể":{"ha":808,"x_min":121,"x_max":751,"o":"m 179 0 q 137 15 153 0 q 121 56 121 31 l 121 924 q 137 964 121 949 q 179 979 153 979 l 699 979 q 738 967 724 979 q 751 932 751 954 q 738 897 751 910 q 699 885 724 885 l 233 885 l 233 544 l 671 544 q 710 532 696 544 q 724 497 724 519 q 710 463 724 475 q 671 450 696 450 l 233 450 l 233 94 l 699 94 q 738 83 724 94 q 751 47 751 71 q 738 13 751 25 q 699 0 724 0 l 179 0 m 639 1222 q 627 1204 638 1211 q 604 1197 617 1197 q 580 1206 590 1197 q 569 1232 569 1215 q 584 1267 569 1254 q 626 1292 599 1279 q 653 1306 644 1300 q 661 1319 661 1311 q 646 1337 661 1331 q 603 1343 631 1343 q 532 1333 578 1343 q 502 1338 514 1329 q 490 1361 490 1347 q 513 1392 490 1383 q 608 1408 551 1408 q 711 1385 674 1408 q 749 1325 749 1361 q 731 1283 749 1297 q 683 1256 714 1268 q 651 1240 663 1247 q 639 1222 640 1233 m 331 1069 q 300 1056 317 1056 q 272 1067 285 1056 q 260 1096 260 1079 q 278 1132 260 1115 l 399 1251 q 450 1274 422 1274 q 501 1251 478 1274 l 622 1132 q 640 1097 640 1115 q 628 1068 640 1081 q 600 1056 615 1056 q 571 1068 583 1056 l 450 1196 l 331 1069 z "},"Ễ":{"ha":808,"x_min":121,"x_max":751,"o":"m 179 0 q 137 15 153 0 q 121 56 121 31 l 121 924 q 137 964 121 949 q 179 979 153 979 l 699 979 q 738 967 724 979 q 751 932 751 954 q 738 897 751 910 q 699 885 724 885 l 233 885 l 233 544 l 671 544 q 710 532 696 544 q 724 497 724 519 q 710 463 724 475 q 671 450 696 450 l 233 450 l 233 94 l 699 94 q 738 83 724 94 q 751 47 751 71 q 738 13 751 25 q 699 0 724 0 l 179 0 m 549 1272 q 499 1280 524 1272 q 435 1304 475 1288 q 390 1322 413 1314 q 353 1329 368 1329 q 317 1320 331 1329 q 290 1294 304 1311 q 261 1274 275 1274 q 239 1282 247 1274 q 231 1304 231 1290 q 246 1351 231 1326 q 289 1392 261 1375 q 351 1408 317 1408 q 403 1400 376 1408 q 465 1375 429 1392 q 510 1358 488 1365 q 547 1350 532 1350 q 584 1360 571 1350 q 610 1386 597 1369 q 639 1407 625 1407 q 661 1398 653 1407 q 669 1375 669 1389 q 654 1330 669 1354 q 611 1289 639 1306 q 549 1272 583 1272 m 331 1069 q 300 1056 317 1056 q 272 1067 285 1056 q 260 1096 260 1079 q 278 1132 260 1115 l 399 1251 q 450 1274 422 1274 q 501 1251 478 1274 l 622 1132 q 640 1097 640 1115 q 628 1068 640 1081 q 600 1056 615 1056 q 571 1068 583 1056 l 450 1196 l 331 1069 z "},"Ȅ":{"ha":808,"x_min":121,"x_max":751,"o":"m 179 0 q 137 15 153 0 q 121 56 121 31 l 121 924 q 137 964 121 949 q 179 979 153 979 l 699 979 q 738 967 724 979 q 751 932 751 954 q 738 897 751 910 q 699 885 724 885 l 233 885 l 233 544 l 671 544 q 710 532 696 544 q 724 497 724 519 q 710 463 724 475 q 671 450 696 450 l 233 450 l 233 94 l 699 94 q 738 83 724 94 q 751 47 751 71 q 738 13 751 25 q 699 0 724 0 l 179 0 m 240 1197 q 225 1236 225 1217 q 238 1267 225 1254 q 269 1281 251 1281 q 315 1246 300 1281 l 389 1096 q 393 1081 393 1088 q 385 1063 393 1069 q 368 1056 378 1056 q 343 1068 353 1056 l 240 1197 m 407 1197 q 392 1236 392 1217 q 405 1267 392 1254 q 436 1281 418 1281 q 482 1246 467 1281 l 556 1096 q 560 1081 560 1088 q 553 1063 560 1069 q 535 1056 546 1056 q 510 1068 522 1056 l 407 1197 z "},"Ë":{"ha":808,"x_min":121,"x_max":751,"o":"m 179 0 q 137 15 153 0 q 121 56 121 31 l 121 924 q 137 964 121 949 q 179 979 153 979 l 699 979 q 738 967 724 979 q 751 932 751 954 q 738 897 751 910 q 699 885 724 885 l 233 885 l 233 544 l 671 544 q 710 532 696 544 q 724 497 724 519 q 710 463 724 475 q 671 450 696 450 l 233 450 l 233 94 l 699 94 q 738 83 724 94 q 751 47 751 71 q 738 13 751 25 q 699 0 724 0 l 179 0 m 331 1103 q 282 1122 301 1103 q 263 1169 263 1140 q 282 1217 263 1199 q 331 1236 301 1236 q 380 1217 360 1236 q 400 1169 400 1199 q 381 1121 400 1139 q 331 1103 361 1103 m 569 1103 q 520 1122 540 1103 q 500 1169 500 1140 q 520 1217 500 1199 q 569 1236 540 1236 q 618 1217 599 1236 q 638 1169 638 1199 q 618 1122 638 1140 q 569 1103 599 1103 z "},"Ė":{"ha":808,"x_min":121,"x_max":751,"o":"m 179 0 q 137 15 153 0 q 121 56 121 31 l 121 924 q 137 964 121 949 q 179 979 153 979 l 699 979 q 738 967 724 979 q 751 932 751 954 q 738 897 751 910 q 699 885 724 885 l 233 885 l 233 544 l 671 544 q 710 532 696 544 q 724 497 724 519 q 710 463 724 475 q 671 450 696 450 l 233 450 l 233 94 l 699 94 q 738 83 724 94 q 751 47 751 71 q 738 13 751 25 q 699 0 724 0 l 179 0 m 450 1099 q 396 1118 417 1099 q 375 1169 375 1138 q 396 1220 375 1201 q 450 1239 417 1239 q 504 1220 483 1239 q 525 1169 525 1201 q 504 1118 525 1138 q 450 1099 483 1099 z "},"Ẹ":{"ha":808,"x_min":121,"x_max":751,"o":"m 179 0 q 137 15 153 0 q 121 56 121 31 l 121 924 q 137 964 121 949 q 179 979 153 979 l 699 979 q 738 967 724 979 q 751 932 751 954 q 738 897 751 910 q 699 885 724 885 l 233 885 l 233 544 l 671 544 q 710 532 696 544 q 724 497 724 519 q 710 463 724 475 q 671 450 696 450 l 233 450 l 233 94 l 699 94 q 738 83 724 94 q 751 47 751 71 q 738 13 751 25 q 699 0 724 0 l 179 0 m 450 -260 q 399 -241 418 -260 q 379 -192 379 -222 q 399 -142 379 -161 q 450 -124 418 -124 q 501 -142 481 -124 q 521 -192 521 -161 q 501 -241 521 -222 q 450 -260 482 -260 z "},"È":{"ha":808,"x_min":121,"x_max":751,"o":"m 179 0 q 137 15 153 0 q 121 56 121 31 l 121 924 q 137 964 121 949 q 179 979 153 979 l 699 979 q 738 967 724 979 q 751 932 751 954 q 738 897 751 910 q 699 885 724 885 l 233 885 l 233 544 l 671 544 q 710 532 696 544 q 724 497 724 519 q 710 463 724 475 q 671 450 696 450 l 233 450 l 233 94 l 699 94 q 738 83 724 94 q 751 47 751 71 q 738 13 751 25 q 699 0 724 0 l 179 0 m 268 1181 q 235 1232 235 1203 q 249 1265 235 1251 q 283 1279 264 1279 q 332 1256 308 1279 l 469 1106 q 479 1083 479 1096 q 470 1064 479 1072 q 449 1056 461 1056 q 431 1061 440 1056 l 268 1181 z "},"Ẻ":{"ha":808,"x_min":121,"x_max":751,"o":"m 179 0 q 137 15 153 0 q 121 56 121 31 l 121 924 q 137 964 121 949 q 179 979 153 979 l 699 979 q 738 967 724 979 q 751 932 751 954 q 738 897 751 910 q 699 885 724 885 l 233 885 l 233 544 l 671 544 q 710 532 696 544 q 724 497 724 519 q 710 463 724 475 q 671 450 696 450 l 233 450 l 233 94 l 699 94 q 738 83 724 94 q 751 47 751 71 q 738 13 751 25 q 699 0 724 0 l 179 0 m 489 1081 q 478 1062 488 1068 q 454 1056 468 1056 q 426 1065 438 1056 q 415 1092 415 1074 q 431 1129 415 1115 q 472 1156 446 1143 q 486 1163 475 1157 q 502 1174 497 1168 q 507 1186 507 1179 q 492 1206 507 1199 q 450 1213 476 1213 q 379 1201 414 1213 q 368 1200 375 1200 q 346 1209 354 1200 q 338 1231 338 1218 q 343 1249 338 1240 q 360 1263 349 1258 q 456 1279 399 1279 q 558 1255 521 1279 q 596 1192 596 1231 q 580 1149 596 1164 q 535 1119 564 1133 q 503 1102 514 1111 q 489 1081 492 1093 z "},"Ȇ":{"ha":808,"x_min":121,"x_max":751,"o":"m 179 0 q 137 15 153 0 q 121 56 121 31 l 121 924 q 137 964 121 949 q 179 979 153 979 l 699 979 q 738 967 724 979 q 751 932 751 954 q 738 897 751 910 q 699 885 724 885 l 233 885 l 233 544 l 671 544 q 710 532 696 544 q 724 497 724 519 q 710 463 724 475 q 671 450 696 450 l 233 450 l 233 94 l 699 94 q 738 83 724 94 q 751 47 751 71 q 738 13 751 25 q 699 0 724 0 l 179 0 m 310 1101 q 268 1079 292 1079 q 242 1089 253 1079 q 231 1114 231 1099 q 236 1139 231 1128 q 322 1228 265 1197 q 450 1258 378 1258 q 578 1228 522 1258 q 664 1139 633 1197 q 671 1114 671 1125 q 660 1089 671 1099 q 632 1079 649 1079 q 590 1101 607 1079 q 450 1176 540 1176 q 310 1101 360 1176 z "},"Ē":{"ha":808,"x_min":121,"x_max":751,"o":"m 179 0 q 137 15 153 0 q 121 56 121 31 l 121 924 q 137 964 121 949 q 179 979 153 979 l 699 979 q 738 967 724 979 q 751 932 751 954 q 738 897 751 910 q 699 885 724 885 l 233 885 l 233 544 l 671 544 q 710 532 696 544 q 724 497 724 519 q 710 463 724 475 q 671 450 696 450 l 233 450 l 233 94 l 699 94 q 738 83 724 94 q 751 47 751 71 q 738 13 751 25 q 699 0 724 0 l 179 0 m 282 1126 q 245 1138 258 1126 q 232 1169 232 1149 q 245 1201 232 1190 q 282 1211 258 1211 l 618 1211 q 655 1201 642 1211 q 668 1169 668 1190 q 655 1138 668 1149 q 618 1126 642 1126 l 282 1126 z "},"Ḗ":{"ha":808,"x_min":121,"x_max":751,"o":"m 179 0 q 137 15 153 0 q 121 56 121 31 l 121 924 q 137 964 121 949 q 179 979 153 979 l 699 979 q 738 967 724 979 q 751 932 751 954 q 738 897 751 910 q 699 885 724 885 l 233 885 l 233 544 l 671 544 q 710 532 696 544 q 724 497 724 519 q 710 463 724 475 q 671 450 696 450 l 233 450 l 233 94 l 699 94 q 738 83 724 94 q 751 47 751 71 q 738 13 751 25 q 699 0 724 0 l 179 0 m 282 1126 q 245 1138 258 1126 q 232 1169 232 1149 q 245 1201 232 1190 q 282 1211 258 1211 l 618 1211 q 655 1201 642 1211 q 668 1169 668 1190 q 655 1138 668 1149 q 618 1126 642 1126 l 282 1126 m 469 1283 q 451 1278 460 1278 q 430 1286 439 1278 q 421 1306 421 1294 q 431 1328 421 1318 l 568 1478 q 617 1501 590 1501 q 651 1488 636 1501 q 665 1454 665 1474 q 632 1403 665 1425 l 469 1283 z "},"Ḕ":{"ha":808,"x_min":121,"x_max":751,"o":"m 179 0 q 137 15 153 0 q 121 56 121 31 l 121 924 q 137 964 121 949 q 179 979 153 979 l 699 979 q 738 967 724 979 q 751 932 751 954 q 738 897 751 910 q 699 885 724 885 l 233 885 l 233 544 l 671 544 q 710 532 696 544 q 724 497 724 519 q 710 463 724 475 q 671 450 696 450 l 233 450 l 233 94 l 699 94 q 738 83 724 94 q 751 47 751 71 q 738 13 751 25 q 699 0 724 0 l 179 0 m 282 1126 q 245 1138 258 1126 q 232 1169 232 1149 q 245 1201 232 1190 q 282 1211 258 1211 l 618 1211 q 655 1201 642 1211 q 668 1169 668 1190 q 655 1138 668 1149 q 618 1126 642 1126 l 282 1126 m 268 1403 q 235 1454 235 1425 q 249 1488 235 1474 q 283 1501 264 1501 q 332 1478 308 1501 l 469 1328 q 479 1306 479 1318 q 470 1286 479 1294 q 449 1278 461 1278 q 431 1283 440 1278 l 268 1403 z "},"Ę":{"ha":808,"x_min":121,"x_max":792,"o":"m 749 -178 q 765 -174 757 -174 q 785 -183 778 -174 q 792 -206 792 -193 q 772 -242 792 -231 q 668 -268 725 -268 q 551 -227 596 -268 q 506 -122 506 -186 q 561 0 506 -47 l 179 0 q 137 15 153 0 q 121 56 121 31 l 121 924 q 137 964 121 949 q 179 979 153 979 l 699 979 q 738 967 724 979 q 751 932 751 954 q 738 897 751 908 q 699 885 724 885 l 233 885 l 233 544 l 671 544 q 710 532 696 544 q 724 497 724 519 q 710 463 724 475 q 671 450 696 450 l 233 450 l 233 94 l 699 94 q 738 83 724 94 q 751 47 751 71 q 706 0 751 7 q 622 -34 650 -6 q 593 -107 593 -62 q 617 -172 593 -149 q 682 -194 642 -194 q 749 -178 707 -194 z "},"Ẽ":{"ha":808,"x_min":121,"x_max":751,"o":"m 179 0 q 137 15 153 0 q 121 56 121 31 l 121 924 q 137 964 121 949 q 179 979 153 979 l 699 979 q 738 967 724 979 q 751 932 751 954 q 738 897 751 910 q 699 885 724 885 l 233 885 l 233 544 l 671 544 q 710 532 696 544 q 724 497 724 519 q 710 463 724 475 q 671 450 696 450 l 233 450 l 233 94 l 699 94 q 738 83 724 94 q 751 47 751 71 q 738 13 751 25 q 699 0 724 0 l 179 0 m 549 1097 q 499 1106 525 1097 q 439 1129 474 1114 q 389 1149 408 1143 q 353 1156 369 1156 q 316 1146 329 1156 q 290 1119 303 1136 q 261 1099 275 1099 q 239 1108 247 1099 q 231 1132 231 1117 q 246 1181 231 1156 q 289 1224 261 1207 q 351 1242 317 1242 q 399 1234 375 1242 q 461 1211 422 1226 q 511 1191 492 1197 q 547 1185 531 1185 q 583 1194 569 1185 q 610 1219 596 1203 q 639 1240 625 1240 q 661 1231 653 1240 q 669 1207 669 1222 q 654 1158 669 1183 q 611 1115 639 1132 q 549 1097 583 1097 z "},"F":{"ha":774,"x_min":121,"x_max":738,"o":"m 178 -7 q 136 9 151 -7 q 121 51 121 25 l 121 924 q 137 964 121 949 q 179 979 153 979 l 685 979 q 724 967 710 979 q 738 931 738 954 q 724 896 738 908 q 685 883 710 883 l 233 883 l 233 546 l 657 546 q 696 533 682 546 q 710 497 710 521 q 696 463 710 475 q 657 450 682 450 l 233 450 l 233 51 q 219 9 233 25 q 178 -7 204 -7 z "},"G":{"ha":1006,"x_min":85,"x_max":896,"o":"m 849 510 q 883 497 869 510 q 896 463 896 485 l 896 117 q 885 67 896 83 q 847 40 875 50 q 713 3 792 17 q 554 -11 633 -11 q 303 49 408 -11 q 141 221 197 108 q 85 490 85 333 q 140 757 85 644 q 300 930 196 869 q 544 990 404 990 q 725 960 642 990 q 865 875 808 931 q 889 826 889 851 q 878 792 889 807 q 850 778 867 778 q 811 794 833 778 q 681 872 739 850 q 546 893 622 893 q 292 789 381 893 q 204 490 204 685 q 294 188 204 292 q 557 85 383 85 q 792 124 686 85 l 792 421 l 589 421 q 551 433 565 421 q 538 465 538 446 q 551 498 538 486 q 589 510 565 510 l 849 510 z "},"Ğ":{"ha":1006,"x_min":85,"x_max":896,"o":"m 849 510 q 883 497 869 510 q 896 463 896 485 l 896 117 q 885 67 896 83 q 847 40 875 50 q 713 3 792 17 q 554 -11 633 -11 q 303 49 408 -11 q 141 221 197 108 q 85 490 85 333 q 140 757 85 644 q 300 930 196 869 q 544 990 404 990 q 725 960 642 990 q 865 875 808 931 q 889 826 889 851 q 878 792 889 807 q 850 778 867 778 q 811 794 833 778 q 681 872 739 850 q 546 893 622 893 q 292 789 381 893 q 204 490 204 685 q 294 188 204 292 q 557 85 383 85 q 792 124 686 85 l 792 421 l 589 421 q 551 433 565 421 q 538 465 538 446 q 551 498 538 486 q 589 510 565 510 l 849 510 m 544 1079 q 417 1109 472 1079 q 331 1197 361 1139 q 324 1222 324 1211 q 335 1249 324 1239 q 361 1258 346 1258 q 404 1235 386 1258 q 464 1178 429 1196 q 544 1161 499 1161 q 625 1178 590 1161 q 685 1235 660 1196 q 726 1258 703 1258 q 753 1249 743 1258 q 764 1222 764 1239 q 758 1197 764 1208 q 673 1110 729 1140 q 544 1079 617 1079 z "},"Ǧ":{"ha":1006,"x_min":85,"x_max":896,"o":"m 849 510 q 883 497 869 510 q 896 463 896 485 l 896 117 q 885 67 896 83 q 847 40 875 50 q 713 3 792 17 q 554 -11 633 -11 q 303 49 408 -11 q 141 221 197 108 q 85 490 85 333 q 140 757 85 644 q 300 930 196 869 q 544 990 404 990 q 725 960 642 990 q 865 875 808 931 q 889 826 889 851 q 878 792 889 807 q 850 778 867 778 q 811 794 833 778 q 681 872 739 850 q 546 893 622 893 q 292 789 381 893 q 204 490 204 685 q 294 188 204 292 q 557 85 383 85 q 792 124 686 85 l 792 421 l 589 421 q 551 433 565 421 q 538 465 538 446 q 551 498 538 486 q 589 510 565 510 l 849 510 m 544 1056 q 493 1078 517 1056 l 369 1206 q 354 1239 354 1221 q 366 1267 354 1256 q 394 1279 378 1279 q 428 1264 413 1279 l 544 1135 l 661 1264 q 694 1279 675 1279 q 722 1267 710 1279 q 735 1239 735 1254 q 719 1206 735 1221 l 596 1078 q 544 1056 572 1056 z "},"Ĝ":{"ha":1006,"x_min":85,"x_max":896,"o":"m 849 510 q 883 497 869 510 q 896 463 896 485 l 896 117 q 885 67 896 83 q 847 40 875 50 q 713 3 792 17 q 554 -11 633 -11 q 303 49 408 -11 q 141 221 197 108 q 85 490 85 333 q 140 757 85 644 q 300 930 196 869 q 544 990 404 990 q 725 960 642 990 q 865 875 808 931 q 889 826 889 851 q 878 792 889 807 q 850 778 867 778 q 811 794 833 778 q 681 872 739 850 q 546 893 622 893 q 292 789 381 893 q 204 490 204 685 q 294 188 204 292 q 557 85 383 85 q 792 124 686 85 l 792 421 l 589 421 q 551 433 565 421 q 538 465 538 446 q 551 498 538 486 q 589 510 565 510 l 849 510 m 428 1071 q 396 1056 414 1056 q 367 1068 379 1056 q 354 1097 354 1081 q 369 1129 354 1115 l 493 1257 q 544 1279 515 1279 q 596 1257 572 1279 l 719 1129 q 735 1096 735 1114 q 722 1068 735 1081 q 694 1056 710 1056 q 661 1071 676 1056 l 544 1201 l 428 1071 z "},"Ģ":{"ha":1006,"x_min":85,"x_max":896,"o":"m 849 510 q 883 497 869 510 q 896 463 896 485 l 896 117 q 885 67 896 83 q 847 40 875 50 q 713 3 792 17 q 554 -11 633 -11 q 303 49 408 -11 q 141 221 197 108 q 85 490 85 333 q 140 757 85 644 q 300 930 196 869 q 544 990 404 990 q 725 960 642 990 q 865 875 808 931 q 889 826 889 851 q 878 792 889 807 q 850 778 867 778 q 811 794 833 778 q 681 872 739 850 q 546 893 622 893 q 292 789 381 893 q 204 490 204 685 q 294 188 204 292 q 557 85 383 85 q 792 124 686 85 l 792 421 l 589 421 q 551 433 565 421 q 538 465 538 446 q 551 498 538 486 q 589 510 565 510 l 849 510 m 553 -93 q 612 -116 590 -93 q 633 -187 633 -139 q 575 -340 633 -274 q 539 -357 560 -357 q 517 -349 526 -357 q 508 -331 508 -342 q 518 -306 508 -317 q 557 -222 550 -267 l 556 -222 q 506 -206 526 -222 q 486 -158 486 -189 q 505 -111 486 -129 q 553 -93 524 -93 z "},"Ġ":{"ha":1006,"x_min":85,"x_max":896,"o":"m 849 510 q 883 497 869 510 q 896 463 896 485 l 896 117 q 885 67 896 83 q 847 40 875 50 q 713 3 792 17 q 554 -11 633 -11 q 303 49 408 -11 q 141 221 197 108 q 85 490 85 333 q 140 757 85 644 q 300 930 196 869 q 544 990 404 990 q 725 960 642 990 q 865 875 808 931 q 889 826 889 851 q 878 792 889 807 q 850 778 867 778 q 811 794 833 778 q 681 872 739 850 q 546 893 622 893 q 292 789 381 893 q 204 490 204 685 q 294 188 204 292 q 557 85 383 85 q 792 124 686 85 l 792 421 l 589 421 q 551 433 565 421 q 538 465 538 446 q 551 498 538 486 q 589 510 565 510 l 849 510 m 544 1099 q 490 1118 511 1099 q 469 1169 469 1138 q 490 1220 469 1201 q 544 1239 511 1239 q 599 1220 578 1239 q 619 1169 619 1201 q 599 1118 619 1138 q 544 1099 578 1099 z "},"Ḡ":{"ha":1006,"x_min":85,"x_max":896,"o":"m 849 510 q 883 497 869 510 q 896 463 896 485 l 896 117 q 885 67 896 83 q 847 40 875 50 q 713 3 792 17 q 554 -11 633 -11 q 303 49 408 -11 q 141 221 197 108 q 85 490 85 333 q 140 757 85 644 q 300 930 196 869 q 544 990 404 990 q 725 960 642 990 q 865 875 808 931 q 889 826 889 851 q 878 792 889 807 q 850 778 867 778 q 811 794 833 778 q 681 872 739 850 q 546 893 622 893 q 292 789 381 893 q 204 490 204 685 q 294 188 204 292 q 557 85 383 85 q 792 124 686 85 l 792 421 l 589 421 q 551 433 565 421 q 538 465 538 446 q 551 498 538 486 q 589 510 565 510 l 849 510 m 376 1126 q 340 1138 353 1126 q 326 1169 326 1149 q 340 1201 326 1190 q 376 1211 353 1211 l 713 1211 q 749 1201 736 1211 q 763 1169 763 1190 q 749 1138 763 1149 q 713 1126 736 1126 l 376 1126 z "},"H":{"ha":1053,"x_min":121,"x_max":932,"o":"m 876 986 q 917 970 903 986 q 932 928 932 954 l 932 51 q 917 9 932 25 q 876 -7 903 -7 q 835 9 850 -7 q 819 51 819 25 l 819 449 l 233 449 l 233 51 q 218 9 233 25 q 176 -7 203 -7 q 135 9 150 -7 q 121 51 121 25 l 121 928 q 135 970 121 954 q 176 986 150 986 q 218 970 203 986 q 233 928 233 954 l 233 546 l 819 546 l 819 928 q 835 970 819 954 q 876 986 850 986 z "},"Ħ":{"ha":1090,"x_min":0,"x_max":1090,"o":"m 1040 813 q 1077 801 1064 813 q 1090 767 1090 789 q 1077 734 1090 746 q 1040 722 1064 722 l 951 722 l 951 51 q 935 8 951 24 q 894 -7 919 -7 q 853 8 869 -7 q 838 51 838 24 l 838 449 l 253 449 l 253 51 q 237 8 253 24 q 196 -7 221 -7 q 155 8 171 -7 q 139 51 139 24 l 139 722 l 51 722 q 14 734 28 722 q 0 767 0 746 q 14 801 0 789 q 51 813 28 813 l 139 813 l 139 928 q 155 970 139 954 q 196 986 171 986 q 237 970 221 986 q 253 928 253 954 l 253 813 l 838 813 l 838 928 q 853 970 838 954 q 894 986 869 986 q 935 970 919 986 q 951 928 951 954 l 951 813 l 1040 813 m 838 546 l 838 722 l 253 722 l 253 546 l 838 546 z "},"Ḫ":{"ha":1053,"x_min":121,"x_max":932,"o":"m 876 986 q 917 970 903 986 q 932 928 932 954 l 932 51 q 917 9 932 25 q 876 -7 903 -7 q 835 9 850 -7 q 819 51 819 25 l 819 449 l 233 449 l 233 51 q 218 9 233 25 q 176 -7 203 -7 q 135 9 150 -7 q 121 51 121 25 l 121 928 q 135 970 121 954 q 176 986 150 986 q 218 970 203 986 q 233 928 233 954 l 233 546 l 819 546 l 819 928 q 835 970 819 954 q 876 986 850 986 m 526 -293 q 397 -257 454 -293 q 311 -154 339 -221 q 307 -132 307 -142 q 318 -104 307 -115 q 346 -93 329 -93 q 389 -121 374 -93 q 526 -207 433 -207 q 664 -121 619 -207 q 706 -93 679 -93 q 734 -104 722 -93 q 746 -133 746 -115 q 742 -154 746 -144 q 657 -257 715 -221 q 526 -293 599 -293 z "},"Ĥ":{"ha":1053,"x_min":121,"x_max":932,"o":"m 876 986 q 917 970 903 986 q 932 928 932 954 l 932 51 q 917 9 932 25 q 876 -7 903 -7 q 835 9 850 -7 q 819 51 819 25 l 819 449 l 233 449 l 233 51 q 218 9 233 25 q 176 -7 203 -7 q 135 9 150 -7 q 121 51 121 25 l 121 928 q 135 970 121 954 q 176 986 150 986 q 218 970 203 986 q 233 928 233 954 l 233 546 l 819 546 l 819 928 q 835 970 819 954 q 876 986 850 986 m 410 1071 q 378 1056 396 1056 q 349 1068 361 1056 q 336 1097 336 1081 q 351 1129 336 1115 l 475 1257 q 526 1279 497 1279 q 578 1257 554 1279 l 701 1129 q 717 1096 717 1114 q 704 1068 717 1081 q 676 1056 692 1056 q 643 1071 658 1056 l 526 1201 l 410 1071 z "},"Ḥ":{"ha":1053,"x_min":121,"x_max":932,"o":"m 876 986 q 917 970 903 986 q 932 928 932 954 l 932 51 q 917 9 932 25 q 876 -7 903 -7 q 835 9 850 -7 q 819 51 819 25 l 819 449 l 233 449 l 233 51 q 218 9 233 25 q 176 -7 203 -7 q 135 9 150 -7 q 121 51 121 25 l 121 928 q 135 970 121 954 q 176 986 150 986 q 218 970 203 986 q 233 928 233 954 l 233 546 l 819 546 l 819 928 q 835 970 819 954 q 876 986 850 986 m 526 -260 q 475 -241 494 -260 q 456 -192 456 -222 q 475 -142 456 -161 q 526 -124 494 -124 q 577 -142 557 -124 q 597 -192 597 -161 q 578 -241 597 -222 q 526 -260 558 -260 z "},"I":{"ha":356,"x_min":121,"x_max":235,"o":"m 178 -7 q 136 9 151 -7 q 121 51 121 25 l 121 928 q 136 970 121 954 q 178 986 151 986 q 219 970 204 986 q 235 928 235 954 l 235 51 q 219 9 235 25 q 178 -7 204 -7 z "},"Í":{"ha":356,"x_min":121,"x_max":393,"o":"m 178 -7 q 136 9 151 -7 q 121 51 121 25 l 121 928 q 136 970 121 954 q 178 986 151 986 q 219 970 204 986 q 235 928 235 954 l 235 51 q 219 9 235 25 q 178 -7 204 -7 m 197 1061 q 179 1056 188 1056 q 158 1064 167 1056 q 149 1083 149 1072 q 158 1106 149 1096 l 296 1256 q 344 1279 318 1279 q 378 1265 364 1279 q 393 1232 393 1251 q 360 1181 393 1203 l 197 1061 z "},"Ĭ":{"ha":356,"x_min":-43,"x_max":397,"o":"m 178 -7 q 136 9 151 -7 q 121 51 121 25 l 121 928 q 136 970 121 954 q 178 986 151 986 q 219 970 204 986 q 235 928 235 954 l 235 51 q 219 9 235 25 q 178 -7 204 -7 m 178 1079 q 50 1109 106 1079 q -36 1197 -6 1139 q -43 1222 -43 1211 q -32 1249 -43 1239 q -6 1258 -21 1258 q 38 1235 19 1258 q 97 1178 63 1196 q 178 1161 132 1161 q 258 1178 224 1161 q 318 1235 293 1196 q 360 1258 336 1258 q 387 1249 376 1258 q 397 1222 397 1239 q 392 1197 397 1208 q 306 1110 363 1140 q 178 1079 250 1079 z "},"Î":{"ha":356,"x_min":-12,"x_max":368,"o":"m 178 -7 q 136 9 151 -7 q 121 51 121 25 l 121 928 q 136 970 121 954 q 178 986 151 986 q 219 970 204 986 q 235 928 235 954 l 235 51 q 219 9 235 25 q 178 -7 204 -7 m 61 1071 q 29 1056 47 1056 q 0 1068 13 1056 q -12 1097 -12 1081 q 3 1129 -12 1115 l 126 1257 q 178 1279 149 1279 q 229 1257 206 1279 l 353 1129 q 368 1096 368 1114 q 356 1068 368 1081 q 328 1056 343 1056 q 294 1071 310 1056 l 178 1201 l 61 1071 z "},"Ȉ":{"ha":356,"x_min":-47,"x_max":288,"o":"m 178 -7 q 136 9 151 -7 q 121 51 121 25 l 121 928 q 136 970 121 954 q 178 986 151 986 q 219 970 204 986 q 235 928 235 954 l 235 51 q 219 9 235 25 q 178 -7 204 -7 m -32 1197 q -47 1236 -47 1217 q -34 1267 -47 1254 q -3 1281 -21 1281 q 43 1246 28 1281 l 117 1096 q 121 1081 121 1088 q 113 1063 121 1069 q 96 1056 106 1056 q 71 1068 81 1056 l -32 1197 m 135 1197 q 119 1236 119 1217 q 133 1267 119 1254 q 164 1281 146 1281 q 210 1246 194 1281 l 283 1096 q 288 1081 288 1088 q 281 1063 288 1069 q 263 1056 274 1056 q 238 1068 250 1056 l 135 1197 z "},"Ï":{"ha":356,"x_min":-10,"x_max":365,"o":"m 178 -7 q 136 9 151 -7 q 121 51 121 25 l 121 928 q 136 970 121 954 q 178 986 151 986 q 219 970 204 986 q 235 928 235 954 l 235 51 q 219 9 235 25 q 178 -7 204 -7 m 58 1103 q 10 1122 29 1103 q -10 1169 -10 1140 q 10 1217 -10 1199 q 58 1236 29 1236 q 108 1217 88 1236 q 128 1169 128 1199 q 108 1121 128 1139 q 58 1103 89 1103 m 297 1103 q 248 1122 268 1103 q 228 1169 228 1140 q 248 1217 228 1199 q 297 1236 268 1236 q 346 1217 326 1236 q 365 1169 365 1199 q 346 1122 365 1140 q 297 1103 326 1103 z "},"Ḯ":{"ha":356,"x_min":-10,"x_max":393,"o":"m 178 -7 q 136 9 151 -7 q 121 51 121 25 l 121 928 q 136 970 121 954 q 178 986 151 986 q 219 970 204 986 q 235 928 235 954 l 235 51 q 219 9 235 25 q 178 -7 204 -7 m 58 1103 q 10 1122 29 1103 q -10 1169 -10 1140 q 10 1217 -10 1199 q 58 1236 29 1236 q 108 1217 88 1236 q 128 1169 128 1199 q 108 1121 128 1139 q 58 1103 89 1103 m 297 1103 q 248 1122 268 1103 q 228 1169 228 1140 q 248 1217 228 1199 q 297 1236 268 1236 q 346 1217 326 1236 q 365 1169 365 1199 q 346 1122 365 1140 q 297 1103 326 1103 m 197 1283 q 179 1278 188 1278 q 158 1286 167 1278 q 149 1306 149 1294 q 158 1328 149 1318 l 296 1478 q 344 1501 318 1501 q 378 1488 364 1501 q 393 1454 393 1474 q 360 1403 393 1425 l 197 1283 z "},"İ":{"ha":356,"x_min":103,"x_max":253,"o":"m 178 -7 q 136 9 151 -7 q 121 51 121 25 l 121 928 q 136 970 121 954 q 178 986 151 986 q 219 970 204 986 q 235 928 235 954 l 235 51 q 219 9 235 25 q 178 -7 204 -7 m 178 1099 q 124 1118 144 1099 q 103 1169 103 1138 q 124 1220 103 1201 q 178 1239 144 1239 q 232 1220 211 1239 q 253 1169 253 1201 q 232 1118 253 1138 q 178 1099 211 1099 z "},"Ị":{"ha":356,"x_min":107,"x_max":249,"o":"m 178 -7 q 136 9 151 -7 q 121 51 121 25 l 121 928 q 136 970 121 954 q 178 986 151 986 q 219 970 204 986 q 235 928 235 954 l 235 51 q 219 9 235 25 q 178 -7 204 -7 m 178 -260 q 126 -241 146 -260 q 107 -192 107 -222 q 126 -142 107 -161 q 178 -124 146 -124 q 228 -142 208 -124 q 249 -192 249 -161 q 229 -241 249 -222 q 178 -260 210 -260 z "},"Ì":{"ha":356,"x_min":-37,"x_max":235,"o":"m 178 -7 q 136 9 151 -7 q 121 51 121 25 l 121 928 q 136 970 121 954 q 178 986 151 986 q 219 970 204 986 q 235 928 235 954 l 235 51 q 219 9 235 25 q 178 -7 204 -7 m -4 1181 q -37 1232 -37 1203 q -23 1265 -37 1251 q 11 1279 -8 1279 q 60 1256 36 1279 l 197 1106 q 207 1083 207 1096 q 198 1064 207 1072 q 176 1056 189 1056 q 158 1061 168 1056 l -4 1181 z "},"Ỉ":{"ha":356,"x_min":65,"x_max":324,"o":"m 178 -7 q 136 9 151 -7 q 121 51 121 25 l 121 928 q 136 970 121 954 q 178 986 151 986 q 219 970 204 986 q 235 928 235 954 l 235 51 q 219 9 235 25 q 178 -7 204 -7 m 217 1081 q 206 1062 215 1068 q 182 1056 196 1056 q 154 1065 165 1056 q 143 1092 143 1074 q 158 1129 143 1115 q 200 1156 174 1143 q 214 1163 203 1157 q 230 1174 225 1168 q 235 1186 235 1179 q 219 1206 235 1199 q 178 1213 204 1213 q 107 1201 142 1213 q 96 1200 103 1200 q 74 1209 82 1200 q 65 1231 65 1218 q 71 1249 65 1240 q 88 1263 76 1258 q 183 1279 126 1279 q 286 1255 249 1279 q 324 1192 324 1231 q 308 1149 324 1164 q 263 1119 292 1133 q 231 1102 242 1111 q 217 1081 219 1093 z "},"Ȋ":{"ha":356,"x_min":-42,"x_max":399,"o":"m 178 -7 q 136 9 151 -7 q 121 51 121 25 l 121 928 q 136 970 121 954 q 178 986 151 986 q 219 970 204 986 q 235 928 235 954 l 235 51 q 219 9 235 25 q 178 -7 204 -7 m 38 1101 q -4 1079 19 1079 q -31 1089 -19 1079 q -42 1114 -42 1099 q -36 1139 -42 1128 q 49 1228 -7 1197 q 178 1258 106 1258 q 306 1228 250 1258 q 392 1139 361 1197 q 399 1114 399 1125 q 388 1089 399 1099 q 360 1079 376 1079 q 318 1101 335 1079 q 178 1176 268 1176 q 38 1101 88 1176 z "},"Ī":{"ha":356,"x_min":-40,"x_max":396,"o":"m 178 -7 q 136 9 151 -7 q 121 51 121 25 l 121 928 q 136 970 121 954 q 178 986 151 986 q 219 970 204 986 q 235 928 235 954 l 235 51 q 219 9 235 25 q 178 -7 204 -7 m 10 1126 q -27 1138 -14 1126 q -40 1169 -40 1149 q -27 1201 -40 1190 q 10 1211 -14 1211 l 346 1211 q 383 1201 369 1211 q 396 1169 396 1190 q 383 1138 396 1149 q 346 1126 369 1126 l 10 1126 z "},"Į":{"ha":356,"x_min":15,"x_max":301,"o":"m 258 -178 q 275 -174 267 -174 q 294 -183 288 -174 q 301 -206 301 -193 q 296 -226 301 -215 q 281 -242 290 -236 q 178 -268 233 -268 q 60 -227 106 -268 q 15 -121 15 -186 q 43 -31 15 -71 q 124 33 71 10 q 121 51 121 44 l 121 928 q 136 970 121 954 q 178 986 151 986 q 219 970 204 986 q 235 928 235 954 l 235 51 q 226 18 235 32 q 201 0 217 4 q 128 -39 153 -11 q 103 -107 103 -67 q 127 -172 103 -149 q 192 -194 151 -194 q 258 -178 219 -194 z "},"Ĩ":{"ha":356,"x_min":-42,"x_max":397,"o":"m 178 -7 q 136 9 151 -7 q 121 51 121 25 l 121 928 q 136 970 121 954 q 178 986 151 986 q 219 970 204 986 q 235 928 235 954 l 235 51 q 219 9 235 25 q 178 -7 204 -7 m 276 1097 q 227 1106 253 1097 q 167 1129 201 1114 q 117 1149 136 1143 q 81 1156 97 1156 q 44 1146 57 1156 q 18 1119 31 1136 q -11 1099 3 1099 q -33 1108 -25 1099 q -42 1132 -42 1117 q -26 1181 -42 1156 q 17 1224 -11 1207 q 79 1242 44 1242 q 126 1234 103 1242 q 189 1211 150 1226 q 239 1191 219 1197 q 275 1185 258 1185 q 310 1194 297 1185 q 338 1219 324 1203 q 367 1240 353 1240 q 389 1231 381 1240 q 397 1207 397 1222 q 382 1158 397 1183 q 339 1115 367 1132 q 276 1097 311 1097 z "},"J":{"ha":453,"x_min":-15,"x_max":332,"o":"m 56 -7 q 3 3 21 -10 q -15 40 -15 15 q 36 88 -15 86 l 78 90 q 183 134 149 94 q 218 261 218 174 l 218 928 q 235 970 218 954 q 275 986 251 986 q 317 970 301 986 q 332 928 332 954 l 332 260 q 274 67 332 132 q 97 -4 215 3 l 56 -7 z "},"Ĵ":{"ha":453,"x_min":-15,"x_max":465,"o":"m 56 -7 q 3 3 21 -10 q -15 40 -15 15 q 36 88 -15 86 l 78 90 q 183 134 149 94 q 218 261 218 174 l 218 928 q 235 970 218 954 q 275 986 251 986 q 317 970 301 986 q 332 928 332 954 l 332 260 q 274 67 332 132 q 97 -4 215 3 l 56 -7 m 158 1071 q 126 1056 144 1056 q 97 1068 110 1056 q 85 1097 85 1081 q 100 1129 85 1115 l 224 1257 q 275 1279 246 1279 q 326 1257 303 1279 l 450 1129 q 465 1096 465 1114 q 453 1068 465 1081 q 425 1056 440 1056 q 392 1071 407 1056 l 275 1201 l 158 1071 z "},"K":{"ha":872,"x_min":121,"x_max":844,"o":"m 825 86 q 844 46 844 68 q 828 10 844 26 q 792 -6 813 -6 q 754 11 774 -6 l 235 465 l 235 51 q 219 9 235 25 q 178 -7 204 -7 q 136 9 151 -7 q 121 51 121 25 l 121 928 q 136 970 121 954 q 178 986 151 986 q 219 970 204 986 q 235 928 235 954 l 235 529 l 731 969 q 767 985 746 985 q 803 969 788 985 q 818 933 818 953 q 800 894 818 913 l 351 500 l 825 86 z "},"Ķ":{"ha":872,"x_min":121,"x_max":844,"o":"m 825 86 q 844 46 844 68 q 828 10 844 26 q 792 -6 813 -6 q 754 11 774 -6 l 235 465 l 235 51 q 219 9 235 25 q 178 -7 204 -7 q 136 9 151 -7 q 121 51 121 25 l 121 928 q 136 970 121 954 q 178 986 151 986 q 219 970 204 986 q 235 928 235 954 l 235 529 l 731 969 q 767 985 746 985 q 803 969 788 985 q 818 933 818 953 q 800 894 818 913 l 351 500 l 825 86 m 438 -93 q 497 -116 475 -93 q 518 -187 518 -139 q 460 -340 518 -274 q 424 -357 444 -357 q 402 -349 411 -357 q 393 -331 393 -342 q 403 -306 393 -317 q 442 -222 435 -267 l 440 -222 q 391 -206 411 -222 q 371 -158 371 -189 q 390 -111 371 -129 q 438 -93 408 -93 z "},"L":{"ha":750,"x_min":121,"x_max":736,"o":"m 176 0 q 137 15 153 0 q 121 53 121 29 l 121 928 q 136 970 121 954 q 178 986 151 986 q 219 970 204 986 q 235 928 235 954 l 235 97 l 683 97 q 722 85 708 97 q 736 49 736 72 q 722 13 736 25 q 683 0 708 0 l 176 0 z "},"Ǉ":{"ha":1201,"x_min":121,"x_max":1082,"o":"m 176 0 q 137 15 153 0 q 121 53 121 29 l 121 928 q 136 970 121 954 q 178 986 151 986 q 219 970 204 986 q 235 928 235 954 l 235 97 l 642 97 q 681 85 667 97 q 694 49 694 72 q 681 13 694 25 q 642 0 667 0 l 176 0 m 804 -7 q 751 3 769 -10 q 733 40 733 15 q 785 88 733 86 l 826 90 q 933 135 899 96 q 967 261 967 174 l 967 928 q 983 970 967 954 q 1024 986 1000 986 q 1066 970 1050 986 q 1082 928 1082 954 l 1082 260 q 1024 67 1082 132 q 846 -4 965 3 l 804 -7 z "},"Ĺ":{"ha":750,"x_min":121,"x_max":736,"o":"m 176 0 q 137 15 153 0 q 121 53 121 29 l 121 928 q 136 970 121 954 q 178 986 151 986 q 219 970 204 986 q 235 928 235 954 l 235 97 l 683 97 q 722 85 708 97 q 736 49 736 72 q 722 13 736 25 q 683 0 708 0 l 176 0 m 197 1061 q 179 1056 188 1056 q 158 1064 167 1056 q 149 1083 149 1072 q 158 1106 149 1096 l 296 1256 q 344 1279 318 1279 q 378 1265 364 1279 q 393 1232 393 1251 q 360 1181 393 1203 l 197 1061 z "},"Ľ":{"ha":750,"x_min":121,"x_max":736,"o":"m 176 0 q 137 15 153 0 q 121 53 121 29 l 121 928 q 136 970 121 954 q 178 986 151 986 q 219 970 204 986 q 235 928 235 954 l 235 97 l 683 97 q 722 85 708 97 q 736 49 736 72 q 722 13 736 25 q 683 0 708 0 l 176 0 m 414 729 q 403 710 413 717 q 383 704 394 704 q 361 713 371 704 q 351 735 351 721 l 351 935 q 366 974 351 960 q 401 988 381 988 q 435 974 421 988 q 450 939 450 961 q 449 925 450 931 l 414 729 z "},"Ļ":{"ha":750,"x_min":121,"x_max":736,"o":"m 176 0 q 137 15 153 0 q 121 53 121 29 l 121 928 q 136 970 121 954 q 178 986 151 986 q 219 970 204 986 q 235 928 235 954 l 235 97 l 683 97 q 722 85 708 97 q 736 49 736 72 q 722 13 736 25 q 683 0 708 0 l 176 0 m 428 -93 q 487 -116 465 -93 q 508 -187 508 -139 q 450 -340 508 -274 q 414 -357 435 -357 q 392 -349 401 -357 q 383 -331 383 -342 q 393 -306 383 -317 q 432 -222 425 -267 l 431 -222 q 381 -206 401 -222 q 361 -158 361 -189 q 380 -111 361 -129 q 428 -93 399 -93 z "},"Ŀ":{"ha":750,"x_min":121,"x_max":736,"o":"m 176 0 q 137 15 153 0 q 121 53 121 29 l 121 928 q 136 970 121 954 q 178 986 151 986 q 219 970 204 986 q 235 928 235 954 l 235 97 l 683 97 q 722 85 708 97 q 736 49 736 72 q 722 13 736 25 q 683 0 708 0 l 176 0 m 486 419 q 432 439 453 419 q 411 490 411 458 q 432 542 411 522 q 486 561 453 561 q 540 542 519 561 q 561 490 561 522 q 540 439 561 458 q 486 419 519 419 z "},"Ḷ":{"ha":750,"x_min":121,"x_max":736,"o":"m 176 0 q 137 15 153 0 q 121 53 121 29 l 121 928 q 136 970 121 954 q 178 986 151 986 q 219 970 204 986 q 235 928 235 954 l 235 97 l 683 97 q 722 85 708 97 q 736 49 736 72 q 722 13 736 25 q 683 0 708 0 l 176 0 m 429 -260 q 378 -241 397 -260 q 358 -192 358 -222 q 378 -142 358 -161 q 429 -124 397 -124 q 480 -142 460 -124 q 500 -192 500 -161 q 481 -241 500 -222 q 429 -260 461 -260 z "},"ǈ":{"ha":1072,"x_min":121,"x_max":986,"o":"m 176 0 q 137 15 153 0 q 121 53 121 29 l 121 928 q 136 970 121 954 q 178 986 151 986 q 219 970 204 986 q 235 928 235 954 l 235 97 l 683 97 q 722 85 708 97 q 736 49 736 72 q 722 13 736 25 q 683 0 708 0 l 176 0 z "},"Ḻ":{"ha":750,"x_min":121,"x_max":736,"o":"m 176 0 q 137 15 153 0 q 121 53 121 29 l 121 928 q 136 970 121 954 q 178 986 151 986 q 219 970 204 986 q 235 928 235 954 l 235 97 l 683 97 q 722 85 708 97 q 736 49 736 72 q 722 13 736 25 q 683 0 708 0 l 176 0 m 261 -233 q 224 -222 238 -233 q 211 -192 211 -211 q 224 -162 211 -172 q 261 -151 238 -151 l 597 -151 q 634 -162 621 -151 q 647 -192 647 -172 q 634 -222 647 -211 q 597 -233 621 -233 l 261 -233 z "},"Ł":{"ha":768,"x_min":0,"x_max":754,"o":"m 701 97 q 740 85 726 97 q 754 49 754 72 q 740 13 754 25 q 701 0 726 0 l 194 0 q 155 15 171 0 q 139 53 139 29 l 139 410 l 72 371 q 44 363 58 363 q 13 376 25 363 q 0 408 0 390 q 26 451 0 435 l 139 515 l 139 928 q 154 970 139 954 q 196 986 169 986 q 238 970 224 986 q 253 928 253 954 l 253 581 l 453 696 q 479 704 468 704 q 510 690 497 704 q 524 658 524 676 q 499 618 524 633 l 253 475 l 253 97 l 701 97 z "},"M":{"ha":1168,"x_min":121,"x_max":1046,"o":"m 990 986 q 1031 970 1017 986 q 1046 928 1046 954 l 1046 49 q 1032 8 1046 24 q 993 -7 1018 -7 q 956 8 968 -7 q 943 49 943 24 l 943 758 l 642 181 q 585 140 622 140 q 528 181 549 140 l 225 751 l 225 49 q 212 8 225 24 q 174 -7 199 -7 q 135 8 149 -7 q 121 49 121 24 l 121 928 q 136 970 121 954 q 178 986 151 986 q 233 946 213 986 l 586 269 l 935 946 q 959 977 946 968 q 990 986 972 986 z "},"Ṃ":{"ha":1168,"x_min":121,"x_max":1046,"o":"m 990 986 q 1031 970 1017 986 q 1046 928 1046 954 l 1046 49 q 1032 8 1046 24 q 993 -7 1018 -7 q 956 8 968 -7 q 943 49 943 24 l 943 758 l 642 181 q 585 140 622 140 q 528 181 549 140 l 225 751 l 225 49 q 212 8 225 24 q 174 -7 199 -7 q 135 8 149 -7 q 121 49 121 24 l 121 928 q 136 970 121 954 q 178 986 151 986 q 233 946 213 986 l 586 269 l 935 946 q 959 977 946 968 q 990 986 972 986 m 583 -260 q 532 -241 551 -260 q 513 -192 513 -222 q 532 -142 513 -161 q 583 -124 551 -124 q 634 -142 614 -124 q 654 -192 654 -161 q 635 -241 654 -222 q 583 -260 615 -260 z "},"N":{"ha":1026,"x_min":121,"x_max":906,"o":"m 853 986 q 892 970 878 986 q 906 928 906 954 l 906 51 q 891 9 906 25 q 850 -7 876 -7 q 804 17 824 -7 l 228 788 l 228 51 q 213 9 228 25 q 174 -7 199 -7 q 135 9 149 -7 q 121 51 121 25 l 121 928 q 135 970 121 954 q 176 986 150 986 q 224 963 204 986 l 799 192 l 799 928 q 813 970 799 954 q 853 986 828 986 z "},"Ǌ":{"ha":1479,"x_min":121,"x_max":1358,"o":"m 853 986 q 892 970 878 986 q 906 928 906 954 l 906 51 q 891 9 906 25 q 850 -7 876 -7 q 804 17 824 -7 l 228 788 l 228 51 q 213 9 228 25 q 174 -7 199 -7 q 135 9 149 -7 q 121 51 121 25 l 121 928 q 135 970 121 954 q 176 986 150 986 q 224 963 204 986 l 799 192 l 799 928 q 813 970 799 954 q 853 986 828 986 m 1082 -7 q 1029 3 1047 -10 q 1011 40 1011 15 q 1063 88 1011 86 l 1104 90 q 1210 134 1175 94 q 1244 261 1244 174 l 1244 928 q 1261 970 1244 954 q 1301 986 1278 986 q 1343 970 1328 986 q 1358 928 1358 954 l 1358 260 q 1300 67 1358 132 q 1124 -4 1242 3 l 1082 -7 z "},"Ń":{"ha":1026,"x_min":121,"x_max":906,"o":"m 853 986 q 892 970 878 986 q 906 928 906 954 l 906 51 q 891 9 906 25 q 850 -7 876 -7 q 804 17 824 -7 l 228 788 l 228 51 q 213 9 228 25 q 174 -7 199 -7 q 135 9 149 -7 q 121 51 121 25 l 121 928 q 135 970 121 954 q 176 986 150 986 q 224 963 204 986 l 799 192 l 799 928 q 813 970 799 954 q 853 986 828 986 m 532 1061 q 514 1056 522 1056 q 492 1064 501 1056 q 483 1083 483 1072 q 493 1106 483 1096 l 631 1256 q 679 1279 653 1279 q 713 1265 699 1279 q 728 1232 728 1251 q 694 1181 728 1203 l 532 1061 z "},"Ň":{"ha":1026,"x_min":121,"x_max":906,"o":"m 853 986 q 892 970 878 986 q 906 928 906 954 l 906 51 q 891 9 906 25 q 850 -7 876 -7 q 804 17 824 -7 l 228 788 l 228 51 q 213 9 228 25 q 174 -7 199 -7 q 135 9 149 -7 q 121 51 121 25 l 121 928 q 135 970 121 954 q 176 986 150 986 q 224 963 204 986 l 799 192 l 799 928 q 813 970 799 954 q 853 986 828 986 m 513 1056 q 461 1078 485 1056 l 338 1206 q 322 1239 322 1221 q 334 1267 322 1256 q 363 1279 346 1279 q 396 1264 381 1279 l 513 1135 l 629 1264 q 663 1279 643 1279 q 690 1267 678 1279 q 703 1239 703 1254 q 688 1206 703 1221 l 564 1078 q 513 1056 540 1056 z "},"Ņ":{"ha":1026,"x_min":121,"x_max":906,"o":"m 853 986 q 892 970 878 986 q 906 928 906 954 l 906 51 q 891 9 906 25 q 850 -7 876 -7 q 804 17 824 -7 l 228 788 l 228 51 q 213 9 228 25 q 174 -7 199 -7 q 135 9 149 -7 q 121 51 121 25 l 121 928 q 135 970 121 954 q 176 986 150 986 q 224 963 204 986 l 799 192 l 799 928 q 813 970 799 954 q 853 986 828 986 m 513 -93 q 572 -116 550 -93 q 593 -187 593 -139 q 535 -340 593 -274 q 499 -357 519 -357 q 477 -349 486 -357 q 468 -331 468 -342 q 478 -306 468 -317 q 517 -222 510 -267 l 515 -222 q 466 -206 486 -222 q 446 -158 446 -189 q 465 -111 446 -129 q 513 -93 483 -93 z "},"Ṅ":{"ha":1026,"x_min":121,"x_max":906,"o":"m 853 986 q 892 970 878 986 q 906 928 906 954 l 906 51 q 891 9 906 25 q 850 -7 876 -7 q 804 17 824 -7 l 228 788 l 228 51 q 213 9 228 25 q 174 -7 199 -7 q 135 9 149 -7 q 121 51 121 25 l 121 928 q 135 970 121 954 q 176 986 150 986 q 224 963 204 986 l 799 192 l 799 928 q 813 970 799 954 q 853 986 828 986 m 513 1099 q 458 1118 479 1099 q 438 1169 438 1138 q 458 1220 438 1201 q 513 1239 479 1239 q 567 1220 546 1239 q 588 1169 588 1201 q 567 1118 588 1138 q 513 1099 546 1099 z "},"Ṇ":{"ha":1026,"x_min":121,"x_max":906,"o":"m 853 986 q 892 970 878 986 q 906 928 906 954 l 906 51 q 891 9 906 25 q 850 -7 876 -7 q 804 17 824 -7 l 228 788 l 228 51 q 213 9 228 25 q 174 -7 199 -7 q 135 9 149 -7 q 121 51 121 25 l 121 928 q 135 970 121 954 q 176 986 150 986 q 224 963 204 986 l 799 192 l 799 928 q 813 970 799 954 q 853 986 828 986 m 514 -260 q 463 -241 482 -260 q 443 -192 443 -222 q 463 -142 443 -161 q 514 -124 482 -124 q 565 -142 544 -124 q 585 -192 585 -161 q 565 -241 585 -222 q 514 -260 546 -260 z "},"Ŋ":{"ha":1026,"x_min":121,"x_max":906,"o":"m 853 986 q 892 970 878 986 q 906 928 906 954 l 906 11 q 848 -181 906 -117 q 671 -254 790 -246 l 629 -257 q 577 -246 596 -258 q 558 -211 558 -233 q 572 -178 558 -190 q 610 -164 585 -165 l 651 -161 q 762 -117 725 -157 q 799 10 799 -76 l 799 24 l 228 788 l 228 51 q 213 9 228 25 q 174 -7 199 -7 q 135 9 149 -7 q 121 51 121 25 l 121 928 q 135 970 121 954 q 176 986 150 986 q 224 963 207 986 l 799 192 l 799 928 q 813 970 799 954 q 853 986 828 986 z "},"ǋ":{"ha":1349,"x_min":121,"x_max":1263,"o":"m 853 986 q 892 970 878 986 q 906 928 906 954 l 906 51 q 891 9 906 25 q 850 -7 876 -7 q 804 17 824 -7 l 228 788 l 228 51 q 213 9 228 25 q 174 -7 199 -7 q 135 9 149 -7 q 121 51 121 25 l 121 928 q 135 970 121 954 q 176 986 150 986 q 224 963 204 986 l 799 192 l 799 928 q 813 970 799 954 q 853 986 828 986 z "},"Ṉ":{"ha":1026,"x_min":121,"x_max":906,"o":"m 853 986 q 892 970 878 986 q 906 928 906 954 l 906 51 q 891 9 906 25 q 850 -7 876 -7 q 804 17 824 -7 l 228 788 l 228 51 q 213 9 228 25 q 174 -7 199 -7 q 135 9 149 -7 q 121 51 121 25 l 121 928 q 135 970 121 954 q 176 986 150 986 q 224 963 204 986 l 799 192 l 799 928 q 813 970 799 954 q 853 986 828 986 m 346 -233 q 309 -222 322 -233 q 296 -192 296 -211 q 309 -162 296 -172 q 346 -151 322 -151 l 682 -151 q 719 -162 706 -151 q 732 -192 732 -172 q 719 -222 732 -211 q 682 -233 706 -233 l 346 -233 z "},"Ñ":{"ha":1026,"x_min":121,"x_max":906,"o":"m 853 986 q 892 970 878 986 q 906 928 906 954 l 906 51 q 891 9 906 25 q 850 -7 876 -7 q 804 17 824 -7 l 228 788 l 228 51 q 213 9 228 25 q 174 -7 199 -7 q 135 9 149 -7 q 121 51 121 25 l 121 928 q 135 970 121 954 q 176 986 150 986 q 224 963 204 986 l 799 192 l 799 928 q 813 970 799 954 q 853 986 828 986 m 611 1097 q 562 1106 588 1097 q 501 1129 536 1114 q 451 1149 471 1143 q 415 1156 432 1156 q 378 1146 392 1156 q 353 1119 365 1136 q 324 1099 338 1099 q 301 1108 310 1099 q 293 1132 293 1117 q 308 1181 293 1156 q 351 1224 324 1207 q 414 1242 379 1242 q 461 1234 438 1242 q 524 1211 485 1226 q 574 1191 554 1197 q 610 1185 593 1185 q 645 1194 632 1185 q 672 1219 658 1203 q 701 1240 688 1240 q 724 1231 715 1240 q 732 1207 732 1222 q 717 1158 732 1183 q 674 1115 701 1132 q 611 1097 646 1097 z "},"O":{"ha":1061,"x_min":85,"x_max":976,"o":"m 531 -11 q 294 50 394 -11 q 139 224 193 111 q 85 489 85 336 q 138 756 85 643 q 292 930 192 869 q 531 990 393 990 q 769 930 668 990 q 923 756 869 869 q 976 490 976 643 q 922 224 976 338 q 767 50 868 111 q 531 -11 667 -11 m 531 86 q 773 191 686 86 q 860 490 860 296 q 774 789 860 685 q 531 893 688 893 q 288 788 375 893 q 201 490 201 683 q 288 192 201 297 q 531 86 375 86 z "},"Ó":{"ha":1061,"x_min":85,"x_max":976,"o":"m 531 -11 q 294 50 394 -11 q 139 224 193 111 q 85 489 85 336 q 138 756 85 643 q 292 930 192 869 q 531 990 393 990 q 769 930 668 990 q 923 756 869 869 q 976 490 976 643 q 922 224 976 338 q 767 50 868 111 q 531 -11 667 -11 m 531 86 q 773 191 686 86 q 860 490 860 296 q 774 789 860 685 q 531 893 688 893 q 288 788 375 893 q 201 490 201 683 q 288 192 201 297 q 531 86 375 86 m 550 1061 q 532 1056 540 1056 q 510 1064 519 1056 q 501 1083 501 1072 q 511 1106 501 1096 l 649 1256 q 697 1279 671 1279 q 731 1265 717 1279 q 746 1232 746 1251 q 713 1181 746 1203 l 550 1061 z "},"Ŏ":{"ha":1061,"x_min":85,"x_max":976,"o":"m 531 -11 q 294 50 394 -11 q 139 224 193 111 q 85 489 85 336 q 138 756 85 643 q 292 930 192 869 q 531 990 393 990 q 769 930 668 990 q 923 756 869 869 q 976 490 976 643 q 922 224 976 338 q 767 50 868 111 q 531 -11 667 -11 m 531 86 q 773 191 686 86 q 860 490 860 296 q 774 789 860 685 q 531 893 688 893 q 288 788 375 893 q 201 490 201 683 q 288 192 201 297 q 531 86 375 86 m 531 1079 q 403 1109 458 1079 q 317 1197 347 1139 q 310 1222 310 1211 q 321 1249 310 1239 q 347 1258 332 1258 q 390 1235 372 1258 q 450 1178 415 1196 q 531 1161 485 1161 q 611 1178 576 1161 q 671 1235 646 1196 q 713 1258 689 1258 q 740 1249 729 1258 q 750 1222 750 1239 q 744 1197 750 1208 q 659 1110 715 1140 q 531 1079 603 1079 z "},"Ô":{"ha":1061,"x_min":85,"x_max":976,"o":"m 531 -11 q 294 50 394 -11 q 139 224 193 111 q 85 489 85 336 q 138 756 85 643 q 292 930 192 869 q 531 990 393 990 q 769 930 668 990 q 923 756 869 869 q 976 490 976 643 q 922 224 976 338 q 767 50 868 111 q 531 -11 667 -11 m 531 86 q 773 191 686 86 q 860 490 860 296 q 774 789 860 685 q 531 893 688 893 q 288 788 375 893 q 201 490 201 683 q 288 192 201 297 q 531 86 375 86 m 414 1071 q 382 1056 400 1056 q 353 1068 365 1056 q 340 1097 340 1081 q 356 1129 340 1115 l 479 1257 q 531 1279 501 1279 q 582 1257 558 1279 l 706 1129 q 721 1096 721 1114 q 708 1068 721 1081 q 681 1056 696 1056 q 647 1071 663 1056 l 531 1201 l 414 1071 z "},"Ố":{"ha":1061,"x_min":85,"x_max":976,"o":"m 531 -11 q 294 50 394 -11 q 139 224 193 111 q 85 489 85 336 q 138 756 85 643 q 292 930 192 869 q 531 990 393 990 q 769 930 668 990 q 923 756 869 869 q 976 490 976 643 q 922 224 976 338 q 767 50 868 111 q 531 -11 667 -11 m 531 86 q 773 191 686 86 q 860 490 860 296 q 774 789 860 685 q 531 893 688 893 q 288 788 375 893 q 201 490 201 683 q 288 192 201 297 q 531 86 375 86 m 706 1204 q 688 1199 699 1199 q 666 1208 675 1199 q 657 1229 657 1217 q 664 1249 657 1240 l 769 1383 q 815 1410 790 1410 q 851 1395 836 1410 q 865 1361 865 1381 q 836 1311 865 1332 l 706 1204 m 411 1069 q 381 1056 397 1056 q 353 1067 365 1056 q 340 1096 340 1079 q 358 1132 340 1115 l 479 1251 q 531 1274 503 1274 q 582 1251 558 1274 l 703 1132 q 721 1097 721 1115 q 708 1068 721 1081 q 681 1056 696 1056 q 651 1068 664 1056 l 531 1196 l 411 1069 z "},"Ộ":{"ha":1061,"x_min":85,"x_max":976,"o":"m 531 -11 q 294 50 394 -11 q 139 224 193 111 q 85 489 85 336 q 138 756 85 643 q 292 930 192 869 q 531 990 393 990 q 769 930 668 990 q 923 756 869 869 q 976 490 976 643 q 922 224 976 338 q 767 50 868 111 q 531 -11 667 -11 m 531 86 q 773 191 686 86 q 860 490 860 296 q 774 789 860 685 q 531 893 688 893 q 288 788 375 893 q 201 490 201 683 q 288 192 201 297 q 531 86 375 86 m 531 -260 q 479 -241 499 -260 q 460 -192 460 -222 q 479 -142 460 -161 q 531 -124 499 -124 q 581 -142 561 -124 q 601 -192 601 -161 q 582 -241 601 -222 q 531 -260 563 -260 m 414 1071 q 382 1056 400 1056 q 353 1068 365 1056 q 340 1097 340 1081 q 356 1129 340 1115 l 479 1257 q 531 1279 501 1279 q 582 1257 558 1279 l 706 1129 q 721 1096 721 1114 q 708 1068 721 1081 q 681 1056 696 1056 q 647 1071 663 1056 l 531 1201 l 414 1071 z "},"Ồ":{"ha":1061,"x_min":85,"x_max":976,"o":"m 531 -11 q 294 50 394 -11 q 139 224 193 111 q 85 489 85 336 q 138 756 85 643 q 292 930 192 869 q 531 990 393 990 q 769 930 668 990 q 923 756 869 869 q 976 490 976 643 q 922 224 976 338 q 767 50 868 111 q 531 -11 667 -11 m 531 86 q 773 191 686 86 q 860 490 860 296 q 774 789 860 685 q 531 893 688 893 q 288 788 375 893 q 201 490 201 683 q 288 192 201 297 q 531 86 375 86 m 581 1313 q 553 1360 553 1335 q 568 1395 553 1381 q 604 1410 583 1410 q 651 1383 632 1410 l 753 1246 q 760 1226 760 1238 q 751 1207 760 1215 q 729 1199 742 1199 q 708 1206 717 1199 l 581 1313 m 411 1069 q 381 1056 397 1056 q 353 1067 365 1056 q 340 1096 340 1079 q 358 1132 340 1115 l 479 1251 q 531 1274 503 1274 q 582 1251 558 1274 l 703 1132 q 721 1097 721 1115 q 708 1068 721 1081 q 681 1056 696 1056 q 651 1068 664 1056 l 531 1196 l 411 1069 z "},"Ổ":{"ha":1061,"x_min":85,"x_max":976,"o":"m 531 -11 q 294 50 394 -11 q 139 224 193 111 q 85 489 85 336 q 138 756 85 643 q 292 930 192 869 q 531 990 393 990 q 769 930 668 990 q 923 756 869 869 q 976 490 976 643 q 922 224 976 338 q 767 50 868 111 q 531 -11 667 -11 m 531 86 q 773 191 686 86 q 860 490 860 296 q 774 789 860 685 q 531 893 688 893 q 288 788 375 893 q 201 490 201 683 q 288 192 201 297 q 531 86 375 86 m 719 1222 q 708 1204 718 1211 q 685 1197 697 1197 q 660 1206 671 1197 q 650 1232 650 1215 q 665 1267 650 1254 q 707 1292 679 1279 q 733 1306 725 1300 q 742 1319 742 1311 q 726 1337 742 1331 q 683 1343 711 1343 q 613 1333 658 1343 q 583 1338 594 1329 q 571 1361 571 1347 q 593 1392 571 1383 q 689 1408 632 1408 q 792 1385 754 1408 q 829 1325 829 1361 q 812 1283 829 1297 q 764 1256 794 1268 q 732 1240 743 1247 q 719 1222 721 1233 m 411 1069 q 381 1056 397 1056 q 353 1067 365 1056 q 340 1096 340 1079 q 358 1132 340 1115 l 479 1251 q 531 1274 503 1274 q 582 1251 558 1274 l 703 1132 q 721 1097 721 1115 q 708 1068 721 1081 q 681 1056 696 1056 q 651 1068 664 1056 l 531 1196 l 411 1069 z "},"Ỗ":{"ha":1061,"x_min":85,"x_max":976,"o":"m 531 -11 q 294 50 394 -11 q 139 224 193 111 q 85 489 85 336 q 138 756 85 643 q 292 930 192 869 q 531 990 393 990 q 769 930 668 990 q 923 756 869 869 q 976 490 976 643 q 922 224 976 338 q 767 50 868 111 q 531 -11 667 -11 m 531 86 q 773 191 686 86 q 860 490 860 296 q 774 789 860 685 q 531 893 688 893 q 288 788 375 893 q 201 490 201 683 q 288 192 201 297 q 531 86 375 86 m 629 1272 q 580 1280 604 1272 q 515 1304 556 1288 q 471 1322 493 1314 q 433 1329 449 1329 q 398 1320 411 1329 q 371 1294 385 1311 q 342 1274 356 1274 q 319 1282 328 1274 q 311 1304 311 1290 q 326 1351 311 1326 q 369 1392 342 1375 q 432 1408 397 1408 q 483 1400 457 1408 q 546 1375 510 1392 q 590 1358 568 1365 q 628 1350 613 1350 q 665 1360 651 1350 q 690 1386 678 1369 q 719 1407 706 1407 q 742 1398 733 1407 q 750 1375 750 1389 q 735 1330 750 1354 q 692 1289 719 1306 q 629 1272 664 1272 m 411 1069 q 381 1056 397 1056 q 353 1067 365 1056 q 340 1096 340 1079 q 358 1132 340 1115 l 479 1251 q 531 1274 503 1274 q 582 1251 558 1274 l 703 1132 q 721 1097 721 1115 q 708 1068 721 1081 q 681 1056 696 1056 q 651 1068 664 1056 l 531 1196 l 411 1069 z "},"Ȍ":{"ha":1061,"x_min":85,"x_max":976,"o":"m 531 -11 q 294 50 394 -11 q 139 224 193 111 q 85 489 85 336 q 138 756 85 643 q 292 930 192 869 q 531 990 393 990 q 769 930 668 990 q 923 756 869 869 q 976 490 976 643 q 922 224 976 338 q 767 50 868 111 q 531 -11 667 -11 m 531 86 q 773 191 686 86 q 860 490 860 296 q 774 789 860 685 q 531 893 688 893 q 288 788 375 893 q 201 490 201 683 q 288 192 201 297 q 531 86 375 86 m 321 1197 q 306 1236 306 1217 q 319 1267 306 1254 q 350 1281 332 1281 q 396 1246 381 1281 l 469 1096 q 474 1081 474 1088 q 466 1063 474 1069 q 449 1056 458 1056 q 424 1068 433 1056 l 321 1197 m 488 1197 q 472 1236 472 1217 q 485 1267 472 1254 q 517 1281 499 1281 q 563 1246 547 1281 l 636 1096 q 640 1081 640 1088 q 633 1063 640 1069 q 615 1056 626 1056 q 590 1068 603 1056 l 488 1197 z "},"Ö":{"ha":1061,"x_min":85,"x_max":976,"o":"m 531 -11 q 294 50 394 -11 q 139 224 193 111 q 85 489 85 336 q 138 756 85 643 q 292 930 192 869 q 531 990 393 990 q 769 930 668 990 q 923 756 869 869 q 976 490 976 643 q 922 224 976 338 q 767 50 868 111 q 531 -11 667 -11 m 531 86 q 773 191 686 86 q 860 490 860 296 q 774 789 860 685 q 531 893 688 893 q 288 788 375 893 q 201 490 201 683 q 288 192 201 297 q 531 86 375 86 m 411 1103 q 363 1122 382 1103 q 343 1169 343 1140 q 363 1217 343 1199 q 411 1236 382 1236 q 460 1217 440 1236 q 481 1169 481 1199 q 461 1121 481 1139 q 411 1103 442 1103 m 650 1103 q 601 1122 621 1103 q 581 1169 581 1140 q 601 1217 581 1199 q 650 1236 621 1236 q 699 1217 679 1236 q 718 1169 718 1199 q 699 1122 718 1140 q 650 1103 679 1103 z "},"Ȫ":{"ha":1061,"x_min":85,"x_max":976,"o":"m 531 -11 q 294 50 394 -11 q 139 224 193 111 q 85 489 85 336 q 138 756 85 643 q 292 930 192 869 q 531 990 393 990 q 769 930 668 990 q 923 756 869 869 q 976 490 976 643 q 922 224 976 338 q 767 50 868 111 q 531 -11 667 -11 m 531 86 q 773 191 686 86 q 860 490 860 296 q 774 789 860 685 q 531 893 688 893 q 288 788 375 893 q 201 490 201 683 q 288 192 201 297 q 531 86 375 86 m 411 1103 q 363 1122 382 1103 q 343 1169 343 1140 q 363 1217 343 1199 q 411 1236 382 1236 q 460 1217 440 1236 q 481 1169 481 1199 q 461 1121 481 1139 q 411 1103 442 1103 m 650 1103 q 601 1122 621 1103 q 581 1169 581 1140 q 601 1217 581 1199 q 650 1236 621 1236 q 699 1217 679 1236 q 718 1169 718 1199 q 699 1122 718 1140 q 650 1103 679 1103 m 363 1349 q 326 1360 339 1349 q 313 1392 313 1371 q 326 1423 313 1413 q 363 1433 339 1433 l 699 1433 q 735 1423 722 1433 q 749 1392 749 1413 q 735 1360 749 1371 q 699 1349 722 1349 l 363 1349 z "},"Ȱ":{"ha":1061,"x_min":85,"x_max":976,"o":"m 531 -11 q 294 50 394 -11 q 139 224 193 111 q 85 489 85 336 q 138 756 85 643 q 292 930 192 869 q 531 990 393 990 q 769 930 668 990 q 923 756 869 869 q 976 490 976 643 q 922 224 976 338 q 767 50 868 111 q 531 -11 667 -11 m 531 86 q 773 191 686 86 q 860 490 860 296 q 774 789 860 685 q 531 893 688 893 q 288 788 375 893 q 201 490 201 683 q 288 192 201 297 q 531 86 375 86 m 531 1099 q 476 1118 497 1099 q 456 1169 456 1138 q 476 1220 456 1201 q 531 1239 497 1239 q 585 1220 564 1239 q 606 1169 606 1201 q 585 1118 606 1138 q 531 1099 564 1099 m 363 1349 q 326 1360 339 1349 q 313 1392 313 1371 q 326 1423 313 1413 q 363 1433 339 1433 l 699 1433 q 735 1423 722 1433 q 749 1392 749 1413 q 735 1360 749 1371 q 699 1349 722 1349 l 363 1349 z "},"Ọ":{"ha":1061,"x_min":85,"x_max":976,"o":"m 531 -11 q 294 50 394 -11 q 139 224 193 111 q 85 489 85 336 q 138 756 85 643 q 292 930 192 869 q 531 990 393 990 q 769 930 668 990 q 923 756 869 869 q 976 490 976 643 q 922 224 976 338 q 767 50 868 111 q 531 -11 667 -11 m 531 86 q 773 191 686 86 q 860 490 860 296 q 774 789 860 685 q 531 893 688 893 q 288 788 375 893 q 201 490 201 683 q 288 192 201 297 q 531 86 375 86 m 531 -260 q 479 -241 499 -260 q 460 -192 460 -222 q 479 -142 460 -161 q 531 -124 499 -124 q 581 -142 561 -124 q 601 -192 601 -161 q 582 -241 601 -222 q 531 -260 563 -260 z "},"Ò":{"ha":1061,"x_min":85,"x_max":976,"o":"m 531 -11 q 294 50 394 -11 q 139 224 193 111 q 85 489 85 336 q 138 756 85 643 q 292 930 192 869 q 531 990 393 990 q 769 930 668 990 q 923 756 869 869 q 976 490 976 643 q 922 224 976 338 q 767 50 868 111 q 531 -11 667 -11 m 531 86 q 773 191 686 86 q 860 490 860 296 q 774 789 860 685 q 531 893 688 893 q 288 788 375 893 q 201 490 201 683 q 288 192 201 297 q 531 86 375 86 m 349 1181 q 315 1232 315 1203 q 330 1265 315 1251 q 364 1279 344 1279 q 413 1256 389 1279 l 550 1106 q 560 1083 560 1096 q 551 1064 560 1072 q 529 1056 542 1056 q 511 1061 521 1056 l 349 1181 z "},"Ỏ":{"ha":1061,"x_min":85,"x_max":976,"o":"m 531 -11 q 294 50 394 -11 q 139 224 193 111 q 85 489 85 336 q 138 756 85 643 q 292 930 192 869 q 531 990 393 990 q 769 930 668 990 q 923 756 869 869 q 976 490 976 643 q 922 224 976 338 q 767 50 868 111 q 531 -11 667 -11 m 531 86 q 773 191 686 86 q 860 490 860 296 q 774 789 860 685 q 531 893 688 893 q 288 788 375 893 q 201 490 201 683 q 288 192 201 297 q 531 86 375 86 m 569 1081 q 558 1062 568 1068 q 535 1056 549 1056 q 507 1065 518 1056 q 496 1092 496 1074 q 511 1129 496 1115 q 553 1156 526 1143 q 567 1163 556 1157 q 583 1174 578 1168 q 588 1186 588 1179 q 572 1206 588 1199 q 531 1213 557 1213 q 460 1201 494 1213 q 449 1200 456 1200 q 426 1209 435 1200 q 418 1231 418 1218 q 424 1249 418 1240 q 440 1263 429 1258 q 536 1279 479 1279 q 639 1255 601 1279 q 676 1192 676 1231 q 660 1149 676 1164 q 615 1119 644 1133 q 583 1102 594 1111 q 569 1081 572 1093 z "},"Ơ":{"ha":1061,"x_min":85,"x_max":976,"o":"m 793 910 q 930 741 883 849 q 976 490 976 633 q 922 224 976 338 q 767 50 868 111 q 531 -11 667 -11 q 294 50 394 -11 q 139 224 193 111 q 85 489 85 336 q 139 756 85 643 q 294 930 193 869 q 535 990 396 990 q 636 985 572 990 q 724 979 697 979 q 838 1008 806 979 q 874 1115 869 1036 q 928 1179 878 1179 q 965 1163 953 1179 q 976 1113 976 1147 q 928 974 976 1028 q 793 910 879 919 m 531 86 q 773 191 686 86 q 860 490 860 296 q 774 789 860 685 q 531 893 688 893 q 288 788 375 893 q 201 490 201 683 q 288 192 201 297 q 531 86 375 86 z "},"Ớ":{"ha":1061,"x_min":85,"x_max":976,"o":"m 793 910 q 930 741 883 849 q 976 490 976 633 q 922 224 976 338 q 767 50 868 111 q 531 -11 667 -11 q 294 50 394 -11 q 139 224 193 111 q 85 489 85 336 q 139 756 85 643 q 294 930 193 869 q 535 990 396 990 q 636 985 572 990 q 724 979 697 979 q 838 1008 806 979 q 874 1115 869 1036 q 928 1179 878 1179 q 965 1163 953 1179 q 976 1113 976 1147 q 928 974 976 1028 q 793 910 879 919 m 531 86 q 773 191 686 86 q 860 490 860 296 q 774 789 860 685 q 531 893 688 893 q 288 788 375 893 q 201 490 201 683 q 288 192 201 297 q 531 86 375 86 m 550 1061 q 532 1056 540 1056 q 510 1064 519 1056 q 501 1083 501 1072 q 511 1106 501 1096 l 649 1256 q 697 1279 671 1279 q 731 1265 717 1279 q 746 1232 746 1251 q 713 1181 746 1203 l 550 1061 z "},"Ợ":{"ha":1061,"x_min":85,"x_max":976,"o":"m 793 910 q 930 741 883 849 q 976 490 976 633 q 922 224 976 338 q 767 50 868 111 q 531 -11 667 -11 q 294 50 394 -11 q 139 224 193 111 q 85 489 85 336 q 139 756 85 643 q 294 930 193 869 q 535 990 396 990 q 636 985 572 990 q 724 979 697 979 q 838 1008 806 979 q 874 1115 869 1036 q 928 1179 878 1179 q 965 1163 953 1179 q 976 1113 976 1147 q 928 974 976 1028 q 793 910 879 919 m 531 86 q 773 191 686 86 q 860 490 860 296 q 774 789 860 685 q 531 893 688 893 q 288 788 375 893 q 201 490 201 683 q 288 192 201 297 q 531 86 375 86 m 532 -260 q 481 -241 500 -260 q 461 -192 461 -222 q 481 -142 461 -161 q 532 -124 500 -124 q 583 -142 563 -124 q 603 -192 603 -161 q 583 -241 603 -222 q 532 -260 564 -260 z "},"Ờ":{"ha":1061,"x_min":85,"x_max":976,"o":"m 793 910 q 930 741 883 849 q 976 490 976 633 q 922 224 976 338 q 767 50 868 111 q 531 -11 667 -11 q 294 50 394 -11 q 139 224 193 111 q 85 489 85 336 q 139 756 85 643 q 294 930 193 869 q 535 990 396 990 q 636 985 572 990 q 724 979 697 979 q 838 1008 806 979 q 874 1115 869 1036 q 928 1179 878 1179 q 965 1163 953 1179 q 976 1113 976 1147 q 928 974 976 1028 q 793 910 879 919 m 531 86 q 773 191 686 86 q 860 490 860 296 q 774 789 860 685 q 531 893 688 893 q 288 788 375 893 q 201 490 201 683 q 288 192 201 297 q 531 86 375 86 m 349 1181 q 315 1232 315 1203 q 330 1265 315 1251 q 364 1279 344 1279 q 413 1256 389 1279 l 550 1106 q 560 1083 560 1096 q 551 1064 560 1072 q 529 1056 542 1056 q 511 1061 521 1056 l 349 1181 z "},"Ở":{"ha":1061,"x_min":85,"x_max":976,"o":"m 793 910 q 930 741 883 849 q 976 490 976 633 q 922 224 976 338 q 767 50 868 111 q 531 -11 667 -11 q 294 50 394 -11 q 139 224 193 111 q 85 489 85 336 q 139 756 85 643 q 294 930 193 869 q 535 990 396 990 q 636 985 572 990 q 724 979 697 979 q 838 1008 806 979 q 874 1115 869 1036 q 928 1179 878 1179 q 965 1163 953 1179 q 976 1113 976 1147 q 928 974 976 1028 q 793 910 879 919 m 531 86 q 773 191 686 86 q 860 490 860 296 q 774 789 860 685 q 531 893 688 893 q 288 788 375 893 q 201 490 201 683 q 288 192 201 297 q 531 86 375 86 m 569 1081 q 558 1062 568 1068 q 535 1056 549 1056 q 507 1065 518 1056 q 496 1092 496 1074 q 511 1129 496 1115 q 553 1156 526 1143 q 567 1163 556 1157 q 583 1174 578 1168 q 588 1186 588 1179 q 572 1206 588 1199 q 531 1213 557 1213 q 460 1201 494 1213 q 449 1200 456 1200 q 426 1209 435 1200 q 418 1231 418 1218 q 424 1249 418 1240 q 440 1263 429 1258 q 536 1279 479 1279 q 639 1255 601 1279 q 676 1192 676 1231 q 660 1149 676 1164 q 615 1119 644 1133 q 583 1102 594 1111 q 569 1081 572 1093 z "},"Ỡ":{"ha":1061,"x_min":85,"x_max":976,"o":"m 793 910 q 930 741 883 849 q 976 490 976 633 q 922 224 976 338 q 767 50 868 111 q 531 -11 667 -11 q 294 50 394 -11 q 139 224 193 111 q 85 489 85 336 q 139 756 85 643 q 294 930 193 869 q 535 990 396 990 q 636 985 572 990 q 724 979 697 979 q 838 1008 806 979 q 874 1115 869 1036 q 928 1179 878 1179 q 965 1163 953 1179 q 976 1113 976 1147 q 928 974 976 1028 q 793 910 879 919 m 531 86 q 773 191 686 86 q 860 490 860 296 q 774 789 860 685 q 531 893 688 893 q 288 788 375 893 q 201 490 201 683 q 288 192 201 297 q 531 86 375 86 m 629 1097 q 580 1106 606 1097 q 519 1129 554 1114 q 469 1149 489 1143 q 433 1156 450 1156 q 397 1146 410 1156 q 371 1119 383 1136 q 342 1099 356 1099 q 319 1108 328 1099 q 311 1132 311 1117 q 326 1181 311 1156 q 369 1224 342 1207 q 432 1242 397 1242 q 479 1234 456 1242 q 542 1211 503 1226 q 592 1191 572 1197 q 628 1185 611 1185 q 663 1194 650 1185 q 690 1219 676 1203 q 719 1240 706 1240 q 742 1231 733 1240 q 750 1207 750 1222 q 735 1158 750 1183 q 692 1115 719 1132 q 629 1097 664 1097 z "},"Ő":{"ha":1061,"x_min":85,"x_max":976,"o":"m 531 -11 q 294 50 394 -11 q 139 224 193 111 q 85 489 85 336 q 138 756 85 643 q 292 930 192 869 q 531 990 393 990 q 769 930 668 990 q 923 756 869 869 q 976 490 976 643 q 922 224 976 338 q 767 50 868 111 q 531 -11 667 -11 m 531 86 q 773 191 686 86 q 860 490 860 296 q 774 789 860 685 q 531 893 688 893 q 288 788 375 893 q 201 490 201 683 q 288 192 201 297 q 531 86 375 86 m 471 1068 q 446 1056 460 1056 q 428 1063 435 1056 q 421 1081 421 1069 q 425 1096 421 1088 l 499 1246 q 544 1279 517 1279 q 576 1267 563 1279 q 589 1235 589 1254 q 574 1197 589 1217 l 471 1068 m 638 1068 q 614 1056 626 1056 q 595 1063 603 1056 q 588 1081 588 1071 q 592 1096 588 1088 l 665 1246 q 711 1279 683 1279 q 742 1267 729 1279 q 756 1235 756 1254 q 740 1197 756 1217 l 638 1068 z "},"Ȏ":{"ha":1061,"x_min":85,"x_max":976,"o":"m 531 -11 q 294 50 394 -11 q 139 224 193 111 q 85 489 85 336 q 138 756 85 643 q 292 930 192 869 q 531 990 393 990 q 769 930 668 990 q 923 756 869 869 q 976 490 976 643 q 922 224 976 338 q 767 50 868 111 q 531 -11 667 -11 m 531 86 q 773 191 686 86 q 860 490 860 296 q 774 789 860 685 q 531 893 688 893 q 288 788 375 893 q 201 490 201 683 q 288 192 201 297 q 531 86 375 86 m 390 1101 q 349 1079 372 1079 q 322 1089 333 1079 q 311 1114 311 1099 q 317 1139 311 1128 q 402 1228 346 1197 q 531 1258 458 1258 q 658 1228 603 1258 q 744 1139 714 1197 q 751 1114 751 1125 q 740 1089 751 1099 q 713 1079 729 1079 q 671 1101 688 1079 q 531 1176 621 1176 q 390 1101 440 1176 z "},"Ō":{"ha":1061,"x_min":85,"x_max":976,"o":"m 531 -11 q 294 50 394 -11 q 139 224 193 111 q 85 489 85 336 q 138 756 85 643 q 292 930 192 869 q 531 990 393 990 q 769 930 668 990 q 923 756 869 869 q 976 490 976 643 q 922 224 976 338 q 767 50 868 111 q 531 -11 667 -11 m 531 86 q 773 191 686 86 q 860 490 860 296 q 774 789 860 685 q 531 893 688 893 q 288 788 375 893 q 201 490 201 683 q 288 192 201 297 q 531 86 375 86 m 363 1126 q 326 1138 339 1126 q 313 1169 313 1149 q 326 1201 313 1190 q 363 1211 339 1211 l 699 1211 q 735 1201 722 1211 q 749 1169 749 1190 q 735 1138 749 1149 q 699 1126 722 1126 l 363 1126 z "},"Ṓ":{"ha":1061,"x_min":85,"x_max":976,"o":"m 531 -11 q 294 50 394 -11 q 139 224 193 111 q 85 489 85 336 q 138 756 85 643 q 292 930 192 869 q 531 990 393 990 q 769 930 668 990 q 923 756 869 869 q 976 490 976 643 q 922 224 976 338 q 767 50 868 111 q 531 -11 667 -11 m 531 86 q 773 191 686 86 q 860 490 860 296 q 774 789 860 685 q 531 893 688 893 q 288 788 375 893 q 201 490 201 683 q 288 192 201 297 q 531 86 375 86 m 363 1126 q 326 1138 339 1126 q 313 1169 313 1149 q 326 1201 313 1190 q 363 1211 339 1211 l 699 1211 q 735 1201 722 1211 q 749 1169 749 1190 q 735 1138 749 1149 q 699 1126 722 1126 l 363 1126 m 550 1283 q 532 1278 540 1278 q 510 1286 519 1278 q 501 1306 501 1294 q 511 1328 501 1318 l 649 1478 q 697 1501 671 1501 q 731 1488 717 1501 q 746 1454 746 1474 q 713 1403 746 1425 l 550 1283 z "},"Ṑ":{"ha":1061,"x_min":85,"x_max":976,"o":"m 531 -11 q 294 50 394 -11 q 139 224 193 111 q 85 489 85 336 q 138 756 85 643 q 292 930 192 869 q 531 990 393 990 q 769 930 668 990 q 923 756 869 869 q 976 490 976 643 q 922 224 976 338 q 767 50 868 111 q 531 -11 667 -11 m 531 86 q 773 191 686 86 q 860 490 860 296 q 774 789 860 685 q 531 893 688 893 q 288 788 375 893 q 201 490 201 683 q 288 192 201 297 q 531 86 375 86 m 363 1126 q 326 1138 339 1126 q 313 1169 313 1149 q 326 1201 313 1190 q 363 1211 339 1211 l 699 1211 q 735 1201 722 1211 q 749 1169 749 1190 q 735 1138 749 1149 q 699 1126 722 1126 l 363 1126 m 349 1403 q 315 1454 315 1425 q 330 1488 315 1474 q 364 1501 344 1501 q 413 1478 389 1501 l 550 1328 q 560 1306 560 1318 q 551 1286 560 1294 q 529 1278 542 1278 q 511 1283 521 1278 l 349 1403 z "},"Ǫ":{"ha":1061,"x_min":85,"x_max":976,"o":"m 667 6 q 561 -107 561 -24 q 585 -171 561 -147 q 650 -194 610 -194 q 717 -178 679 -194 q 732 -175 722 -175 q 753 -185 744 -175 q 761 -207 761 -194 q 740 -242 761 -229 q 636 -268 690 -268 q 519 -227 564 -268 q 474 -122 474 -186 q 518 -12 474 -60 q 288 52 386 -10 q 138 226 190 114 q 85 489 85 339 q 138 756 85 643 q 292 930 192 869 q 531 990 393 990 q 769 930 668 990 q 923 756 869 869 q 976 490 976 643 q 895 174 976 300 q 667 6 814 49 m 201 490 q 288 192 201 297 q 531 86 375 86 q 773 191 686 86 q 860 490 860 296 q 774 789 860 685 q 531 893 688 893 q 288 788 375 893 q 201 490 201 683 z "},"Ø":{"ha":1061,"x_min":85,"x_max":976,"o":"m 819 893 q 936 725 896 828 q 976 490 976 622 q 922 224 976 338 q 767 50 868 111 q 531 -11 667 -11 q 318 36 413 -11 l 282 -26 q 239 -56 265 -56 q 208 -43 221 -56 q 194 -11 194 -31 q 204 19 194 4 l 243 86 q 126 254 167 151 q 85 489 85 357 q 138 756 85 643 q 292 930 192 869 q 531 990 393 990 q 743 944 647 990 l 779 1007 q 822 1033 794 1033 q 853 1021 840 1033 q 867 990 867 1008 q 858 961 867 976 l 819 893 m 201 490 q 297 181 201 285 l 692 857 q 531 893 622 893 q 288 788 375 893 q 201 490 201 683 m 531 86 q 773 191 686 86 q 860 490 860 296 q 764 800 860 696 l 369 124 q 531 86 439 86 z "},"Ǿ":{"ha":1061,"x_min":85,"x_max":976,"o":"m 819 893 q 936 725 896 828 q 976 490 976 622 q 922 224 976 338 q 767 50 868 111 q 531 -11 667 -11 q 318 36 413 -11 l 282 -26 q 239 -56 265 -56 q 208 -43 221 -56 q 194 -11 194 -31 q 204 19 194 4 l 243 86 q 126 254 167 151 q 85 489 85 357 q 138 756 85 643 q 292 930 192 869 q 531 990 393 990 q 743 944 647 990 l 779 1007 q 822 1033 794 1033 q 853 1021 840 1033 q 867 990 867 1008 q 858 961 867 976 l 819 893 m 201 490 q 297 181 201 285 l 692 857 q 531 893 622 893 q 288 788 375 893 q 201 490 201 683 m 531 86 q 773 191 686 86 q 860 490 860 296 q 764 800 860 696 l 369 124 q 531 86 439 86 m 550 1061 q 532 1056 540 1056 q 510 1064 519 1056 q 501 1083 501 1072 q 511 1106 501 1096 l 649 1256 q 697 1279 671 1279 q 731 1265 717 1279 q 746 1232 746 1251 q 713 1181 746 1203 l 550 1061 z "},"Õ":{"ha":1061,"x_min":85,"x_max":976,"o":"m 531 -11 q 294 50 394 -11 q 139 224 193 111 q 85 489 85 336 q 138 756 85 643 q 292 930 192 869 q 531 990 393 990 q 769 930 668 990 q 923 756 869 869 q 976 490 976 643 q 922 224 976 338 q 767 50 868 111 q 531 -11 667 -11 m 531 86 q 773 191 686 86 q 860 490 860 296 q 774 789 860 685 q 531 893 688 893 q 288 788 375 893 q 201 490 201 683 q 288 192 201 297 q 531 86 375 86 m 629 1097 q 580 1106 606 1097 q 519 1129 554 1114 q 469 1149 489 1143 q 433 1156 450 1156 q 397 1146 410 1156 q 371 1119 383 1136 q 342 1099 356 1099 q 319 1108 328 1099 q 311 1132 311 1117 q 326 1181 311 1156 q 369 1224 342 1207 q 432 1242 397 1242 q 479 1234 456 1242 q 542 1211 503 1226 q 592 1191 572 1197 q 628 1185 611 1185 q 663 1194 650 1185 q 690 1219 676 1203 q 719 1240 706 1240 q 742 1231 733 1240 q 750 1207 750 1222 q 735 1158 750 1183 q 692 1115 719 1132 q 629 1097 664 1097 z "},"Ṍ":{"ha":1061,"x_min":85,"x_max":976,"o":"m 531 -11 q 294 50 394 -11 q 139 224 193 111 q 85 489 85 336 q 138 756 85 643 q 292 930 192 869 q 531 990 393 990 q 769 930 668 990 q 923 756 869 869 q 976 490 976 643 q 922 224 976 338 q 767 50 868 111 q 531 -11 667 -11 m 531 86 q 773 191 686 86 q 860 490 860 296 q 774 789 860 685 q 531 893 688 893 q 288 788 375 893 q 201 490 201 683 q 288 192 201 297 q 531 86 375 86 m 629 1097 q 580 1106 606 1097 q 519 1129 554 1114 q 469 1149 489 1143 q 433 1156 450 1156 q 397 1146 410 1156 q 371 1119 383 1136 q 342 1099 356 1099 q 319 1108 328 1099 q 311 1132 311 1117 q 326 1181 311 1156 q 369 1224 342 1207 q 432 1242 397 1242 q 479 1234 456 1242 q 542 1211 503 1226 q 592 1191 572 1197 q 628 1185 611 1185 q 663 1194 650 1185 q 690 1219 676 1203 q 719 1240 706 1240 q 742 1231 733 1240 q 750 1207 750 1222 q 735 1158 750 1183 q 692 1115 719 1132 q 629 1097 664 1097 m 550 1283 q 532 1278 540 1278 q 510 1286 519 1278 q 501 1306 501 1294 q 511 1328 501 1318 l 649 1478 q 697 1501 671 1501 q 731 1488 717 1501 q 746 1454 746 1474 q 713 1403 746 1425 l 550 1283 z "},"Ṏ":{"ha":1061,"x_min":85,"x_max":976,"o":"m 531 -11 q 294 50 394 -11 q 139 224 193 111 q 85 489 85 336 q 138 756 85 643 q 292 930 192 869 q 531 990 393 990 q 769 930 668 990 q 923 756 869 869 q 976 490 976 643 q 922 224 976 338 q 767 50 868 111 q 531 -11 667 -11 m 531 86 q 773 191 686 86 q 860 490 860 296 q 774 789 860 685 q 531 893 688 893 q 288 788 375 893 q 201 490 201 683 q 288 192 201 297 q 531 86 375 86 m 629 1097 q 580 1106 606 1097 q 519 1129 554 1114 q 469 1149 489 1143 q 433 1156 450 1156 q 397 1146 410 1156 q 371 1119 383 1136 q 342 1099 356 1099 q 319 1108 328 1099 q 311 1132 311 1117 q 326 1181 311 1156 q 369 1224 342 1207 q 432 1242 397 1242 q 479 1234 456 1242 q 542 1211 503 1226 q 592 1191 572 1197 q 628 1185 611 1185 q 663 1194 650 1185 q 690 1219 676 1203 q 719 1240 706 1240 q 742 1231 733 1240 q 750 1207 750 1222 q 735 1158 750 1183 q 692 1115 719 1132 q 629 1097 664 1097 m 411 1325 q 363 1344 382 1325 q 343 1392 343 1363 q 363 1440 343 1421 q 411 1458 382 1458 q 460 1440 440 1458 q 481 1392 481 1421 q 461 1343 481 1361 q 411 1325 442 1325 m 650 1325 q 601 1344 621 1325 q 581 1392 581 1363 q 601 1440 581 1421 q 650 1458 621 1458 q 699 1440 679 1458 q 718 1392 718 1421 q 699 1344 718 1363 q 650 1325 679 1325 z "},"Ȭ":{"ha":1061,"x_min":85,"x_max":976,"o":"m 531 -11 q 294 50 394 -11 q 139 224 193 111 q 85 489 85 336 q 138 756 85 643 q 292 930 192 869 q 531 990 393 990 q 769 930 668 990 q 923 756 869 869 q 976 490 976 643 q 922 224 976 338 q 767 50 868 111 q 531 -11 667 -11 m 531 86 q 773 191 686 86 q 860 490 860 296 q 774 789 860 685 q 531 893 688 893 q 288 788 375 893 q 201 490 201 683 q 288 192 201 297 q 531 86 375 86 m 629 1097 q 580 1106 606 1097 q 519 1129 554 1114 q 469 1149 489 1143 q 433 1156 450 1156 q 397 1146 410 1156 q 371 1119 383 1136 q 342 1099 356 1099 q 319 1108 328 1099 q 311 1132 311 1117 q 326 1181 311 1156 q 369 1224 342 1207 q 432 1242 397 1242 q 479 1234 456 1242 q 542 1211 503 1226 q 592 1191 572 1197 q 628 1185 611 1185 q 663 1194 650 1185 q 690 1219 676 1203 q 719 1240 706 1240 q 742 1231 733 1240 q 750 1207 750 1222 q 735 1158 750 1183 q 692 1115 719 1132 q 629 1097 664 1097 m 363 1349 q 326 1360 339 1349 q 313 1392 313 1371 q 326 1423 313 1413 q 363 1433 339 1433 l 699 1433 q 735 1423 722 1433 q 749 1392 749 1413 q 735 1360 749 1371 q 699 1349 722 1349 l 363 1349 z "},"Œ":{"ha":1451,"x_min":85,"x_max":1394,"o":"m 575 0 q 213 128 342 0 q 85 490 85 256 q 213 852 85 725 q 575 979 342 979 l 1342 979 q 1381 967 1367 979 q 1394 932 1394 954 q 1342 885 1394 885 l 875 885 l 875 544 l 1314 544 q 1353 532 1339 544 q 1367 497 1367 519 q 1353 463 1367 475 q 1314 450 1339 450 l 875 450 l 875 94 l 1342 94 q 1394 47 1394 94 q 1381 13 1394 25 q 1342 0 1367 0 l 575 0 m 764 885 l 582 885 q 295 783 389 885 q 201 490 201 682 q 296 196 201 297 q 582 94 390 94 l 764 94 l 764 885 z "},"P":{"ha":896,"x_min":121,"x_max":833,"o":"m 178 -7 q 136 9 151 -7 q 121 51 121 25 l 121 924 q 137 964 121 949 q 179 979 153 979 l 508 979 q 748 904 663 979 q 833 692 833 829 q 747 478 833 554 q 508 401 661 401 l 235 401 l 235 51 q 219 9 235 25 q 178 -7 204 -7 m 497 496 q 721 692 721 496 q 497 885 721 885 l 235 885 l 235 496 l 497 496 z "},"Þ":{"ha":896,"x_min":121,"x_max":833,"o":"m 518 764 q 751 694 669 764 q 833 499 833 625 q 750 302 833 372 q 518 232 667 232 l 233 232 l 233 51 q 218 9 233 25 q 176 -7 203 -7 q 136 9 151 -7 q 121 51 121 25 l 121 928 q 136 970 121 954 q 176 986 151 986 q 218 970 203 986 q 233 928 233 954 l 233 764 l 518 764 m 506 326 q 668 369 615 326 q 721 499 721 411 q 668 628 721 586 q 506 669 615 669 l 233 669 l 233 326 l 506 326 z "},"Q":{"ha":1061,"x_min":85,"x_max":976,"o":"m 867 -181 q 876 -212 876 -196 q 861 -244 876 -232 q 825 -257 846 -257 q 767 -221 789 -257 l 686 -89 q 531 -11 636 -11 q 294 50 394 -11 q 139 224 193 111 q 85 489 85 336 q 138 756 85 643 q 292 930 192 869 q 531 990 393 990 q 767 930 667 990 q 922 756 868 869 q 976 490 976 643 q 905 190 976 313 q 701 18 833 67 q 756 -15 732 8 q 804 -78 779 -37 l 867 -181 m 201 490 q 288 192 201 297 q 531 86 375 86 q 773 191 686 86 q 860 490 860 296 q 774 789 860 685 q 531 893 688 893 q 288 788 375 893 q 201 490 201 683 z "},"R":{"ha":953,"x_min":121,"x_max":878,"o":"m 868 71 q 878 39 878 56 q 862 5 878 18 q 825 -8 846 -8 q 775 19 793 -8 l 589 314 q 514 392 553 371 q 408 414 475 414 l 233 414 l 233 51 q 218 9 233 25 q 178 -7 203 -7 q 136 9 151 -7 q 121 51 121 25 l 121 924 q 137 964 121 949 q 179 979 153 979 l 524 979 q 767 908 683 979 q 851 700 851 838 q 784 513 851 583 q 592 426 717 442 q 654 390 626 415 q 710 321 682 365 l 868 71 m 514 508 q 684 556 628 508 q 740 699 740 603 q 685 839 740 793 q 514 885 629 885 l 233 885 l 233 508 l 514 508 z "},"Ŕ":{"ha":953,"x_min":121,"x_max":878,"o":"m 868 71 q 878 39 878 56 q 862 5 878 18 q 825 -8 846 -8 q 775 19 793 -8 l 589 314 q 514 392 553 371 q 408 414 475 414 l 233 414 l 233 51 q 218 9 233 25 q 178 -7 203 -7 q 136 9 151 -7 q 121 51 121 25 l 121 924 q 137 964 121 949 q 179 979 153 979 l 524 979 q 767 908 683 979 q 851 700 851 838 q 784 513 851 583 q 592 426 717 442 q 654 390 626 415 q 710 321 682 365 l 868 71 m 514 508 q 684 556 628 508 q 740 699 740 603 q 685 839 740 793 q 514 885 629 885 l 233 885 l 233 508 l 514 508 m 493 1061 q 475 1056 483 1056 q 453 1064 463 1056 q 444 1083 444 1072 q 454 1106 444 1096 l 592 1256 q 640 1279 614 1279 q 674 1265 660 1279 q 689 1232 689 1251 q 656 1181 689 1203 l 493 1061 z "},"Ř":{"ha":953,"x_min":121,"x_max":878,"o":"m 868 71 q 878 39 878 56 q 862 5 878 18 q 825 -8 846 -8 q 775 19 793 -8 l 589 314 q 514 392 553 371 q 408 414 475 414 l 233 414 l 233 51 q 218 9 233 25 q 178 -7 203 -7 q 136 9 151 -7 q 121 51 121 25 l 121 924 q 137 964 121 949 q 179 979 153 979 l 524 979 q 767 908 683 979 q 851 700 851 838 q 784 513 851 583 q 592 426 717 442 q 654 390 626 415 q 710 321 682 365 l 868 71 m 514 508 q 684 556 628 508 q 740 699 740 603 q 685 839 740 793 q 514 885 629 885 l 233 885 l 233 508 l 514 508 m 474 1056 q 422 1078 446 1056 l 299 1206 q 283 1239 283 1221 q 295 1267 283 1256 q 324 1279 307 1279 q 357 1264 342 1279 l 474 1135 l 590 1264 q 624 1279 604 1279 q 651 1267 639 1279 q 664 1239 664 1254 q 649 1206 664 1221 l 525 1078 q 474 1056 501 1056 z "},"Ŗ":{"ha":953,"x_min":121,"x_max":878,"o":"m 868 71 q 878 39 878 56 q 862 5 878 18 q 825 -8 846 -8 q 775 19 793 -8 l 589 314 q 514 392 553 371 q 408 414 475 414 l 233 414 l 233 51 q 218 9 233 25 q 178 -7 203 -7 q 136 9 151 -7 q 121 51 121 25 l 121 924 q 137 964 121 949 q 179 979 153 979 l 524 979 q 767 908 683 979 q 851 700 851 838 q 784 513 851 583 q 592 426 717 442 q 654 390 626 415 q 710 321 682 365 l 868 71 m 514 508 q 684 556 628 508 q 740 699 740 603 q 685 839 740 793 q 514 885 629 885 l 233 885 l 233 508 l 514 508 m 472 -93 q 531 -116 510 -93 q 553 -187 553 -139 q 494 -340 553 -274 q 458 -357 479 -357 q 437 -349 446 -357 q 428 -331 428 -342 q 438 -306 428 -317 q 476 -222 469 -267 l 475 -222 q 426 -206 446 -222 q 406 -158 406 -189 q 424 -111 406 -129 q 472 -93 443 -93 z "},"Ȑ":{"ha":953,"x_min":121,"x_max":878,"o":"m 868 71 q 878 39 878 56 q 862 5 878 18 q 825 -8 846 -8 q 775 19 793 -8 l 589 314 q 514 392 553 371 q 408 414 475 414 l 233 414 l 233 51 q 218 9 233 25 q 178 -7 203 -7 q 136 9 151 -7 q 121 51 121 25 l 121 924 q 137 964 121 949 q 179 979 153 979 l 524 979 q 767 908 683 979 q 851 700 851 838 q 784 513 851 583 q 592 426 717 442 q 654 390 626 415 q 710 321 682 365 l 868 71 m 514 508 q 684 556 628 508 q 740 699 740 603 q 685 839 740 793 q 514 885 629 885 l 233 885 l 233 508 l 514 508 m 264 1197 q 249 1236 249 1217 q 262 1267 249 1254 q 293 1281 275 1281 q 339 1246 324 1281 l 413 1096 q 417 1081 417 1088 q 409 1063 417 1069 q 392 1056 401 1056 q 367 1068 376 1056 l 264 1197 m 431 1197 q 415 1236 415 1217 q 428 1267 415 1254 q 460 1281 442 1281 q 506 1246 490 1281 l 579 1096 q 583 1081 583 1088 q 576 1063 583 1069 q 558 1056 569 1056 q 533 1068 546 1056 l 431 1197 z "},"Ṛ":{"ha":953,"x_min":121,"x_max":878,"o":"m 868 71 q 878 39 878 56 q 862 5 878 18 q 825 -8 846 -8 q 775 19 793 -8 l 589 314 q 514 392 553 371 q 408 414 475 414 l 233 414 l 233 51 q 218 9 233 25 q 178 -7 203 -7 q 136 9 151 -7 q 121 51 121 25 l 121 924 q 137 964 121 949 q 179 979 153 979 l 524 979 q 767 908 683 979 q 851 700 851 838 q 784 513 851 583 q 592 426 717 442 q 654 390 626 415 q 710 321 682 365 l 868 71 m 514 508 q 684 556 628 508 q 740 699 740 603 q 685 839 740 793 q 514 885 629 885 l 233 885 l 233 508 l 514 508 m 474 -260 q 422 -241 442 -260 q 403 -192 403 -222 q 422 -142 403 -161 q 474 -124 442 -124 q 524 -142 504 -124 q 544 -192 544 -161 q 525 -241 544 -222 q 474 -260 506 -260 z "},"Ȓ":{"ha":953,"x_min":121,"x_max":878,"o":"m 868 71 q 878 39 878 56 q 862 5 878 18 q 825 -8 846 -8 q 775 19 793 -8 l 589 314 q 514 392 553 371 q 408 414 475 414 l 233 414 l 233 51 q 218 9 233 25 q 178 -7 203 -7 q 136 9 151 -7 q 121 51 121 25 l 121 924 q 137 964 121 949 q 179 979 153 979 l 524 979 q 767 908 683 979 q 851 700 851 838 q 784 513 851 583 q 592 426 717 442 q 654 390 626 415 q 710 321 682 365 l 868 71 m 514 508 q 684 556 628 508 q 740 699 740 603 q 685 839 740 793 q 514 885 629 885 l 233 885 l 233 508 l 514 508 m 333 1101 q 292 1079 315 1079 q 265 1089 276 1079 q 254 1114 254 1099 q 260 1139 254 1128 q 345 1228 289 1197 q 474 1258 401 1258 q 601 1228 546 1258 q 688 1139 657 1197 q 694 1114 694 1125 q 683 1089 694 1099 q 656 1079 672 1079 q 614 1101 631 1079 q 474 1176 564 1176 q 333 1101 383 1176 z "},"Ṟ":{"ha":953,"x_min":121,"x_max":878,"o":"m 868 71 q 878 39 878 56 q 862 5 878 18 q 825 -8 846 -8 q 775 19 793 -8 l 589 314 q 514 392 553 371 q 408 414 475 414 l 233 414 l 233 51 q 218 9 233 25 q 178 -7 203 -7 q 136 9 151 -7 q 121 51 121 25 l 121 924 q 137 964 121 949 q 179 979 153 979 l 524 979 q 767 908 683 979 q 851 700 851 838 q 784 513 851 583 q 592 426 717 442 q 654 390 626 415 q 710 321 682 365 l 868 71 m 514 508 q 684 556 628 508 q 740 699 740 603 q 685 839 740 793 q 514 885 629 885 l 233 885 l 233 508 l 514 508 m 306 -233 q 269 -222 282 -233 q 256 -192 256 -211 q 269 -162 256 -172 q 306 -151 282 -151 l 642 -151 q 678 -162 665 -151 q 692 -192 692 -172 q 678 -222 692 -211 q 642 -233 665 -233 l 306 -233 z "},"S":{"ha":857,"x_min":61,"x_max":793,"o":"m 433 -11 q 234 20 329 -11 q 82 104 139 51 q 61 153 61 124 q 72 187 61 172 q 99 201 83 201 q 138 186 117 201 q 432 86 267 86 q 615 132 551 86 q 679 263 679 178 q 649 341 679 311 q 568 389 618 371 q 433 426 518 407 q 247 482 319 453 q 128 565 174 511 q 83 707 83 619 q 128 855 83 790 q 255 955 174 919 q 440 990 336 990 q 622 960 538 990 q 763 875 706 931 q 785 826 785 853 q 774 792 785 807 q 747 778 763 778 q 707 793 732 778 q 581 871 639 849 q 440 893 522 893 q 261 845 325 893 q 197 711 197 797 q 253 601 197 638 q 426 536 310 564 q 625 480 553 506 q 745 403 697 454 q 793 265 793 351 q 748 121 793 183 q 621 24 703 58 q 433 -11 539 -11 z "},"Ś":{"ha":857,"x_min":61,"x_max":793,"o":"m 433 -11 q 234 20 329 -11 q 82 104 139 51 q 61 153 61 124 q 72 187 61 172 q 99 201 83 201 q 138 186 117 201 q 432 86 267 86 q 615 132 551 86 q 679 263 679 178 q 649 341 679 311 q 568 389 618 371 q 433 426 518 407 q 247 482 319 453 q 128 565 174 511 q 83 707 83 619 q 128 855 83 790 q 255 955 174 919 q 440 990 336 990 q 622 960 538 990 q 763 875 706 931 q 785 826 785 853 q 774 792 785 807 q 747 778 763 778 q 707 793 732 778 q 581 871 639 849 q 440 893 522 893 q 261 845 325 893 q 197 711 197 797 q 253 601 197 638 q 426 536 310 564 q 625 480 553 506 q 745 403 697 454 q 793 265 793 351 q 748 121 793 183 q 621 24 703 58 q 433 -11 539 -11 m 449 1061 q 431 1056 439 1056 q 409 1064 418 1056 q 400 1083 400 1072 q 410 1106 400 1096 l 547 1256 q 596 1279 569 1279 q 630 1265 615 1279 q 644 1232 644 1251 q 611 1181 644 1203 l 449 1061 z "},"Ṥ":{"ha":857,"x_min":61,"x_max":793,"o":"m 433 -11 q 234 20 329 -11 q 82 104 139 51 q 61 153 61 124 q 72 187 61 172 q 99 201 83 201 q 138 186 117 201 q 432 86 267 86 q 615 132 551 86 q 679 263 679 178 q 649 341 679 311 q 568 389 618 371 q 433 426 518 407 q 247 482 319 453 q 128 565 174 511 q 83 707 83 619 q 128 855 83 790 q 255 955 174 919 q 440 990 336 990 q 622 960 538 990 q 763 875 706 931 q 785 826 785 853 q 774 792 785 807 q 747 778 763 778 q 707 793 732 778 q 581 871 639 849 q 440 893 522 893 q 261 845 325 893 q 197 711 197 797 q 253 601 197 638 q 426 536 310 564 q 625 480 553 506 q 745 403 697 454 q 793 265 793 351 q 748 121 793 183 q 621 24 703 58 q 433 -11 539 -11 m 460 1061 q 442 1056 450 1056 q 420 1064 429 1056 q 411 1083 411 1072 q 421 1106 411 1096 l 558 1256 q 607 1279 581 1279 q 641 1265 626 1279 q 656 1232 656 1251 q 622 1181 656 1203 l 460 1061 m 274 1139 q 219 1158 240 1139 q 199 1210 199 1178 q 219 1260 199 1242 q 274 1279 240 1279 q 328 1260 307 1279 q 349 1210 349 1242 q 328 1158 349 1178 q 274 1139 307 1139 z "},"Š":{"ha":857,"x_min":61,"x_max":793,"o":"m 433 -11 q 234 20 329 -11 q 82 104 139 51 q 61 153 61 124 q 72 187 61 172 q 99 201 83 201 q 138 186 117 201 q 432 86 267 86 q 615 132 551 86 q 679 263 679 178 q 649 341 679 311 q 568 389 618 371 q 433 426 518 407 q 247 482 319 453 q 128 565 174 511 q 83 707 83 619 q 128 855 83 790 q 255 955 174 919 q 440 990 336 990 q 622 960 538 990 q 763 875 706 931 q 785 826 785 853 q 774 792 785 807 q 747 778 763 778 q 707 793 732 778 q 581 871 639 849 q 440 893 522 893 q 261 845 325 893 q 197 711 197 797 q 253 601 197 638 q 426 536 310 564 q 625 480 553 506 q 745 403 697 454 q 793 265 793 351 q 748 121 793 183 q 621 24 703 58 q 433 -11 539 -11 m 429 1056 q 378 1078 401 1056 l 254 1206 q 239 1239 239 1221 q 251 1267 239 1256 q 279 1279 263 1279 q 313 1264 297 1279 l 429 1135 l 546 1264 q 579 1279 560 1279 q 607 1267 594 1279 q 619 1239 619 1254 q 604 1206 619 1221 l 481 1078 q 429 1056 457 1056 z "},"Ṧ":{"ha":857,"x_min":61,"x_max":793,"o":"m 433 -11 q 234 20 329 -11 q 82 104 139 51 q 61 153 61 124 q 72 187 61 172 q 99 201 83 201 q 138 186 117 201 q 432 86 267 86 q 615 132 551 86 q 679 263 679 178 q 649 341 679 311 q 568 389 618 371 q 433 426 518 407 q 247 482 319 453 q 128 565 174 511 q 83 707 83 619 q 128 855 83 790 q 255 955 174 919 q 440 990 336 990 q 622 960 538 990 q 763 875 706 931 q 785 826 785 853 q 774 792 785 807 q 747 778 763 778 q 707 793 732 778 q 581 871 639 849 q 440 893 522 893 q 261 845 325 893 q 197 711 197 797 q 253 601 197 638 q 426 536 310 564 q 625 480 553 506 q 745 403 697 454 q 793 265 793 351 q 748 121 793 183 q 621 24 703 58 q 433 -11 539 -11 m 429 1056 q 378 1078 401 1056 l 254 1206 q 239 1239 239 1221 q 251 1267 239 1256 q 279 1279 263 1279 q 313 1264 297 1279 l 429 1135 l 546 1264 q 579 1279 560 1279 q 607 1267 594 1279 q 619 1239 619 1254 q 604 1206 619 1221 l 481 1078 q 429 1056 457 1056 m 429 1321 q 375 1340 396 1321 q 354 1392 354 1360 q 375 1442 354 1424 q 429 1461 396 1461 q 483 1442 463 1461 q 504 1392 504 1424 q 483 1340 504 1360 q 429 1321 463 1321 z "},"Ş":{"ha":857,"x_min":61,"x_max":793,"o":"m 793 265 q 751 126 793 188 q 633 28 710 64 q 458 -11 557 -7 l 453 -61 q 489 -57 469 -57 q 562 -81 532 -57 q 592 -153 592 -106 q 549 -236 592 -204 q 428 -268 506 -268 q 333 -251 378 -268 q 316 -238 322 -247 q 310 -219 310 -229 q 318 -198 310 -207 q 340 -189 326 -189 q 351 -190 347 -189 q 429 -201 389 -201 q 488 -189 468 -201 q 508 -153 508 -176 q 497 -125 508 -135 q 465 -115 486 -115 q 426 -122 450 -115 q 397 -128 403 -128 q 377 -120 386 -128 q 369 -101 368 -112 l 381 -8 q 212 28 292 -3 q 82 104 132 58 q 61 153 61 124 q 72 187 61 172 q 99 201 83 201 q 138 186 117 201 q 432 86 267 86 q 615 132 551 86 q 679 263 679 178 q 649 341 679 311 q 568 389 618 371 q 433 426 518 407 q 247 482 319 453 q 128 565 174 511 q 83 707 83 619 q 128 855 83 790 q 255 955 174 919 q 440 990 336 990 q 622 960 538 990 q 763 875 706 931 q 785 826 785 853 q 774 792 785 807 q 747 778 763 778 q 707 793 732 778 q 581 871 639 849 q 440 893 522 893 q 261 845 325 893 q 197 711 197 797 q 253 601 197 638 q 426 536 310 564 q 625 480 553 506 q 745 403 697 454 q 793 265 793 351 z "},"Ŝ":{"ha":857,"x_min":61,"x_max":793,"o":"m 433 -11 q 234 20 329 -11 q 82 104 139 51 q 61 153 61 124 q 72 187 61 172 q 99 201 83 201 q 138 186 117 201 q 432 86 267 86 q 615 132 551 86 q 679 263 679 178 q 649 341 679 311 q 568 389 618 371 q 433 426 518 407 q 247 482 319 453 q 128 565 174 511 q 83 707 83 619 q 128 855 83 790 q 255 955 174 919 q 440 990 336 990 q 622 960 538 990 q 763 875 706 931 q 785 826 785 853 q 774 792 785 807 q 747 778 763 778 q 707 793 732 778 q 581 871 639 849 q 440 893 522 893 q 261 845 325 893 q 197 711 197 797 q 253 601 197 638 q 426 536 310 564 q 625 480 553 506 q 745 403 697 454 q 793 265 793 351 q 748 121 793 183 q 621 24 703 58 q 433 -11 539 -11 m 313 1071 q 281 1056 299 1056 q 251 1068 264 1056 q 239 1097 239 1081 q 254 1129 239 1115 l 378 1257 q 429 1279 400 1279 q 481 1257 457 1279 l 604 1129 q 619 1096 619 1114 q 607 1068 619 1081 q 579 1056 594 1056 q 546 1071 561 1056 l 429 1201 l 313 1071 z "},"Ș":{"ha":857,"x_min":61,"x_max":793,"o":"m 433 -11 q 234 20 329 -11 q 82 104 139 51 q 61 153 61 124 q 72 187 61 172 q 99 201 83 201 q 138 186 117 201 q 432 86 267 86 q 615 132 551 86 q 679 263 679 178 q 649 341 679 311 q 568 389 618 371 q 433 426 518 407 q 247 482 319 453 q 128 565 174 511 q 83 707 83 619 q 128 855 83 790 q 255 955 174 919 q 440 990 336 990 q 622 960 538 990 q 763 875 706 931 q 785 826 785 853 q 774 792 785 807 q 747 778 763 778 q 707 793 732 778 q 581 871 639 849 q 440 893 522 893 q 261 845 325 893 q 197 711 197 797 q 253 601 197 638 q 426 536 310 564 q 625 480 553 506 q 745 403 697 454 q 793 265 793 351 q 748 121 793 183 q 621 24 703 58 q 433 -11 539 -11 m 432 -93 q 491 -116 469 -93 q 513 -187 513 -139 q 454 -340 513 -274 q 418 -357 439 -357 q 397 -349 406 -357 q 388 -331 388 -342 q 397 -306 388 -317 q 436 -222 429 -267 l 435 -222 q 385 -206 406 -222 q 365 -158 365 -189 q 384 -111 365 -129 q 432 -93 403 -93 z "},"Ṡ":{"ha":857,"x_min":61,"x_max":793,"o":"m 433 -11 q 234 20 329 -11 q 82 104 139 51 q 61 153 61 124 q 72 187 61 172 q 99 201 83 201 q 138 186 117 201 q 432 86 267 86 q 615 132 551 86 q 679 263 679 178 q 649 341 679 311 q 568 389 618 371 q 433 426 518 407 q 247 482 319 453 q 128 565 174 511 q 83 707 83 619 q 128 855 83 790 q 255 955 174 919 q 440 990 336 990 q 622 960 538 990 q 763 875 706 931 q 785 826 785 853 q 774 792 785 807 q 747 778 763 778 q 707 793 732 778 q 581 871 639 849 q 440 893 522 893 q 261 845 325 893 q 197 711 197 797 q 253 601 197 638 q 426 536 310 564 q 625 480 553 506 q 745 403 697 454 q 793 265 793 351 q 748 121 793 183 q 621 24 703 58 q 433 -11 539 -11 m 429 1099 q 375 1118 396 1099 q 354 1169 354 1138 q 375 1220 354 1201 q 429 1239 396 1239 q 483 1220 463 1239 q 504 1169 504 1201 q 483 1118 504 1138 q 429 1099 463 1099 z "},"Ṣ":{"ha":857,"x_min":61,"x_max":793,"o":"m 433 -11 q 234 20 329 -11 q 82 104 139 51 q 61 153 61 124 q 72 187 61 172 q 99 201 83 201 q 138 186 117 201 q 432 86 267 86 q 615 132 551 86 q 679 263 679 178 q 649 341 679 311 q 568 389 618 371 q 433 426 518 407 q 247 482 319 453 q 128 565 174 511 q 83 707 83 619 q 128 855 83 790 q 255 955 174 919 q 440 990 336 990 q 622 960 538 990 q 763 875 706 931 q 785 826 785 853 q 774 792 785 807 q 747 778 763 778 q 707 793 732 778 q 581 871 639 849 q 440 893 522 893 q 261 845 325 893 q 197 711 197 797 q 253 601 197 638 q 426 536 310 564 q 625 480 553 506 q 745 403 697 454 q 793 265 793 351 q 748 121 793 183 q 621 24 703 58 q 433 -11 539 -11 m 433 -260 q 382 -241 401 -260 q 363 -192 363 -222 q 382 -142 363 -161 q 433 -124 401 -124 q 484 -142 464 -124 q 504 -192 504 -161 q 485 -241 504 -222 q 433 -260 465 -260 z "},"Ṩ":{"ha":857,"x_min":61,"x_max":793,"o":"m 433 -11 q 234 20 329 -11 q 82 104 139 51 q 61 153 61 124 q 72 187 61 172 q 99 201 83 201 q 138 186 117 201 q 432 86 267 86 q 615 132 551 86 q 679 263 679 178 q 649 341 679 311 q 568 389 618 371 q 433 426 518 407 q 247 482 319 453 q 128 565 174 511 q 83 707 83 619 q 128 855 83 790 q 255 955 174 919 q 440 990 336 990 q 622 960 538 990 q 763 875 706 931 q 785 826 785 853 q 774 792 785 807 q 747 778 763 778 q 707 793 732 778 q 581 871 639 849 q 440 893 522 893 q 261 845 325 893 q 197 711 197 797 q 253 601 197 638 q 426 536 310 564 q 625 480 553 506 q 745 403 697 454 q 793 265 793 351 q 748 121 793 183 q 621 24 703 58 q 433 -11 539 -11 m 433 -260 q 382 -241 401 -260 q 363 -192 363 -222 q 382 -142 363 -161 q 433 -124 401 -124 q 484 -142 464 -124 q 504 -192 504 -161 q 485 -241 504 -222 q 433 -260 465 -260 m 429 1099 q 375 1118 396 1099 q 354 1169 354 1138 q 375 1220 354 1201 q 429 1239 396 1239 q 483 1220 463 1239 q 504 1169 504 1201 q 483 1118 504 1138 q 429 1099 463 1099 z "},"ẞ":{"ha":956,"x_min":121,"x_max":875,"o":"m 671 511 q 822 427 768 490 q 875 269 875 364 q 837 125 875 188 q 730 28 799 63 q 572 -7 661 -7 q 361 51 439 -7 q 325 85 335 71 q 315 117 315 99 q 326 149 315 136 q 353 161 336 161 q 374 155 361 161 q 400 140 386 149 q 482 99 443 113 q 565 86 521 86 q 710 135 658 86 q 763 272 763 183 q 531 449 763 449 l 396 449 q 358 463 371 449 q 344 497 344 478 q 358 532 344 518 q 396 546 371 546 l 488 546 q 642 591 588 546 q 697 721 697 636 q 642 847 697 801 q 488 892 586 892 q 296 827 358 892 q 233 628 233 763 l 233 50 q 218 8 233 24 q 176 -8 203 -8 q 136 8 151 -8 q 121 50 121 24 l 121 633 q 214 899 121 810 q 489 989 307 989 q 722 918 636 989 q 808 726 808 847 q 772 594 808 651 q 671 511 735 538 z "},"Ə":{"ha":1031,"x_min":85,"x_max":946,"o":"m 485 990 q 731 930 626 990 q 890 757 835 869 q 946 490 946 644 q 893 226 946 339 q 744 51 840 113 q 517 -11 647 -11 q 288 49 385 -11 q 138 219 190 108 q 85 481 85 329 q 101 528 85 511 q 147 544 117 544 l 829 544 q 726 803 815 713 q 482 893 636 893 q 343 872 404 893 q 204 793 282 850 q 165 778 182 778 q 139 792 150 778 q 128 826 128 807 q 150 875 128 854 q 299 961 213 932 q 485 990 386 990 m 517 86 q 740 181 658 86 q 829 449 821 275 l 201 449 q 292 181 210 275 q 517 86 375 86 z "},"T":{"ha":831,"x_min":6,"x_max":824,"o":"m 415 -7 q 373 9 389 -7 q 357 51 357 25 l 357 882 l 58 882 q 19 894 33 882 q 6 931 6 907 q 19 967 6 954 q 58 979 33 979 l 771 979 q 810 967 796 979 q 824 931 824 954 q 810 894 824 907 q 771 882 796 882 l 472 882 l 472 51 q 457 9 472 25 q 415 -7 442 -7 z "},"Ŧ":{"ha":831,"x_min":6,"x_max":824,"o":"m 771 979 q 810 967 796 979 q 824 931 824 954 q 810 894 824 907 q 771 882 796 882 l 472 882 l 472 543 l 631 543 q 667 531 654 543 q 681 496 681 518 q 667 462 681 474 q 631 450 654 450 l 472 450 l 472 51 q 457 9 472 25 q 415 -7 442 -7 q 373 9 389 -7 q 357 51 357 25 l 357 450 l 201 450 q 163 462 178 450 q 149 496 149 474 q 163 531 149 518 q 201 543 176 543 l 357 543 l 357 882 l 58 882 q 19 894 33 882 q 6 931 6 907 q 19 967 6 954 q 58 979 33 979 l 771 979 z "},"Ť":{"ha":831,"x_min":6,"x_max":824,"o":"m 415 -7 q 373 9 389 -7 q 357 51 357 25 l 357 882 l 58 882 q 19 894 33 882 q 6 931 6 907 q 19 967 6 954 q 58 979 33 979 l 771 979 q 810 967 796 979 q 824 931 824 954 q 810 894 824 907 q 771 882 796 882 l 472 882 l 472 51 q 457 9 472 25 q 415 -7 442 -7 m 415 1056 q 364 1078 388 1056 l 240 1206 q 225 1239 225 1221 q 237 1267 225 1256 q 265 1279 249 1279 q 299 1264 283 1279 l 415 1135 l 532 1264 q 565 1279 546 1279 q 593 1267 581 1279 q 606 1239 606 1254 q 590 1206 606 1221 l 467 1078 q 415 1056 443 1056 z "},"Ţ":{"ha":831,"x_min":6,"x_max":824,"o":"m 771 979 q 810 967 796 979 q 824 931 824 954 q 810 894 824 907 q 771 882 796 882 l 472 882 l 472 51 q 449 3 472 18 l 440 -61 q 478 -57 457 -57 q 550 -81 519 -57 q 581 -153 581 -106 q 537 -235 581 -203 q 415 -268 493 -268 q 321 -251 365 -268 q 303 -238 310 -247 q 297 -219 297 -229 q 306 -198 297 -207 q 328 -189 314 -189 q 339 -190 335 -189 q 417 -201 376 -201 q 476 -189 456 -201 q 496 -153 496 -176 q 485 -125 496 -135 q 454 -115 474 -115 q 414 -122 438 -115 q 385 -128 390 -128 q 365 -120 374 -128 q 358 -101 357 -112 l 371 11 q 357 51 357 26 l 357 882 l 58 882 q 19 894 33 882 q 6 931 6 907 q 19 967 6 954 q 58 979 33 979 l 771 979 z "},"Ț":{"ha":831,"x_min":6,"x_max":824,"o":"m 415 -7 q 373 9 389 -7 q 357 51 357 25 l 357 882 l 58 882 q 19 894 33 882 q 6 931 6 907 q 19 967 6 954 q 58 979 33 979 l 771 979 q 810 967 796 979 q 824 931 824 954 q 810 894 824 907 q 771 882 796 882 l 472 882 l 472 51 q 457 9 472 25 q 415 -7 442 -7 m 414 -93 q 473 -116 451 -93 q 494 -187 494 -139 q 436 -340 494 -274 q 400 -357 421 -357 q 378 -349 388 -357 q 369 -331 369 -342 q 379 -306 369 -317 q 418 -222 411 -267 l 417 -222 q 367 -206 388 -222 q 347 -158 347 -189 q 366 -111 347 -129 q 414 -93 385 -93 z "},"Ṭ":{"ha":831,"x_min":6,"x_max":824,"o":"m 415 -7 q 373 9 389 -7 q 357 51 357 25 l 357 882 l 58 882 q 19 894 33 882 q 6 931 6 907 q 19 967 6 954 q 58 979 33 979 l 771 979 q 810 967 796 979 q 824 931 824 954 q 810 894 824 907 q 771 882 796 882 l 472 882 l 472 51 q 457 9 472 25 q 415 -7 442 -7 m 415 -260 q 364 -241 383 -260 q 344 -192 344 -222 q 364 -142 344 -161 q 415 -124 383 -124 q 466 -142 446 -124 q 486 -192 486 -161 q 467 -241 486 -222 q 415 -260 447 -260 z "},"Ṯ":{"ha":831,"x_min":6,"x_max":824,"o":"m 415 -7 q 373 9 389 -7 q 357 51 357 25 l 357 882 l 58 882 q 19 894 33 882 q 6 931 6 907 q 19 967 6 954 q 58 979 33 979 l 771 979 q 810 967 796 979 q 824 931 824 954 q 810 894 824 907 q 771 882 796 882 l 472 882 l 472 51 q 457 9 472 25 q 415 -7 442 -7 m 247 -233 q 210 -222 224 -233 q 197 -192 197 -211 q 210 -162 197 -172 q 247 -151 224 -151 l 583 -151 q 620 -162 607 -151 q 633 -192 633 -172 q 620 -222 633 -211 q 583 -233 607 -233 l 247 -233 z "},"U":{"ha":1006,"x_min":114,"x_max":892,"o":"m 503 -11 q 213 89 311 -11 q 114 383 114 189 l 114 928 q 129 970 114 954 q 171 986 144 986 q 211 970 196 986 q 226 928 226 954 l 226 374 q 297 158 226 231 q 503 86 367 86 q 708 158 639 86 q 778 374 778 231 l 778 928 q 794 970 778 954 q 835 986 810 986 q 876 970 861 986 q 892 928 892 954 l 892 383 q 792 90 892 190 q 503 -11 693 -11 z "},"Ú":{"ha":1006,"x_min":114,"x_max":892,"o":"m 503 -11 q 213 89 311 -11 q 114 383 114 189 l 114 928 q 129 970 114 954 q 171 986 144 986 q 211 970 196 986 q 226 928 226 954 l 226 374 q 297 158 226 231 q 503 86 367 86 q 708 158 639 86 q 778 374 778 231 l 778 928 q 794 970 778 954 q 835 986 810 986 q 876 970 861 986 q 892 928 892 954 l 892 383 q 792 90 892 190 q 503 -11 693 -11 m 522 1061 q 504 1056 513 1056 q 483 1064 492 1056 q 474 1083 474 1072 q 483 1106 474 1096 l 621 1256 q 669 1279 643 1279 q 703 1265 689 1279 q 718 1232 718 1251 q 685 1181 718 1203 l 522 1061 z "},"Ŭ":{"ha":1006,"x_min":114,"x_max":892,"o":"m 503 -11 q 213 89 311 -11 q 114 383 114 189 l 114 928 q 129 970 114 954 q 171 986 144 986 q 211 970 196 986 q 226 928 226 954 l 226 374 q 297 158 226 231 q 503 86 367 86 q 708 158 639 86 q 778 374 778 231 l 778 928 q 794 970 778 954 q 835 986 810 986 q 876 970 861 986 q 892 928 892 954 l 892 383 q 792 90 892 190 q 503 -11 693 -11 m 503 1079 q 375 1109 431 1079 q 289 1197 319 1139 q 282 1222 282 1211 q 293 1249 282 1239 q 319 1258 304 1258 q 363 1235 344 1258 q 422 1178 388 1196 q 503 1161 457 1161 q 583 1178 549 1161 q 643 1235 618 1196 q 685 1258 661 1258 q 712 1249 701 1258 q 722 1222 722 1239 q 717 1197 722 1208 q 631 1110 688 1140 q 503 1079 575 1079 z "},"Û":{"ha":1006,"x_min":114,"x_max":892,"o":"m 503 -11 q 213 89 311 -11 q 114 383 114 189 l 114 928 q 129 970 114 954 q 171 986 144 986 q 211 970 196 986 q 226 928 226 954 l 226 374 q 297 158 226 231 q 503 86 367 86 q 708 158 639 86 q 778 374 778 231 l 778 928 q 794 970 778 954 q 835 986 810 986 q 876 970 861 986 q 892 928 892 954 l 892 383 q 792 90 892 190 q 503 -11 693 -11 m 386 1071 q 354 1056 372 1056 q 325 1068 338 1056 q 313 1097 313 1081 q 328 1129 313 1115 l 451 1257 q 503 1279 474 1279 q 554 1257 531 1279 l 678 1129 q 693 1096 693 1114 q 681 1068 693 1081 q 653 1056 668 1056 q 619 1071 635 1056 l 503 1201 l 386 1071 z "},"Ȕ":{"ha":1006,"x_min":114,"x_max":892,"o":"m 503 -11 q 213 89 311 -11 q 114 383 114 189 l 114 928 q 129 970 114 954 q 171 986 144 986 q 211 970 196 986 q 226 928 226 954 l 226 374 q 297 158 226 231 q 503 86 367 86 q 708 158 639 86 q 778 374 778 231 l 778 928 q 794 970 778 954 q 835 986 810 986 q 876 970 861 986 q 892 928 892 954 l 892 383 q 792 90 892 190 q 503 -11 693 -11 m 293 1197 q 278 1236 278 1217 q 291 1267 278 1254 q 322 1281 304 1281 q 368 1246 353 1281 l 442 1096 q 446 1081 446 1088 q 438 1063 446 1069 q 421 1056 431 1056 q 396 1068 406 1056 l 293 1197 m 460 1197 q 444 1236 444 1217 q 458 1267 444 1254 q 489 1281 471 1281 q 535 1246 519 1281 l 608 1096 q 613 1081 613 1088 q 606 1063 613 1069 q 588 1056 599 1056 q 563 1068 575 1056 l 460 1197 z "},"Ü":{"ha":1006,"x_min":114,"x_max":892,"o":"m 503 -11 q 213 89 311 -11 q 114 383 114 189 l 114 928 q 129 970 114 954 q 171 986 144 986 q 211 970 196 986 q 226 928 226 954 l 226 374 q 297 158 226 231 q 503 86 367 86 q 708 158 639 86 q 778 374 778 231 l 778 928 q 794 970 778 954 q 835 986 810 986 q 876 970 861 986 q 892 928 892 954 l 892 383 q 792 90 892 190 q 503 -11 693 -11 m 383 1103 q 335 1122 354 1103 q 315 1169 315 1140 q 335 1217 315 1199 q 383 1236 354 1236 q 433 1217 413 1236 q 453 1169 453 1199 q 433 1121 453 1139 q 383 1103 414 1103 m 622 1103 q 573 1122 593 1103 q 553 1169 553 1140 q 573 1217 553 1199 q 622 1236 593 1236 q 671 1217 651 1236 q 690 1169 690 1199 q 671 1122 690 1140 q 622 1103 651 1103 z "},"Ụ":{"ha":1006,"x_min":114,"x_max":892,"o":"m 503 -11 q 213 89 311 -11 q 114 383 114 189 l 114 928 q 129 970 114 954 q 171 986 144 986 q 211 970 196 986 q 226 928 226 954 l 226 374 q 297 158 226 231 q 503 86 367 86 q 708 158 639 86 q 778 374 778 231 l 778 928 q 794 970 778 954 q 835 986 810 986 q 876 970 861 986 q 892 928 892 954 l 892 383 q 792 90 892 190 q 503 -11 693 -11 m 503 -260 q 451 -241 471 -260 q 432 -192 432 -222 q 451 -142 432 -161 q 503 -124 471 -124 q 553 -142 533 -124 q 574 -192 574 -161 q 554 -241 574 -222 q 503 -260 535 -260 z "},"Ù":{"ha":1006,"x_min":114,"x_max":892,"o":"m 503 -11 q 213 89 311 -11 q 114 383 114 189 l 114 928 q 129 970 114 954 q 171 986 144 986 q 211 970 196 986 q 226 928 226 954 l 226 374 q 297 158 226 231 q 503 86 367 86 q 708 158 639 86 q 778 374 778 231 l 778 928 q 794 970 778 954 q 835 986 810 986 q 876 970 861 986 q 892 928 892 954 l 892 383 q 792 90 892 190 q 503 -11 693 -11 m 321 1181 q 288 1232 288 1203 q 302 1265 288 1251 q 336 1279 317 1279 q 385 1256 361 1279 l 522 1106 q 532 1083 532 1096 q 523 1064 532 1072 q 501 1056 514 1056 q 483 1061 493 1056 l 321 1181 z "},"Ủ":{"ha":1006,"x_min":114,"x_max":892,"o":"m 503 -11 q 213 89 311 -11 q 114 383 114 189 l 114 928 q 129 970 114 954 q 171 986 144 986 q 211 970 196 986 q 226 928 226 954 l 226 374 q 297 158 226 231 q 503 86 367 86 q 708 158 639 86 q 778 374 778 231 l 778 928 q 794 970 778 954 q 835 986 810 986 q 876 970 861 986 q 892 928 892 954 l 892 383 q 792 90 892 190 q 503 -11 693 -11 m 542 1081 q 531 1062 540 1068 q 507 1056 521 1056 q 479 1065 490 1056 q 468 1092 468 1074 q 483 1129 468 1115 q 525 1156 499 1143 q 539 1163 528 1157 q 555 1174 550 1168 q 560 1186 560 1179 q 544 1206 560 1199 q 503 1213 529 1213 q 432 1201 467 1213 q 421 1200 428 1200 q 399 1209 407 1200 q 390 1231 390 1218 q 396 1249 390 1240 q 413 1263 401 1258 q 508 1279 451 1279 q 611 1255 574 1279 q 649 1192 649 1231 q 633 1149 649 1164 q 588 1119 617 1133 q 556 1102 567 1111 q 542 1081 544 1093 z "},"Ư":{"ha":1006,"x_min":114,"x_max":1054,"o":"m 1054 1107 q 1010 976 1054 1029 q 892 915 965 924 l 892 383 q 792 90 892 190 q 503 -11 693 -11 q 213 89 311 -11 q 114 383 114 189 l 114 928 q 129 970 114 954 q 171 986 144 986 q 211 970 196 986 q 226 928 226 954 l 226 374 q 297 158 226 231 q 503 86 367 86 q 708 158 639 86 q 778 374 778 231 l 778 928 q 794 969 778 953 q 833 986 810 986 q 921 1015 894 988 q 951 1111 947 1042 q 1006 1168 956 1168 q 1054 1107 1054 1168 z "},"Ứ":{"ha":1006,"x_min":114,"x_max":1054,"o":"m 1054 1107 q 1010 976 1054 1029 q 892 915 965 924 l 892 383 q 792 90 892 190 q 503 -11 693 -11 q 213 89 311 -11 q 114 383 114 189 l 114 928 q 129 970 114 954 q 171 986 144 986 q 211 970 196 986 q 226 928 226 954 l 226 374 q 297 158 226 231 q 503 86 367 86 q 708 158 639 86 q 778 374 778 231 l 778 928 q 794 969 778 953 q 833 986 810 986 q 921 1015 894 988 q 951 1111 947 1042 q 1006 1168 956 1168 q 1054 1107 1054 1168 m 522 1061 q 504 1056 513 1056 q 483 1064 492 1056 q 474 1083 474 1072 q 483 1106 474 1096 l 621 1256 q 669 1279 643 1279 q 703 1265 689 1279 q 718 1232 718 1251 q 685 1181 718 1203 l 522 1061 z "},"Ự":{"ha":1006,"x_min":114,"x_max":1054,"o":"m 1054 1107 q 1010 976 1054 1029 q 892 915 965 924 l 892 383 q 792 90 892 190 q 503 -11 693 -11 q 213 89 311 -11 q 114 383 114 189 l 114 928 q 129 970 114 954 q 171 986 144 986 q 211 970 196 986 q 226 928 226 954 l 226 374 q 297 158 226 231 q 503 86 367 86 q 708 158 639 86 q 778 374 778 231 l 778 928 q 794 969 778 953 q 833 986 810 986 q 921 1015 894 988 q 951 1111 947 1042 q 1006 1168 956 1168 q 1054 1107 1054 1168 m 503 -260 q 451 -241 471 -260 q 432 -192 432 -222 q 451 -142 432 -161 q 503 -124 471 -124 q 553 -142 533 -124 q 574 -192 574 -161 q 554 -241 574 -222 q 503 -260 535 -260 z "},"Ừ":{"ha":1006,"x_min":114,"x_max":1054,"o":"m 1054 1107 q 1010 976 1054 1029 q 892 915 965 924 l 892 383 q 792 90 892 190 q 503 -11 693 -11 q 213 89 311 -11 q 114 383 114 189 l 114 928 q 129 970 114 954 q 171 986 144 986 q 211 970 196 986 q 226 928 226 954 l 226 374 q 297 158 226 231 q 503 86 367 86 q 708 158 639 86 q 778 374 778 231 l 778 928 q 794 969 778 953 q 833 986 810 986 q 921 1015 894 988 q 951 1111 947 1042 q 1006 1168 956 1168 q 1054 1107 1054 1168 m 321 1181 q 288 1232 288 1203 q 302 1265 288 1251 q 336 1279 317 1279 q 385 1256 361 1279 l 522 1106 q 532 1083 532 1096 q 523 1064 532 1072 q 501 1056 514 1056 q 483 1061 493 1056 l 321 1181 z "},"Ử":{"ha":1006,"x_min":114,"x_max":1054,"o":"m 1054 1107 q 1010 976 1054 1029 q 892 915 965 924 l 892 383 q 792 90 892 190 q 503 -11 693 -11 q 213 89 311 -11 q 114 383 114 189 l 114 928 q 129 970 114 954 q 171 986 144 986 q 211 970 196 986 q 226 928 226 954 l 226 374 q 297 158 226 231 q 503 86 367 86 q 708 158 639 86 q 778 374 778 231 l 778 928 q 794 969 778 953 q 833 986 810 986 q 921 1015 894 988 q 951 1111 947 1042 q 1006 1168 956 1168 q 1054 1107 1054 1168 m 542 1081 q 531 1062 540 1068 q 507 1056 521 1056 q 479 1065 490 1056 q 468 1092 468 1074 q 483 1129 468 1115 q 525 1156 499 1143 q 539 1163 528 1157 q 555 1174 550 1168 q 560 1186 560 1179 q 544 1206 560 1199 q 503 1213 529 1213 q 432 1201 467 1213 q 421 1200 428 1200 q 399 1209 407 1200 q 390 1231 390 1218 q 396 1249 390 1240 q 413 1263 401 1258 q 508 1279 451 1279 q 611 1255 574 1279 q 649 1192 649 1231 q 633 1149 649 1164 q 588 1119 617 1133 q 556 1102 567 1111 q 542 1081 544 1093 z "},"Ữ":{"ha":1006,"x_min":114,"x_max":1054,"o":"m 1054 1107 q 1010 976 1054 1029 q 892 915 965 924 l 892 383 q 792 90 892 190 q 503 -11 693 -11 q 213 89 311 -11 q 114 383 114 189 l 114 928 q 129 970 114 954 q 171 986 144 986 q 211 970 196 986 q 226 928 226 954 l 226 374 q 297 158 226 231 q 503 86 367 86 q 708 158 639 86 q 778 374 778 231 l 778 928 q 794 969 778 953 q 833 986 810 986 q 921 1015 894 988 q 951 1111 947 1042 q 1006 1168 956 1168 q 1054 1107 1054 1168 m 601 1097 q 552 1106 578 1097 q 492 1129 526 1114 q 442 1149 461 1143 q 406 1156 422 1156 q 369 1146 382 1156 q 343 1119 356 1136 q 314 1099 328 1099 q 292 1108 300 1099 q 283 1132 283 1117 q 299 1181 283 1156 q 342 1224 314 1207 q 404 1242 369 1242 q 451 1234 428 1242 q 514 1211 475 1226 q 564 1191 544 1197 q 600 1185 583 1185 q 635 1194 622 1185 q 663 1219 649 1203 q 692 1240 678 1240 q 714 1231 706 1240 q 722 1207 722 1222 q 707 1158 722 1183 q 664 1115 692 1132 q 601 1097 636 1097 z "},"Ű":{"ha":1006,"x_min":114,"x_max":892,"o":"m 503 -11 q 213 89 311 -11 q 114 383 114 189 l 114 928 q 129 970 114 954 q 171 986 144 986 q 211 970 196 986 q 226 928 226 954 l 226 374 q 297 158 226 231 q 503 86 367 86 q 708 158 639 86 q 778 374 778 231 l 778 928 q 794 970 778 954 q 835 986 810 986 q 876 970 861 986 q 892 928 892 954 l 892 383 q 792 90 892 190 q 503 -11 693 -11 m 443 1068 q 418 1056 432 1056 q 400 1063 407 1056 q 393 1081 393 1069 q 397 1096 393 1088 l 471 1246 q 517 1279 489 1279 q 548 1267 535 1279 q 561 1235 561 1254 q 546 1197 561 1217 l 443 1068 m 610 1068 q 586 1056 599 1056 q 567 1063 575 1056 q 560 1081 560 1071 q 564 1096 560 1088 l 638 1246 q 683 1279 656 1279 q 715 1267 701 1279 q 728 1235 728 1254 q 713 1197 728 1217 l 610 1068 z "},"Ȗ":{"ha":1006,"x_min":114,"x_max":892,"o":"m 503 -11 q 213 89 311 -11 q 114 383 114 189 l 114 928 q 129 970 114 954 q 171 986 144 986 q 211 970 196 986 q 226 928 226 954 l 226 374 q 297 158 226 231 q 503 86 367 86 q 708 158 639 86 q 778 374 778 231 l 778 928 q 794 970 778 954 q 835 986 810 986 q 876 970 861 986 q 892 928 892 954 l 892 383 q 792 90 892 190 q 503 -11 693 -11 m 363 1101 q 321 1079 344 1079 q 294 1089 306 1079 q 283 1114 283 1099 q 289 1139 283 1128 q 374 1228 318 1197 q 503 1258 431 1258 q 631 1228 575 1258 q 717 1139 686 1197 q 724 1114 724 1125 q 713 1089 724 1099 q 685 1079 701 1079 q 643 1101 660 1079 q 503 1176 593 1176 q 363 1101 413 1176 z "},"Ū":{"ha":1006,"x_min":114,"x_max":892,"o":"m 503 -11 q 213 89 311 -11 q 114 383 114 189 l 114 928 q 129 970 114 954 q 171 986 144 986 q 211 970 196 986 q 226 928 226 954 l 226 374 q 297 158 226 231 q 503 86 367 86 q 708 158 639 86 q 778 374 778 231 l 778 928 q 794 970 778 954 q 835 986 810 986 q 876 970 861 986 q 892 928 892 954 l 892 383 q 792 90 892 190 q 503 -11 693 -11 m 335 1126 q 298 1138 311 1126 q 285 1169 285 1149 q 298 1201 285 1190 q 335 1211 311 1211 l 671 1211 q 708 1201 694 1211 q 721 1169 721 1190 q 708 1138 721 1149 q 671 1126 694 1126 l 335 1126 z "},"Ṻ":{"ha":1006,"x_min":114,"x_max":892,"o":"m 503 -11 q 213 89 311 -11 q 114 383 114 189 l 114 928 q 129 970 114 954 q 171 986 144 986 q 211 970 196 986 q 226 928 226 954 l 226 374 q 297 158 226 231 q 503 86 367 86 q 708 158 639 86 q 778 374 778 231 l 778 928 q 794 970 778 954 q 835 986 810 986 q 876 970 861 986 q 892 928 892 954 l 892 383 q 792 90 892 190 q 503 -11 693 -11 m 335 1126 q 298 1138 311 1126 q 285 1169 285 1149 q 298 1201 285 1190 q 335 1211 311 1211 l 671 1211 q 708 1201 694 1211 q 721 1169 721 1190 q 708 1138 721 1149 q 671 1126 694 1126 l 335 1126 m 383 1325 q 335 1344 354 1325 q 315 1392 315 1363 q 335 1440 315 1421 q 383 1458 354 1458 q 433 1440 413 1458 q 453 1392 453 1421 q 433 1343 453 1361 q 383 1325 414 1325 m 622 1325 q 573 1344 593 1325 q 553 1392 553 1363 q 573 1440 553 1421 q 622 1458 593 1458 q 671 1440 651 1458 q 690 1392 690 1421 q 671 1344 690 1363 q 622 1325 651 1325 z "},"Ų":{"ha":1006,"x_min":114,"x_max":892,"o":"m 835 986 q 876 970 861 986 q 892 928 892 954 l 892 383 q 657 10 892 79 q 571 -37 599 -8 q 543 -107 543 -65 q 567 -171 543 -147 q 631 -194 590 -194 q 697 -178 664 -194 q 713 -175 703 -175 q 733 -185 725 -175 q 742 -207 742 -194 q 721 -242 742 -231 q 618 -268 671 -268 q 501 -227 546 -268 q 456 -122 456 -186 q 506 -11 456 -53 l 503 -11 q 213 89 311 -11 q 114 383 114 189 l 114 928 q 129 970 114 954 q 171 986 144 986 q 211 970 196 986 q 226 928 226 954 l 226 374 q 297 158 226 231 q 503 86 367 86 q 708 158 639 86 q 778 374 778 231 l 778 928 q 794 970 778 954 q 835 986 810 986 z "},"Ů":{"ha":1006,"x_min":114,"x_max":892,"o":"m 503 -11 q 213 89 311 -11 q 114 383 114 189 l 114 928 q 129 970 114 954 q 171 986 144 986 q 211 970 196 986 q 226 928 226 954 l 226 374 q 297 158 226 231 q 503 86 367 86 q 708 158 639 86 q 778 374 778 231 l 778 928 q 794 970 778 954 q 835 986 810 986 q 876 970 861 986 q 892 928 892 954 l 892 383 q 792 90 892 190 q 503 -11 693 -11 m 503 1056 q 403 1095 444 1056 q 363 1193 363 1135 q 403 1291 363 1251 q 503 1331 444 1331 q 602 1291 561 1331 q 643 1193 643 1251 q 602 1095 643 1135 q 503 1056 561 1056 m 503 1124 q 551 1144 532 1124 q 569 1193 569 1164 q 551 1242 569 1222 q 503 1263 532 1263 q 455 1242 474 1263 q 436 1193 436 1222 q 455 1144 436 1164 q 503 1124 474 1124 z "},"Ũ":{"ha":1006,"x_min":114,"x_max":892,"o":"m 503 -11 q 213 89 311 -11 q 114 383 114 189 l 114 928 q 129 970 114 954 q 171 986 144 986 q 211 970 196 986 q 226 928 226 954 l 226 374 q 297 158 226 231 q 503 86 367 86 q 708 158 639 86 q 778 374 778 231 l 778 928 q 794 970 778 954 q 835 986 810 986 q 876 970 861 986 q 892 928 892 954 l 892 383 q 792 90 892 190 q 503 -11 693 -11 m 601 1097 q 552 1106 578 1097 q 492 1129 526 1114 q 442 1149 461 1143 q 406 1156 422 1156 q 369 1146 382 1156 q 343 1119 356 1136 q 314 1099 328 1099 q 292 1108 300 1099 q 283 1132 283 1117 q 299 1181 283 1156 q 342 1224 314 1207 q 404 1242 369 1242 q 451 1234 428 1242 q 514 1211 475 1226 q 564 1191 544 1197 q 600 1185 583 1185 q 635 1194 622 1185 q 663 1219 649 1203 q 692 1240 678 1240 q 714 1231 706 1240 q 722 1207 722 1222 q 707 1158 722 1183 q 664 1115 692 1132 q 601 1097 636 1097 z "},"Ṹ":{"ha":1006,"x_min":114,"x_max":892,"o":"m 503 -11 q 213 89 311 -11 q 114 383 114 189 l 114 928 q 129 970 114 954 q 171 986 144 986 q 211 970 196 986 q 226 928 226 954 l 226 374 q 297 158 226 231 q 503 86 367 86 q 708 158 639 86 q 778 374 778 231 l 778 928 q 794 970 778 954 q 835 986 810 986 q 876 970 861 986 q 892 928 892 954 l 892 383 q 792 90 892 190 q 503 -11 693 -11 m 601 1097 q 552 1106 578 1097 q 492 1129 526 1114 q 442 1149 461 1143 q 406 1156 422 1156 q 369 1146 382 1156 q 343 1119 356 1136 q 314 1099 328 1099 q 292 1108 300 1099 q 283 1132 283 1117 q 299 1181 283 1156 q 342 1224 314 1207 q 404 1242 369 1242 q 451 1234 428 1242 q 514 1211 475 1226 q 564 1191 544 1197 q 600 1185 583 1185 q 635 1194 622 1185 q 663 1219 649 1203 q 692 1240 678 1240 q 714 1231 706 1240 q 722 1207 722 1222 q 707 1158 722 1183 q 664 1115 692 1132 q 601 1097 636 1097 m 522 1283 q 504 1278 513 1278 q 483 1286 492 1278 q 474 1306 474 1294 q 483 1328 474 1318 l 621 1478 q 669 1501 643 1501 q 703 1488 689 1501 q 718 1454 718 1474 q 685 1403 718 1425 l 522 1283 z "},"V":{"ha":960,"x_min":17,"x_max":944,"o":"m 839 957 q 859 981 846 972 q 888 989 872 989 q 927 974 910 989 q 944 939 944 960 q 939 917 944 928 l 540 31 q 515 3 532 13 q 479 -7 499 -7 q 443 3 460 -7 q 418 31 426 13 l 21 917 q 17 938 17 928 q 35 974 17 960 q 75 989 53 989 q 124 957 108 989 l 482 147 l 839 957 z "},"W":{"ha":1529,"x_min":51,"x_max":1476,"o":"m 1372 951 q 1392 978 1378 969 q 1422 988 1406 988 q 1460 974 1444 988 q 1476 939 1476 961 q 1472 917 1476 929 l 1158 32 q 1135 2 1151 13 q 1097 -8 1118 -8 q 1061 2 1078 -8 q 1038 32 1044 13 l 765 801 l 490 32 q 467 2 483 13 q 431 -8 450 -8 q 394 2 411 -8 q 371 32 378 13 l 56 917 q 51 938 51 928 q 69 974 51 960 q 108 988 86 988 q 140 978 125 988 q 160 951 154 969 l 433 163 l 711 943 q 733 974 718 964 q 767 985 749 985 q 800 974 785 985 q 822 942 815 963 l 1096 160 l 1372 951 z "},"Ẃ":{"ha":1529,"x_min":51,"x_max":1476,"o":"m 1372 951 q 1392 978 1378 969 q 1422 988 1406 988 q 1460 974 1444 988 q 1476 939 1476 961 q 1472 917 1476 929 l 1158 32 q 1135 2 1151 13 q 1097 -8 1118 -8 q 1061 2 1078 -8 q 1038 32 1044 13 l 765 801 l 490 32 q 467 2 483 13 q 431 -8 450 -8 q 394 2 411 -8 q 371 32 378 13 l 56 917 q 51 938 51 928 q 69 974 51 960 q 108 988 86 988 q 140 978 125 988 q 160 951 154 969 l 433 163 l 711 943 q 733 974 718 964 q 767 985 749 985 q 800 974 785 985 q 822 942 815 963 l 1096 160 l 1372 951 m 783 1061 q 765 1056 774 1056 q 744 1064 753 1056 q 735 1083 735 1072 q 744 1106 735 1096 l 882 1256 q 931 1279 904 1279 q 965 1265 950 1279 q 979 1232 979 1251 q 946 1181 979 1203 l 783 1061 z "},"Ŵ":{"ha":1529,"x_min":51,"x_max":1476,"o":"m 1372 951 q 1392 978 1378 969 q 1422 988 1406 988 q 1460 974 1444 988 q 1476 939 1476 961 q 1472 917 1476 929 l 1158 32 q 1135 2 1151 13 q 1097 -8 1118 -8 q 1061 2 1078 -8 q 1038 32 1044 13 l 765 801 l 490 32 q 467 2 483 13 q 431 -8 450 -8 q 394 2 411 -8 q 371 32 378 13 l 56 917 q 51 938 51 928 q 69 974 51 960 q 108 988 86 988 q 140 978 125 988 q 160 951 154 969 l 433 163 l 711 943 q 733 974 718 964 q 767 985 749 985 q 800 974 785 985 q 822 942 815 963 l 1096 160 l 1372 951 m 647 1071 q 615 1056 633 1056 q 586 1068 599 1056 q 574 1097 574 1081 q 589 1129 574 1115 l 713 1257 q 764 1279 735 1279 q 815 1257 792 1279 l 939 1129 q 954 1096 954 1114 q 942 1068 954 1081 q 914 1056 929 1056 q 881 1071 896 1056 l 764 1201 l 647 1071 z "},"Ẅ":{"ha":1529,"x_min":51,"x_max":1476,"o":"m 1372 951 q 1392 978 1378 969 q 1422 988 1406 988 q 1460 974 1444 988 q 1476 939 1476 961 q 1472 917 1476 929 l 1158 32 q 1135 2 1151 13 q 1097 -8 1118 -8 q 1061 2 1078 -8 q 1038 32 1044 13 l 765 801 l 490 32 q 467 2 483 13 q 431 -8 450 -8 q 394 2 411 -8 q 371 32 378 13 l 56 917 q 51 938 51 928 q 69 974 51 960 q 108 988 86 988 q 140 978 125 988 q 160 951 154 969 l 433 163 l 711 943 q 733 974 718 964 q 767 985 749 985 q 800 974 785 985 q 822 942 815 963 l 1096 160 l 1372 951 m 644 1103 q 596 1122 615 1103 q 576 1169 576 1140 q 596 1217 576 1199 q 644 1236 615 1236 q 694 1217 674 1236 q 714 1169 714 1199 q 694 1121 714 1139 q 644 1103 675 1103 m 883 1103 q 834 1122 854 1103 q 814 1169 814 1140 q 834 1217 814 1199 q 883 1236 854 1236 q 932 1217 913 1236 q 951 1169 951 1199 q 932 1122 951 1140 q 883 1103 913 1103 z "},"Ẁ":{"ha":1529,"x_min":51,"x_max":1476,"o":"m 1372 951 q 1392 978 1378 969 q 1422 988 1406 988 q 1460 974 1444 988 q 1476 939 1476 961 q 1472 917 1476 929 l 1158 32 q 1135 2 1151 13 q 1097 -8 1118 -8 q 1061 2 1078 -8 q 1038 32 1044 13 l 765 801 l 490 32 q 467 2 483 13 q 431 -8 450 -8 q 394 2 411 -8 q 371 32 378 13 l 56 917 q 51 938 51 928 q 69 974 51 960 q 108 988 86 988 q 140 978 125 988 q 160 951 154 969 l 433 163 l 711 943 q 733 974 718 964 q 767 985 749 985 q 800 974 785 985 q 822 942 815 963 l 1096 160 l 1372 951 m 582 1181 q 549 1232 549 1203 q 563 1265 549 1251 q 597 1279 578 1279 q 646 1256 622 1279 l 783 1106 q 793 1083 793 1096 q 784 1064 793 1072 q 763 1056 775 1056 q 744 1061 754 1056 l 582 1181 z "},"X":{"ha":897,"x_min":36,"x_max":861,"o":"m 847 82 q 861 47 861 67 q 844 10 861 25 q 806 -6 828 -6 q 765 14 783 -6 l 449 418 l 131 14 q 90 -6 115 -6 q 53 10 69 -6 q 36 47 36 26 q 49 82 36 68 l 382 500 l 67 897 q 53 933 53 913 q 69 969 53 954 q 106 985 85 985 q 146 964 129 985 l 449 581 l 750 964 q 790 985 767 985 q 828 969 811 985 q 844 931 844 953 q 832 897 844 911 l 515 500 l 847 82 z "},"Y":{"ha":835,"x_min":8,"x_max":824,"o":"m 733 964 q 774 985 750 985 q 808 969 793 985 q 824 932 824 954 q 811 897 824 911 l 474 471 l 474 51 q 458 8 474 24 q 417 -7 442 -7 q 376 8 392 -7 q 360 51 360 24 l 360 472 l 22 897 q 8 932 8 913 q 24 969 8 954 q 61 985 40 985 q 101 964 85 985 l 418 560 l 733 964 z "},"Ý":{"ha":835,"x_min":8,"x_max":824,"o":"m 733 964 q 774 985 750 985 q 808 969 793 985 q 824 932 824 954 q 811 897 824 911 l 474 471 l 474 51 q 458 8 474 24 q 417 -7 442 -7 q 376 8 392 -7 q 360 51 360 24 l 360 472 l 22 897 q 8 932 8 913 q 24 969 8 954 q 61 985 40 985 q 101 964 85 985 l 418 560 l 733 964 m 436 1061 q 418 1056 426 1056 q 397 1064 406 1056 q 388 1083 388 1072 q 397 1106 388 1096 l 535 1256 q 583 1279 557 1279 q 617 1265 603 1279 q 632 1232 632 1251 q 599 1181 632 1203 l 436 1061 z "},"Ŷ":{"ha":835,"x_min":8,"x_max":824,"o":"m 733 964 q 774 985 750 985 q 808 969 793 985 q 824 932 824 954 q 811 897 824 911 l 474 471 l 474 51 q 458 8 474 24 q 417 -7 442 -7 q 376 8 392 -7 q 360 51 360 24 l 360 472 l 22 897 q 8 932 8 913 q 24 969 8 954 q 61 985 40 985 q 101 964 85 985 l 418 560 l 733 964 m 300 1071 q 268 1056 286 1056 q 239 1068 251 1056 q 226 1097 226 1081 q 242 1129 226 1115 l 365 1257 q 417 1279 388 1279 q 468 1257 444 1279 l 592 1129 q 607 1096 607 1114 q 594 1068 607 1081 q 567 1056 582 1056 q 533 1071 549 1056 l 417 1201 l 300 1071 z "},"Ÿ":{"ha":835,"x_min":8,"x_max":824,"o":"m 733 964 q 774 985 750 985 q 808 969 793 985 q 824 932 824 954 q 811 897 824 911 l 474 471 l 474 51 q 458 8 474 24 q 417 -7 442 -7 q 376 8 392 -7 q 360 51 360 24 l 360 472 l 22 897 q 8 932 8 913 q 24 969 8 954 q 61 985 40 985 q 101 964 85 985 l 418 560 l 733 964 m 297 1103 q 249 1122 268 1103 q 229 1169 229 1140 q 249 1217 229 1199 q 297 1236 268 1236 q 347 1217 326 1236 q 367 1169 367 1199 q 347 1121 367 1139 q 297 1103 328 1103 m 536 1103 q 487 1122 507 1103 q 467 1169 467 1140 q 487 1217 467 1199 q 536 1236 507 1236 q 585 1217 565 1236 q 604 1169 604 1199 q 585 1122 604 1140 q 536 1103 565 1103 z "},"Ẏ":{"ha":835,"x_min":8,"x_max":824,"o":"m 733 964 q 774 985 750 985 q 808 969 793 985 q 824 932 824 954 q 811 897 824 911 l 474 471 l 474 51 q 458 8 474 24 q 417 -7 442 -7 q 376 8 392 -7 q 360 51 360 24 l 360 472 l 22 897 q 8 932 8 913 q 24 969 8 954 q 61 985 40 985 q 101 964 85 985 l 418 560 l 733 964 m 417 1099 q 363 1118 383 1099 q 342 1169 342 1138 q 363 1220 342 1201 q 417 1239 383 1239 q 471 1220 450 1239 q 492 1169 492 1201 q 471 1118 492 1138 q 417 1099 450 1099 z "},"Ỵ":{"ha":835,"x_min":8,"x_max":824,"o":"m 733 964 q 774 985 750 985 q 808 969 793 985 q 824 932 824 954 q 811 897 824 911 l 474 471 l 474 51 q 458 8 474 24 q 417 -7 442 -7 q 376 8 392 -7 q 360 51 360 24 l 360 472 l 22 897 q 8 932 8 913 q 24 969 8 954 q 61 985 40 985 q 101 964 85 985 l 418 560 l 733 964 m 417 -260 q 365 -241 385 -260 q 346 -192 346 -222 q 365 -142 346 -161 q 417 -124 385 -124 q 467 -142 447 -124 q 488 -192 488 -161 q 468 -241 488 -222 q 417 -260 449 -260 z "},"Ỳ":{"ha":835,"x_min":8,"x_max":824,"o":"m 733 964 q 774 985 750 985 q 808 969 793 985 q 824 932 824 954 q 811 897 824 911 l 474 471 l 474 51 q 458 8 474 24 q 417 -7 442 -7 q 376 8 392 -7 q 360 51 360 24 l 360 472 l 22 897 q 8 932 8 913 q 24 969 8 954 q 61 985 40 985 q 101 964 85 985 l 418 560 l 733 964 m 235 1181 q 201 1232 201 1203 q 216 1265 201 1251 q 250 1279 231 1279 q 299 1256 275 1279 l 436 1106 q 446 1083 446 1096 q 437 1064 446 1072 q 415 1056 428 1056 q 397 1061 407 1056 l 235 1181 z "},"Ỷ":{"ha":835,"x_min":8,"x_max":824,"o":"m 733 964 q 774 985 750 985 q 808 969 793 985 q 824 932 824 954 q 811 897 824 911 l 474 471 l 474 51 q 458 8 474 24 q 417 -7 442 -7 q 376 8 392 -7 q 360 51 360 24 l 360 472 l 22 897 q 8 932 8 913 q 24 969 8 954 q 61 985 40 985 q 101 964 85 985 l 418 560 l 733 964 m 456 1081 q 444 1062 454 1068 q 421 1056 435 1056 q 393 1065 404 1056 q 382 1092 382 1074 q 397 1129 382 1115 q 439 1156 413 1143 q 453 1163 442 1157 q 469 1174 464 1168 q 474 1186 474 1179 q 458 1206 474 1199 q 417 1213 443 1213 q 346 1201 381 1213 q 335 1200 342 1200 q 313 1209 321 1200 q 304 1231 304 1218 q 310 1249 304 1240 q 326 1263 315 1258 q 422 1279 365 1279 q 525 1255 488 1279 q 563 1192 563 1231 q 547 1149 563 1164 q 501 1119 531 1133 q 469 1102 481 1111 q 456 1081 458 1093 z "},"Ȳ":{"ha":835,"x_min":8,"x_max":824,"o":"m 733 964 q 774 985 750 985 q 808 969 793 985 q 824 932 824 954 q 811 897 824 911 l 474 471 l 474 51 q 458 8 474 24 q 417 -7 442 -7 q 376 8 392 -7 q 360 51 360 24 l 360 472 l 22 897 q 8 932 8 913 q 24 969 8 954 q 61 985 40 985 q 101 964 85 985 l 418 560 l 733 964 m 249 1126 q 212 1138 225 1126 q 199 1169 199 1149 q 212 1201 199 1190 q 249 1211 225 1211 l 585 1211 q 622 1201 608 1211 q 635 1169 635 1190 q 622 1138 635 1149 q 585 1126 608 1126 l 249 1126 z "},"Ỹ":{"ha":835,"x_min":8,"x_max":824,"o":"m 733 964 q 774 985 750 985 q 808 969 793 985 q 824 932 824 954 q 811 897 824 911 l 474 471 l 474 51 q 458 8 474 24 q 417 -7 442 -7 q 376 8 392 -7 q 360 51 360 24 l 360 472 l 22 897 q 8 932 8 913 q 24 969 8 954 q 61 985 40 985 q 101 964 85 985 l 418 560 l 733 964 m 515 1097 q 466 1106 492 1097 q 406 1129 440 1114 q 356 1149 375 1143 q 319 1156 336 1156 q 283 1146 296 1156 q 257 1119 269 1136 q 228 1099 242 1099 q 206 1108 214 1099 q 197 1132 197 1117 q 213 1181 197 1156 q 256 1224 228 1207 q 318 1242 283 1242 q 365 1234 342 1242 q 428 1211 389 1226 q 478 1191 458 1197 q 514 1185 497 1185 q 549 1194 536 1185 q 576 1219 563 1203 q 606 1240 592 1240 q 628 1231 619 1240 q 636 1207 636 1222 q 621 1158 636 1183 q 578 1115 606 1132 q 515 1097 550 1097 z "},"Z":{"ha":819,"x_min":51,"x_max":779,"o":"m 726 96 q 765 83 751 96 q 779 49 779 71 q 765 13 779 25 q 726 0 751 0 l 106 0 q 66 14 81 0 q 51 49 51 28 q 67 92 51 69 l 622 883 l 106 883 q 67 896 81 883 q 53 931 53 908 q 67 967 53 954 q 106 979 81 979 l 711 979 q 751 965 736 979 q 765 931 765 951 q 750 889 765 911 l 193 96 l 726 96 z "},"Ź":{"ha":819,"x_min":51,"x_max":779,"o":"m 726 96 q 765 83 751 96 q 779 49 779 71 q 765 13 779 25 q 726 0 751 0 l 106 0 q 66 14 81 0 q 51 49 51 28 q 67 92 51 69 l 622 883 l 106 883 q 67 896 81 883 q 53 931 53 908 q 67 967 53 954 q 106 979 81 979 l 711 979 q 751 965 736 979 q 765 931 765 951 q 750 889 765 911 l 193 96 l 726 96 m 429 1061 q 411 1056 419 1056 q 390 1064 399 1056 q 381 1083 381 1072 q 390 1106 381 1096 l 528 1256 q 576 1279 550 1279 q 610 1265 596 1279 q 625 1232 625 1251 q 592 1181 625 1203 l 429 1061 z "},"Ž":{"ha":819,"x_min":51,"x_max":779,"o":"m 726 96 q 765 83 751 96 q 779 49 779 71 q 765 13 779 25 q 726 0 751 0 l 106 0 q 66 14 81 0 q 51 49 51 28 q 67 92 51 69 l 622 883 l 106 883 q 67 896 81 883 q 53 931 53 908 q 67 967 53 954 q 106 979 81 979 l 711 979 q 751 965 736 979 q 765 931 765 951 q 750 889 765 911 l 193 96 l 726 96 m 410 1056 q 358 1078 382 1056 l 235 1206 q 219 1239 219 1221 q 231 1267 219 1256 q 260 1279 243 1279 q 293 1264 278 1279 l 410 1135 l 526 1264 q 560 1279 540 1279 q 588 1267 575 1279 q 600 1239 600 1254 q 585 1206 600 1221 l 461 1078 q 410 1056 438 1056 z "},"Ż":{"ha":819,"x_min":51,"x_max":779,"o":"m 726 96 q 765 83 751 96 q 779 49 779 71 q 765 13 779 25 q 726 0 751 0 l 106 0 q 66 14 81 0 q 51 49 51 28 q 67 92 51 69 l 622 883 l 106 883 q 67 896 81 883 q 53 931 53 908 q 67 967 53 954 q 106 979 81 979 l 711 979 q 751 965 736 979 q 765 931 765 951 q 750 889 765 911 l 193 96 l 726 96 m 410 1099 q 356 1118 376 1099 q 335 1169 335 1138 q 356 1220 335 1201 q 410 1239 376 1239 q 464 1220 443 1239 q 485 1169 485 1201 q 464 1118 485 1138 q 410 1099 443 1099 z "},"Ẓ":{"ha":819,"x_min":51,"x_max":779,"o":"m 726 96 q 765 83 751 96 q 779 49 779 71 q 765 13 779 25 q 726 0 751 0 l 106 0 q 66 14 81 0 q 51 49 51 28 q 67 92 51 69 l 622 883 l 106 883 q 67 896 81 883 q 53 931 53 908 q 67 967 53 954 q 106 979 81 979 l 711 979 q 751 965 736 979 q 765 931 765 951 q 750 889 765 911 l 193 96 l 726 96 m 415 -260 q 364 -241 383 -260 q 344 -192 344 -222 q 364 -142 344 -161 q 415 -124 383 -124 q 466 -142 446 -124 q 486 -192 486 -161 q 467 -241 486 -222 q 415 -260 447 -260 z "},"a":{"ha":736,"x_min":81,"x_max":635,"o":"m 381 693 q 635 426 635 693 l 635 49 q 620 8 635 24 q 581 -7 606 -7 q 540 8 556 -7 q 525 49 525 24 l 525 115 q 444 23 499 56 q 319 -10 390 -10 q 199 17 254 -10 q 113 90 144 43 q 81 194 81 138 q 119 313 81 271 q 247 374 158 356 q 494 393 336 393 l 525 393 l 525 439 q 491 561 525 522 q 381 600 457 600 q 189 549 286 600 q 136 525 151 525 q 108 538 119 525 q 97 569 97 550 q 109 603 97 589 q 147 633 121 618 q 258 677 196 661 q 381 693 319 693 m 335 79 q 472 135 418 79 q 525 281 525 192 l 525 321 l 500 321 q 314 310 378 321 q 223 276 250 300 q 196 204 196 251 q 235 115 196 150 q 335 79 275 79 z "},"á":{"ha":736,"x_min":81,"x_max":635,"o":"m 381 693 q 635 426 635 693 l 635 49 q 620 8 635 24 q 581 -7 606 -7 q 540 8 556 -7 q 525 49 525 24 l 525 115 q 444 23 499 56 q 319 -10 390 -10 q 199 17 254 -10 q 113 90 144 43 q 81 194 81 138 q 119 313 81 271 q 247 374 158 356 q 494 393 336 393 l 525 393 l 525 439 q 491 561 525 522 q 381 600 457 600 q 189 549 286 600 q 136 525 151 525 q 108 538 119 525 q 97 569 97 550 q 109 603 97 589 q 147 633 121 618 q 258 677 196 661 q 381 693 319 693 m 335 79 q 472 135 418 79 q 525 281 525 192 l 525 321 l 500 321 q 314 310 378 321 q 223 276 250 300 q 196 204 196 251 q 235 115 196 150 q 335 79 275 79 m 406 767 q 383 758 394 758 q 360 767 369 758 q 350 789 350 776 q 358 810 350 800 l 519 1021 q 576 1053 544 1053 q 614 1038 599 1053 q 629 1001 629 1024 q 601 949 629 972 l 406 767 z "},"ă":{"ha":736,"x_min":81,"x_max":635,"o":"m 381 693 q 635 426 635 693 l 635 49 q 620 8 635 24 q 581 -7 606 -7 q 540 8 556 -7 q 525 49 525 24 l 525 115 q 444 23 499 56 q 319 -10 390 -10 q 199 17 254 -10 q 113 90 144 43 q 81 194 81 138 q 119 313 81 271 q 247 374 158 356 q 494 393 336 393 l 525 393 l 525 439 q 491 561 525 522 q 381 600 457 600 q 189 549 286 600 q 136 525 151 525 q 108 538 119 525 q 97 569 97 550 q 109 603 97 589 q 147 633 121 618 q 258 677 196 661 q 381 693 319 693 m 335 79 q 472 135 418 79 q 525 281 525 192 l 525 321 l 500 321 q 314 310 378 321 q 223 276 250 300 q 196 204 196 251 q 235 115 196 150 q 335 79 275 79 m 381 806 q 251 842 308 806 q 165 946 193 879 q 161 968 161 958 q 173 997 161 986 q 201 1008 185 1008 q 243 979 229 1008 q 381 889 289 889 q 518 979 472 889 q 536 1001 525 993 q 560 1008 547 1008 q 588 997 576 1008 q 600 967 600 985 q 596 946 600 957 q 511 842 569 879 q 381 806 453 806 z "},"ắ":{"ha":736,"x_min":81,"x_max":635,"o":"m 381 693 q 635 426 635 693 l 635 49 q 620 8 635 24 q 581 -7 606 -7 q 540 8 556 -7 q 525 49 525 24 l 525 115 q 444 23 499 56 q 319 -10 390 -10 q 199 17 254 -10 q 113 90 144 43 q 81 194 81 138 q 119 313 81 271 q 247 374 158 356 q 494 393 336 393 l 525 393 l 525 439 q 491 561 525 522 q 381 600 457 600 q 189 549 286 600 q 136 525 151 525 q 108 538 119 525 q 97 569 97 550 q 109 603 97 589 q 147 633 121 618 q 258 677 196 661 q 381 693 319 693 m 335 79 q 472 135 418 79 q 525 281 525 192 l 525 321 l 500 321 q 314 310 378 321 q 223 276 250 300 q 196 204 196 251 q 235 115 196 150 q 335 79 275 79 m 397 907 q 378 901 388 901 q 359 910 367 901 q 351 928 351 918 q 363 953 351 942 l 492 1089 q 539 1111 514 1111 q 570 1099 557 1111 q 583 1067 583 1086 q 551 1017 583 1039 l 397 907 m 381 758 q 253 789 308 758 q 167 878 197 819 q 160 903 160 894 q 169 927 160 918 q 194 936 179 936 q 236 914 218 936 q 381 836 288 836 q 525 914 474 836 q 565 936 543 936 q 590 927 581 936 q 600 903 600 918 q 594 878 600 889 q 509 789 565 819 q 381 758 453 758 z "},"ặ":{"ha":736,"x_min":81,"x_max":635,"o":"m 381 693 q 635 426 635 693 l 635 49 q 620 8 635 24 q 581 -7 606 -7 q 540 8 556 -7 q 525 49 525 24 l 525 115 q 444 23 499 56 q 319 -10 390 -10 q 199 17 254 -10 q 113 90 144 43 q 81 194 81 138 q 119 313 81 271 q 247 374 158 356 q 494 393 336 393 l 525 393 l 525 439 q 491 561 525 522 q 381 600 457 600 q 189 549 286 600 q 136 525 151 525 q 108 538 119 525 q 97 569 97 550 q 109 603 97 589 q 147 633 121 618 q 258 677 196 661 q 381 693 319 693 m 335 79 q 472 135 418 79 q 525 281 525 192 l 525 321 l 500 321 q 314 310 378 321 q 223 276 250 300 q 196 204 196 251 q 235 115 196 150 q 335 79 275 79 m 376 -260 q 325 -241 344 -260 q 306 -192 306 -222 q 325 -142 306 -161 q 376 -124 344 -124 q 427 -142 407 -124 q 447 -192 447 -161 q 428 -241 447 -222 q 376 -260 408 -260 m 381 806 q 251 842 308 806 q 165 946 193 879 q 161 968 161 958 q 173 997 161 986 q 201 1008 185 1008 q 243 979 229 1008 q 381 889 289 889 q 518 979 472 889 q 536 1001 525 993 q 560 1008 547 1008 q 588 997 576 1008 q 600 967 600 985 q 596 946 600 957 q 511 842 569 879 q 381 806 453 806 z "},"ằ":{"ha":736,"x_min":81,"x_max":635,"o":"m 381 693 q 635 426 635 693 l 635 49 q 620 8 635 24 q 581 -7 606 -7 q 540 8 556 -7 q 525 49 525 24 l 525 115 q 444 23 499 56 q 319 -10 390 -10 q 199 17 254 -10 q 113 90 144 43 q 81 194 81 138 q 119 313 81 271 q 247 374 158 356 q 494 393 336 393 l 525 393 l 525 439 q 491 561 525 522 q 381 600 457 600 q 189 549 286 600 q 136 525 151 525 q 108 538 119 525 q 97 569 97 550 q 109 603 97 589 q 147 633 121 618 q 258 677 196 661 q 381 693 319 693 m 335 79 q 472 135 418 79 q 525 281 525 192 l 525 321 l 500 321 q 314 310 378 321 q 223 276 250 300 q 196 204 196 251 q 235 115 196 150 q 335 79 275 79 m 210 1017 q 178 1067 178 1039 q 190 1099 178 1086 q 222 1111 203 1111 q 269 1089 247 1111 l 399 953 q 411 928 411 940 q 403 909 411 917 q 383 901 394 901 q 364 907 374 901 l 210 1017 m 381 758 q 253 789 308 758 q 167 878 197 819 q 160 903 160 894 q 169 927 160 918 q 194 936 179 936 q 236 914 218 936 q 381 836 288 836 q 525 914 474 836 q 565 936 543 936 q 590 927 581 936 q 600 903 600 918 q 594 878 600 889 q 509 789 565 819 q 381 758 453 758 z "},"ẳ":{"ha":736,"x_min":81,"x_max":635,"o":"m 381 693 q 635 426 635 693 l 635 49 q 620 8 635 24 q 581 -7 606 -7 q 540 8 556 -7 q 525 49 525 24 l 525 115 q 444 23 499 56 q 319 -10 390 -10 q 199 17 254 -10 q 113 90 144 43 q 81 194 81 138 q 119 313 81 271 q 247 374 158 356 q 494 393 336 393 l 525 393 l 525 439 q 491 561 525 522 q 381 600 457 600 q 189 549 286 600 q 136 525 151 525 q 108 538 119 525 q 97 569 97 550 q 109 603 97 589 q 147 633 121 618 q 258 677 196 661 q 381 693 319 693 m 335 79 q 472 135 418 79 q 525 281 525 192 l 525 321 l 500 321 q 314 310 378 321 q 223 276 250 300 q 196 204 196 251 q 235 115 196 150 q 335 79 275 79 m 418 925 q 406 908 417 914 q 383 901 396 901 q 358 910 368 901 q 347 936 347 919 q 362 970 347 958 q 406 996 376 982 q 431 1010 424 1004 q 439 1022 439 1015 q 424 1040 439 1033 q 381 1046 408 1046 q 310 1036 347 1046 q 280 1042 292 1032 q 268 1065 268 1051 q 290 1096 268 1088 q 386 1113 333 1113 q 489 1089 451 1113 q 526 1028 526 1065 q 510 987 526 1000 q 463 960 493 974 q 430 943 440 950 q 418 925 419 936 m 381 758 q 253 789 308 758 q 167 878 197 819 q 160 903 160 894 q 169 927 160 918 q 194 936 179 936 q 236 914 218 936 q 381 836 288 836 q 525 914 474 836 q 565 936 543 936 q 590 927 581 936 q 600 903 600 918 q 594 878 600 889 q 509 789 565 819 q 381 758 453 758 z "},"ẵ":{"ha":736,"x_min":81,"x_max":635,"o":"m 381 693 q 635 426 635 693 l 635 49 q 620 8 635 24 q 581 -7 606 -7 q 540 8 556 -7 q 525 49 525 24 l 525 115 q 444 23 499 56 q 319 -10 390 -10 q 199 17 254 -10 q 113 90 144 43 q 81 194 81 138 q 119 313 81 271 q 247 374 158 356 q 494 393 336 393 l 525 393 l 525 439 q 491 561 525 522 q 381 600 457 600 q 189 549 286 600 q 136 525 151 525 q 108 538 119 525 q 97 569 97 550 q 109 603 97 589 q 147 633 121 618 q 258 677 196 661 q 381 693 319 693 m 335 79 q 472 135 418 79 q 525 281 525 192 l 525 321 l 500 321 q 314 310 378 321 q 223 276 250 300 q 196 204 196 251 q 235 115 196 150 q 335 79 275 79 m 479 975 q 428 983 454 975 q 365 1008 401 992 q 321 1026 343 1018 q 283 1033 299 1033 q 247 1024 260 1033 q 221 997 233 1014 q 192 976 206 976 q 169 985 178 976 q 161 1008 161 994 q 176 1053 161 1029 q 219 1094 192 1078 q 282 1111 247 1111 q 333 1103 307 1111 q 396 1078 360 1094 q 440 1060 418 1068 q 478 1053 463 1053 q 515 1063 501 1053 q 540 1089 528 1072 q 569 1110 556 1110 q 592 1101 583 1110 q 600 1078 600 1092 q 585 1033 600 1057 q 542 992 569 1008 q 479 975 514 975 m 381 758 q 253 789 308 758 q 167 878 197 819 q 160 901 160 892 q 171 926 160 917 q 197 935 182 935 q 236 914 219 935 q 381 836 288 836 q 525 914 474 836 q 564 936 542 936 q 590 926 579 936 q 600 901 600 917 q 594 878 600 889 q 509 789 565 819 q 381 758 453 758 z "},"ǎ":{"ha":736,"x_min":81,"x_max":635,"o":"m 381 693 q 635 426 635 693 l 635 49 q 620 8 635 24 q 581 -7 606 -7 q 540 8 556 -7 q 525 49 525 24 l 525 115 q 444 23 499 56 q 319 -10 390 -10 q 199 17 254 -10 q 113 90 144 43 q 81 194 81 138 q 119 313 81 271 q 247 374 158 356 q 494 393 336 393 l 525 393 l 525 439 q 491 561 525 522 q 381 600 457 600 q 189 549 286 600 q 136 525 151 525 q 108 538 119 525 q 97 569 97 550 q 109 603 97 589 q 147 633 121 618 q 258 677 196 661 q 381 693 319 693 m 335 79 q 472 135 418 79 q 525 281 525 192 l 525 321 l 500 321 q 314 310 378 321 q 223 276 250 300 q 196 204 196 251 q 235 115 196 150 q 335 79 275 79 m 381 758 q 328 792 350 758 l 200 982 q 190 1010 190 996 q 203 1039 190 1026 q 233 1051 217 1051 q 271 1028 257 1051 l 381 849 l 490 1028 q 528 1050 503 1050 q 558 1038 544 1050 q 571 1008 571 1025 q 563 982 571 997 l 433 792 q 381 758 411 758 z "},"â":{"ha":736,"x_min":81,"x_max":635,"o":"m 381 693 q 635 426 635 693 l 635 49 q 620 8 635 24 q 581 -7 606 -7 q 540 8 556 -7 q 525 49 525 24 l 525 115 q 444 23 499 56 q 319 -10 390 -10 q 199 17 254 -10 q 113 90 144 43 q 81 194 81 138 q 119 313 81 271 q 247 374 158 356 q 494 393 336 393 l 525 393 l 525 439 q 491 561 525 522 q 381 600 457 600 q 189 549 286 600 q 136 525 151 525 q 108 538 119 525 q 97 569 97 550 q 109 603 97 589 q 147 633 121 618 q 258 677 196 661 q 381 693 319 693 m 335 79 q 472 135 418 79 q 525 281 525 192 l 525 321 l 500 321 q 314 310 378 321 q 223 276 250 300 q 196 204 196 251 q 235 115 196 150 q 335 79 275 79 m 269 782 q 232 760 257 760 q 203 772 215 760 q 190 800 190 783 q 200 829 190 815 l 328 1018 q 381 1051 350 1051 q 433 1018 411 1051 l 563 829 q 572 801 572 815 q 559 772 572 785 q 529 760 546 760 q 492 782 504 760 l 381 963 l 269 782 z "},"ấ":{"ha":736,"x_min":81,"x_max":715,"o":"m 381 693 q 635 426 635 693 l 635 49 q 620 8 635 24 q 581 -7 606 -7 q 540 8 556 -7 q 525 49 525 24 l 525 115 q 444 23 499 56 q 319 -10 390 -10 q 199 17 254 -10 q 113 90 144 43 q 81 194 81 138 q 119 313 81 271 q 247 374 158 356 q 494 393 336 393 l 525 393 l 525 439 q 491 561 525 522 q 381 600 457 600 q 189 549 286 600 q 136 525 151 525 q 108 538 119 525 q 97 569 97 550 q 109 603 97 589 q 147 633 121 618 q 258 677 196 661 q 381 693 319 693 m 335 79 q 472 135 418 79 q 525 281 525 192 l 525 321 l 500 321 q 314 310 378 321 q 223 276 250 300 q 196 204 196 251 q 235 115 196 150 q 335 79 275 79 m 556 908 q 538 903 549 903 q 516 912 525 903 q 507 933 507 921 q 514 953 507 944 l 619 1088 q 665 1114 640 1114 q 701 1099 686 1114 q 715 1065 715 1085 q 686 1015 715 1036 l 556 908 m 261 772 q 232 760 247 760 q 203 772 215 760 q 190 800 190 783 q 208 835 190 818 l 329 956 q 381 978 353 978 q 432 956 406 978 l 553 835 q 571 800 571 818 q 558 772 571 783 q 531 760 546 760 q 501 772 514 760 l 381 900 l 261 772 z "},"ậ":{"ha":736,"x_min":81,"x_max":635,"o":"m 381 693 q 635 426 635 693 l 635 49 q 620 8 635 24 q 581 -7 606 -7 q 540 8 556 -7 q 525 49 525 24 l 525 115 q 444 23 499 56 q 319 -10 390 -10 q 199 17 254 -10 q 113 90 144 43 q 81 194 81 138 q 119 313 81 271 q 247 374 158 356 q 494 393 336 393 l 525 393 l 525 439 q 491 561 525 522 q 381 600 457 600 q 189 549 286 600 q 136 525 151 525 q 108 538 119 525 q 97 569 97 550 q 109 603 97 589 q 147 633 121 618 q 258 677 196 661 q 381 693 319 693 m 335 79 q 472 135 418 79 q 525 281 525 192 l 525 321 l 500 321 q 314 310 378 321 q 223 276 250 300 q 196 204 196 251 q 235 115 196 150 q 335 79 275 79 m 376 -260 q 325 -241 344 -260 q 306 -192 306 -222 q 325 -142 306 -161 q 376 -124 344 -124 q 427 -142 407 -124 q 447 -192 447 -161 q 428 -241 447 -222 q 376 -260 408 -260 m 269 782 q 232 760 257 760 q 203 772 215 760 q 190 800 190 783 q 200 829 190 815 l 328 1018 q 381 1051 350 1051 q 433 1018 411 1051 l 563 829 q 572 801 572 815 q 559 772 572 785 q 529 760 546 760 q 492 782 504 760 l 381 963 l 269 782 z "},"ầ":{"ha":736,"x_min":81,"x_max":635,"o":"m 381 693 q 635 426 635 693 l 635 49 q 620 8 635 24 q 581 -7 606 -7 q 540 8 556 -7 q 525 49 525 24 l 525 115 q 444 23 499 56 q 319 -10 390 -10 q 199 17 254 -10 q 113 90 144 43 q 81 194 81 138 q 119 313 81 271 q 247 374 158 356 q 494 393 336 393 l 525 393 l 525 439 q 491 561 525 522 q 381 600 457 600 q 189 549 286 600 q 136 525 151 525 q 108 538 119 525 q 97 569 97 550 q 109 603 97 589 q 147 633 121 618 q 258 677 196 661 q 381 693 319 693 m 335 79 q 472 135 418 79 q 525 281 525 192 l 525 321 l 500 321 q 314 310 378 321 q 223 276 250 300 q 196 204 196 251 q 235 115 196 150 q 335 79 275 79 m 467 1029 q 450 1069 450 1050 q 466 1104 450 1090 q 503 1118 482 1118 q 551 1082 538 1118 l 610 946 q 613 932 613 940 q 603 911 613 919 q 582 903 594 903 q 557 915 567 903 l 467 1029 m 261 772 q 232 760 247 760 q 203 772 215 760 q 190 800 190 783 q 208 835 190 818 l 329 956 q 381 978 353 978 q 432 956 406 978 l 553 835 q 571 800 571 818 q 558 772 571 783 q 531 760 546 760 q 501 772 514 760 l 381 900 l 261 772 z "},"ẩ":{"ha":736,"x_min":81,"x_max":679,"o":"m 381 693 q 635 426 635 693 l 635 49 q 620 8 635 24 q 581 -7 606 -7 q 540 8 556 -7 q 525 49 525 24 l 525 115 q 444 23 499 56 q 319 -10 390 -10 q 199 17 254 -10 q 113 90 144 43 q 81 194 81 138 q 119 313 81 271 q 247 374 158 356 q 494 393 336 393 l 525 393 l 525 439 q 491 561 525 522 q 381 600 457 600 q 189 549 286 600 q 136 525 151 525 q 108 538 119 525 q 97 569 97 550 q 109 603 97 589 q 147 633 121 618 q 258 677 196 661 q 381 693 319 693 m 335 79 q 472 135 418 79 q 525 281 525 192 l 525 321 l 500 321 q 314 310 378 321 q 223 276 250 300 q 196 204 196 251 q 235 115 196 150 q 335 79 275 79 m 569 925 q 558 908 568 914 q 536 901 549 901 q 510 910 521 901 q 500 936 500 919 q 515 971 500 958 q 557 996 529 983 q 583 1010 575 1004 q 592 1024 592 1015 q 576 1040 592 1033 q 533 1046 561 1046 q 463 1036 500 1046 q 433 1042 444 1032 q 421 1065 421 1051 q 443 1096 421 1088 q 539 1113 486 1113 q 642 1089 604 1113 q 679 1028 679 1065 q 663 988 679 1001 q 615 960 647 974 q 583 943 593 950 q 569 925 572 936 m 261 772 q 232 760 247 760 q 203 772 215 760 q 190 800 190 783 q 208 835 190 818 l 329 956 q 381 978 353 978 q 432 956 406 978 l 553 835 q 571 800 571 818 q 558 772 571 783 q 531 760 546 760 q 501 772 514 760 l 381 900 l 261 772 z "},"ẫ":{"ha":736,"x_min":81,"x_max":635,"o":"m 381 693 q 635 426 635 693 l 635 49 q 620 8 635 24 q 581 -7 606 -7 q 540 8 556 -7 q 525 49 525 24 l 525 115 q 444 23 499 56 q 319 -10 390 -10 q 199 17 254 -10 q 113 90 144 43 q 81 194 81 138 q 119 313 81 271 q 247 374 158 356 q 494 393 336 393 l 525 393 l 525 439 q 491 561 525 522 q 381 600 457 600 q 189 549 286 600 q 136 525 151 525 q 108 538 119 525 q 97 569 97 550 q 109 603 97 589 q 147 633 121 618 q 258 677 196 661 q 381 693 319 693 m 335 79 q 472 135 418 79 q 525 281 525 192 l 525 321 l 500 321 q 314 310 378 321 q 223 276 250 300 q 196 204 196 251 q 235 115 196 150 q 335 79 275 79 m 479 993 q 433 1000 457 993 q 371 1022 410 1007 q 324 1040 347 1032 q 283 1047 300 1047 q 247 1038 260 1047 q 221 1014 233 1029 q 208 1001 215 1007 q 192 994 200 994 q 169 1003 178 994 q 161 1025 161 1011 q 176 1070 161 1047 q 219 1109 192 1093 q 282 1125 247 1125 q 333 1117 307 1125 q 396 1094 360 1110 q 478 1071 454 1071 q 515 1080 501 1071 q 540 1104 528 1089 q 569 1125 556 1125 q 592 1116 583 1125 q 600 1093 600 1107 q 585 1049 600 1072 q 542 1009 569 1025 q 479 993 514 993 m 261 772 q 232 760 247 760 q 203 772 215 760 q 190 800 190 783 q 208 835 190 818 l 329 956 q 381 978 353 978 q 432 956 406 978 l 553 835 q 571 800 571 818 q 558 772 571 783 q 531 760 546 760 q 501 772 514 760 l 381 900 l 261 772 z "},"ȁ":{"ha":736,"x_min":81,"x_max":635,"o":"m 381 693 q 635 426 635 693 l 635 49 q 620 8 635 24 q 581 -7 606 -7 q 540 8 556 -7 q 525 49 525 24 l 525 115 q 444 23 499 56 q 319 -10 390 -10 q 199 17 254 -10 q 113 90 144 43 q 81 194 81 138 q 119 313 81 271 q 247 374 158 356 q 494 393 336 393 l 525 393 l 525 439 q 491 561 525 522 q 381 600 457 600 q 189 549 286 600 q 136 525 151 525 q 108 538 119 525 q 97 569 97 550 q 109 603 97 589 q 147 633 121 618 q 258 677 196 661 q 381 693 319 693 m 335 79 q 472 135 418 79 q 525 281 525 192 l 525 321 l 500 321 q 314 310 378 321 q 223 276 250 300 q 196 204 196 251 q 235 115 196 150 q 335 79 275 79 m 169 976 q 161 1008 161 992 q 175 1041 161 1028 q 207 1054 189 1054 q 238 1042 224 1054 q 260 1007 253 1031 l 322 793 q 324 783 324 790 q 315 764 324 771 q 297 757 307 757 q 272 774 281 757 l 169 976 m 338 976 q 329 1008 329 992 q 343 1041 329 1028 q 375 1054 357 1054 q 406 1042 392 1054 q 426 1007 419 1031 l 490 793 q 492 785 492 790 q 483 765 492 772 q 464 757 475 757 q 450 761 457 757 q 439 774 443 765 l 338 976 z "},"ä":{"ha":736,"x_min":81,"x_max":635,"o":"m 381 693 q 635 426 635 693 l 635 49 q 620 8 635 24 q 581 -7 606 -7 q 540 8 556 -7 q 525 49 525 24 l 525 115 q 444 23 499 56 q 319 -10 390 -10 q 199 17 254 -10 q 113 90 144 43 q 81 194 81 138 q 119 313 81 271 q 247 374 158 356 q 494 393 336 393 l 525 393 l 525 439 q 491 561 525 522 q 381 600 457 600 q 189 549 286 600 q 136 525 151 525 q 108 538 119 525 q 97 569 97 550 q 109 603 97 589 q 147 633 121 618 q 258 677 196 661 q 381 693 319 693 m 335 79 q 472 135 418 79 q 525 281 525 192 l 525 321 l 500 321 q 314 310 378 321 q 223 276 250 300 q 196 204 196 251 q 235 115 196 150 q 335 79 275 79 m 261 840 q 213 859 232 840 q 193 907 193 878 q 213 954 193 936 q 261 972 232 972 q 310 954 290 972 q 331 907 331 936 q 311 858 331 876 q 261 840 292 840 m 500 840 q 451 859 471 840 q 431 907 431 878 q 451 954 431 936 q 500 972 471 972 q 549 954 529 972 q 568 907 568 936 q 549 859 568 878 q 500 840 529 840 z "},"ȧ":{"ha":736,"x_min":81,"x_max":635,"o":"m 381 693 q 635 426 635 693 l 635 49 q 620 8 635 24 q 581 -7 606 -7 q 540 8 556 -7 q 525 49 525 24 l 525 115 q 444 23 499 56 q 319 -10 390 -10 q 199 17 254 -10 q 113 90 144 43 q 81 194 81 138 q 119 313 81 271 q 247 374 158 356 q 494 393 336 393 l 525 393 l 525 439 q 491 561 525 522 q 381 600 457 600 q 189 549 286 600 q 136 525 151 525 q 108 538 119 525 q 97 569 97 550 q 109 603 97 589 q 147 633 121 618 q 258 677 196 661 q 381 693 319 693 m 335 79 q 472 135 418 79 q 525 281 525 192 l 525 321 l 500 321 q 314 310 378 321 q 223 276 250 300 q 196 204 196 251 q 235 115 196 150 q 335 79 275 79 m 381 836 q 326 856 347 836 q 306 907 306 875 q 326 957 306 938 q 381 976 347 976 q 435 957 414 976 q 456 907 456 938 q 435 856 456 875 q 381 836 414 836 z "},"ạ":{"ha":736,"x_min":81,"x_max":635,"o":"m 381 693 q 635 426 635 693 l 635 49 q 620 8 635 24 q 581 -7 606 -7 q 540 8 556 -7 q 525 49 525 24 l 525 115 q 444 23 499 56 q 319 -10 390 -10 q 199 17 254 -10 q 113 90 144 43 q 81 194 81 138 q 119 313 81 271 q 247 374 158 356 q 494 393 336 393 l 525 393 l 525 439 q 491 561 525 522 q 381 600 457 600 q 189 549 286 600 q 136 525 151 525 q 108 538 119 525 q 97 569 97 550 q 109 603 97 589 q 147 633 121 618 q 258 677 196 661 q 381 693 319 693 m 335 79 q 472 135 418 79 q 525 281 525 192 l 525 321 l 500 321 q 314 310 378 321 q 223 276 250 300 q 196 204 196 251 q 235 115 196 150 q 335 79 275 79 m 376 -260 q 325 -241 344 -260 q 306 -192 306 -222 q 325 -142 306 -161 q 376 -124 344 -124 q 427 -142 407 -124 q 447 -192 447 -161 q 428 -241 447 -222 q 376 -260 408 -260 z "},"à":{"ha":736,"x_min":81,"x_max":635,"o":"m 381 693 q 635 426 635 693 l 635 49 q 620 8 635 24 q 581 -7 606 -7 q 540 8 556 -7 q 525 49 525 24 l 525 115 q 444 23 499 56 q 319 -10 390 -10 q 199 17 254 -10 q 113 90 144 43 q 81 194 81 138 q 119 313 81 271 q 247 374 158 356 q 494 393 336 393 l 525 393 l 525 439 q 491 561 525 522 q 381 600 457 600 q 189 549 286 600 q 136 525 151 525 q 108 538 119 525 q 97 569 97 550 q 109 603 97 589 q 147 633 121 618 q 258 677 196 661 q 381 693 319 693 m 335 79 q 472 135 418 79 q 525 281 525 192 l 525 321 l 500 321 q 314 310 378 321 q 223 276 250 300 q 196 204 196 251 q 235 115 196 150 q 335 79 275 79 m 160 949 q 132 1001 132 975 q 147 1038 132 1024 q 185 1053 163 1053 q 242 1021 217 1053 l 403 810 q 411 789 411 800 q 401 767 411 776 q 379 758 392 758 q 357 767 367 758 l 160 949 z "},"ả":{"ha":736,"x_min":81,"x_max":635,"o":"m 381 693 q 635 426 635 693 l 635 49 q 620 8 635 24 q 581 -7 606 -7 q 540 8 556 -7 q 525 49 525 24 l 525 115 q 444 23 499 56 q 319 -10 390 -10 q 199 17 254 -10 q 113 90 144 43 q 81 194 81 138 q 119 313 81 271 q 247 374 158 356 q 494 393 336 393 l 525 393 l 525 439 q 491 561 525 522 q 381 600 457 600 q 189 549 286 600 q 136 525 151 525 q 108 538 119 525 q 97 569 97 550 q 109 603 97 589 q 147 633 121 618 q 258 677 196 661 q 381 693 319 693 m 335 79 q 472 135 418 79 q 525 281 525 192 l 525 321 l 500 321 q 314 310 378 321 q 223 276 250 300 q 196 204 196 251 q 235 115 196 150 q 335 79 275 79 m 419 794 q 408 768 418 778 q 383 758 397 758 q 357 770 368 758 q 346 803 346 782 q 360 851 346 831 q 400 896 374 871 q 427 925 419 915 q 435 947 435 935 q 420 973 435 964 q 379 982 406 982 q 310 969 349 982 q 297 968 306 968 q 276 977 283 968 q 268 999 268 986 q 292 1032 268 1022 q 385 1051 338 1051 q 489 1024 451 1051 q 526 956 526 997 q 513 906 526 925 q 469 863 499 888 q 435 831 447 846 q 419 794 422 815 z "},"ȃ":{"ha":736,"x_min":81,"x_max":635,"o":"m 381 693 q 635 426 635 693 l 635 49 q 620 8 635 24 q 581 -7 606 -7 q 540 8 556 -7 q 525 49 525 24 l 525 115 q 444 23 499 56 q 319 -10 390 -10 q 199 17 254 -10 q 113 90 144 43 q 81 194 81 138 q 119 313 81 271 q 247 374 158 356 q 494 393 336 393 l 525 393 l 525 439 q 491 561 525 522 q 381 600 457 600 q 189 549 286 600 q 136 525 151 525 q 108 538 119 525 q 97 569 97 550 q 109 603 97 589 q 147 633 121 618 q 258 677 196 661 q 381 693 319 693 m 335 79 q 472 135 418 79 q 525 281 525 192 l 525 321 l 500 321 q 314 310 378 321 q 223 276 250 300 q 196 204 196 251 q 235 115 196 150 q 335 79 275 79 m 243 836 q 225 815 236 822 q 201 807 214 807 q 173 819 185 807 q 161 849 161 831 q 165 869 161 860 q 250 973 192 936 q 381 1010 308 1010 q 510 973 453 1010 q 596 869 568 936 q 600 847 600 857 q 588 818 600 829 q 560 807 576 807 q 518 836 532 807 q 381 926 472 926 q 243 836 289 926 z "},"ā":{"ha":736,"x_min":81,"x_max":635,"o":"m 381 693 q 635 426 635 693 l 635 49 q 620 8 635 24 q 581 -7 606 -7 q 540 8 556 -7 q 525 49 525 24 l 525 115 q 444 23 499 56 q 319 -10 390 -10 q 199 17 254 -10 q 113 90 144 43 q 81 194 81 138 q 119 313 81 271 q 247 374 158 356 q 494 393 336 393 l 525 393 l 525 439 q 491 561 525 522 q 381 600 457 600 q 189 549 286 600 q 136 525 151 525 q 108 538 119 525 q 97 569 97 550 q 109 603 97 589 q 147 633 121 618 q 258 677 196 661 q 381 693 319 693 m 335 79 q 472 135 418 79 q 525 281 525 192 l 525 321 l 500 321 q 314 310 378 321 q 223 276 250 300 q 196 204 196 251 q 235 115 196 150 q 335 79 275 79 m 213 864 q 176 875 189 864 q 163 906 163 886 q 176 938 163 926 q 213 949 189 949 l 549 949 q 585 938 572 949 q 599 906 599 926 q 585 875 599 886 q 549 864 572 864 l 213 864 z "},"ą":{"ha":736,"x_min":81,"x_max":701,"o":"m 658 -178 q 674 -175 664 -175 q 694 -185 686 -175 q 701 -207 701 -194 q 681 -242 701 -231 q 578 -268 628 -268 q 460 -227 506 -268 q 415 -121 415 -186 q 444 -29 415 -69 q 526 35 474 11 q 525 49 525 39 l 525 115 q 444 23 499 56 q 319 -10 390 -10 q 199 17 254 -10 q 113 90 144 43 q 81 194 81 138 q 119 313 81 269 q 247 374 158 356 q 494 393 336 393 l 525 393 l 525 439 q 491 561 525 522 q 381 600 457 600 q 189 549 286 600 q 159 532 172 539 q 136 525 146 525 q 108 538 119 525 q 97 569 97 550 q 109 603 97 589 q 147 633 121 618 q 258 677 196 661 q 381 693 319 693 q 635 426 635 693 l 635 49 q 626 16 635 29 q 601 -1 617 3 q 503 -107 503 -26 q 526 -171 503 -147 q 592 -194 550 -194 q 658 -178 619 -194 m 335 79 q 472 135 418 79 q 525 281 525 192 l 525 321 l 500 321 q 315 310 379 321 q 223 275 250 300 q 196 204 196 250 q 235 115 196 150 q 335 79 275 79 z "},"å":{"ha":736,"x_min":81,"x_max":635,"o":"m 381 693 q 635 426 635 693 l 635 49 q 620 8 635 24 q 581 -7 606 -7 q 540 8 556 -7 q 525 49 525 24 l 525 115 q 444 23 499 56 q 319 -10 390 -10 q 199 17 254 -10 q 113 90 144 43 q 81 194 81 138 q 119 313 81 271 q 247 374 158 356 q 494 393 336 393 l 525 393 l 525 439 q 491 561 525 522 q 381 600 457 600 q 189 549 286 600 q 136 525 151 525 q 108 538 119 525 q 97 569 97 550 q 109 603 97 589 q 147 633 121 618 q 258 677 196 661 q 381 693 319 693 m 335 79 q 472 135 418 79 q 525 281 525 192 l 525 321 l 500 321 q 314 310 378 321 q 223 276 250 300 q 196 204 196 251 q 235 115 196 150 q 335 79 275 79 m 381 769 q 281 809 322 769 q 240 907 240 849 q 281 1005 240 965 q 381 1044 322 1044 q 480 1005 439 1044 q 521 907 521 965 q 480 809 521 849 q 381 769 439 769 m 381 838 q 428 858 410 838 q 447 907 447 878 q 428 956 447 936 q 381 976 410 976 q 333 956 351 976 q 314 907 314 936 q 333 858 314 878 q 381 838 351 838 z "},"ǻ":{"ha":736,"x_min":81,"x_max":682,"o":"m 581 1164 q 628 1188 603 1188 q 666 1172 650 1188 q 682 1133 682 1156 q 651 1083 682 1103 l 501 979 q 521 907 521 947 q 480 809 521 849 q 381 769 439 769 q 281 809 322 769 q 240 907 240 849 q 281 1005 240 965 q 381 1044 322 1044 q 457 1024 419 1044 l 581 1164 m 381 838 q 428 858 410 838 q 447 907 447 878 q 428 956 447 936 q 381 976 410 976 q 333 956 351 976 q 314 907 314 936 q 333 858 314 878 q 381 838 351 838 m 381 693 q 635 426 635 693 l 635 49 q 620 8 635 24 q 581 -7 606 -7 q 540 8 556 -7 q 525 49 525 24 l 525 115 q 444 23 499 56 q 319 -10 390 -10 q 199 17 254 -10 q 113 90 144 43 q 81 194 81 138 q 119 313 81 271 q 247 374 158 356 q 494 393 336 393 l 525 393 l 525 439 q 491 561 525 522 q 381 600 457 600 q 189 549 286 600 q 136 525 151 525 q 108 538 119 525 q 97 569 97 550 q 109 603 97 589 q 147 633 121 618 q 258 677 196 661 q 381 693 319 693 m 335 79 q 472 135 418 79 q 525 281 525 192 l 525 321 l 500 321 q 314 310 378 321 q 223 276 250 300 q 196 204 196 251 q 235 115 196 150 q 335 79 275 79 z "},"ã":{"ha":736,"x_min":81,"x_max":635,"o":"m 381 693 q 635 426 635 693 l 635 49 q 620 8 635 24 q 581 -7 606 -7 q 540 8 556 -7 q 525 49 525 24 l 525 115 q 444 23 499 56 q 319 -10 390 -10 q 199 17 254 -10 q 113 90 144 43 q 81 194 81 138 q 119 313 81 271 q 247 374 158 356 q 494 393 336 393 l 525 393 l 525 439 q 491 561 525 522 q 381 600 457 600 q 189 549 286 600 q 136 525 151 525 q 108 538 119 525 q 97 569 97 550 q 109 603 97 589 q 147 633 121 618 q 258 677 196 661 q 381 693 319 693 m 335 79 q 472 135 418 79 q 525 281 525 192 l 525 321 l 500 321 q 314 310 378 321 q 223 276 250 300 q 196 204 196 251 q 235 115 196 150 q 335 79 275 79 m 479 819 q 428 832 453 819 q 368 868 403 844 q 319 897 338 888 q 286 906 301 906 q 249 893 263 906 q 224 858 236 881 q 207 835 214 843 q 190 828 200 828 q 169 838 178 828 q 161 863 161 847 q 176 918 161 888 q 219 971 192 949 q 282 993 247 993 q 333 981 308 993 q 393 944 358 968 q 442 916 424 925 q 475 907 460 907 q 510 919 497 907 q 538 954 524 932 q 554 978 547 971 q 571 986 561 986 q 592 976 583 986 q 600 950 600 965 q 585 895 600 926 q 542 842 569 864 q 479 819 514 819 z "},"æ":{"ha":1185,"x_min":81,"x_max":1124,"o":"m 1082 157 q 1108 144 1097 157 q 1118 113 1118 132 q 1069 49 1118 76 q 967 6 1022 21 q 861 -10 913 -10 q 686 35 758 -10 q 576 163 614 79 q 486 35 550 81 q 331 -10 422 -10 q 204 17 261 -10 q 114 90 147 43 q 81 194 81 136 q 119 313 81 271 q 248 374 158 356 q 497 393 338 393 l 529 393 l 529 435 q 494 560 529 521 q 383 600 460 600 q 271 585 315 600 q 181 544 226 569 q 155 531 167 536 q 135 525 143 525 q 108 538 118 525 q 97 569 97 550 q 147 633 97 606 q 381 693 250 693 q 606 572 551 693 q 708 662 646 631 q 844 693 769 693 q 991 653 928 693 q 1089 542 1054 614 q 1124 374 1124 469 q 1112 333 1124 346 q 1075 321 1100 321 l 639 321 q 701 142 644 203 q 861 82 758 82 q 951 96 914 82 q 1032 135 988 110 q 1059 150 1046 143 q 1082 157 1072 157 m 843 606 q 704 550 757 606 q 642 393 651 494 l 1025 393 q 974 551 1022 496 q 843 606 926 606 m 342 79 q 476 138 424 79 q 529 285 529 196 l 529 321 l 503 321 q 315 310 381 321 q 223 276 250 300 q 196 204 196 251 q 237 114 196 149 q 342 79 278 79 z "},"ǽ":{"ha":1185,"x_min":81,"x_max":1124,"o":"m 1082 157 q 1108 144 1097 157 q 1118 113 1118 132 q 1069 49 1118 76 q 967 6 1022 21 q 861 -10 913 -10 q 686 35 758 -10 q 576 163 614 79 q 486 35 550 81 q 331 -10 422 -10 q 204 17 261 -10 q 114 90 147 43 q 81 194 81 136 q 119 313 81 271 q 248 374 158 356 q 497 393 338 393 l 529 393 l 529 435 q 494 560 529 521 q 383 600 460 600 q 271 585 315 600 q 181 544 226 569 q 155 531 167 536 q 135 525 143 525 q 108 538 118 525 q 97 569 97 550 q 147 633 97 606 q 381 693 250 693 q 606 572 551 693 q 708 662 646 631 q 844 693 769 693 q 991 653 928 693 q 1089 542 1054 614 q 1124 374 1124 469 q 1112 333 1124 346 q 1075 321 1100 321 l 639 321 q 701 142 644 203 q 861 82 758 82 q 951 96 914 82 q 1032 135 988 110 q 1059 150 1046 143 q 1082 157 1072 157 m 843 606 q 704 550 757 606 q 642 393 651 494 l 1025 393 q 974 551 1022 496 q 843 606 926 606 m 342 79 q 476 138 424 79 q 529 285 529 196 l 529 321 l 503 321 q 315 310 381 321 q 223 276 250 300 q 196 204 196 251 q 237 114 196 149 q 342 79 278 79 m 610 767 q 588 758 599 758 q 564 767 574 758 q 554 789 554 776 q 563 810 554 800 l 724 1021 q 781 1053 749 1053 q 818 1038 803 1053 q 833 1001 833 1024 q 806 949 833 972 l 610 767 z "},"b":{"ha":808,"x_min":104,"x_max":744,"o":"m 444 693 q 601 650 533 693 q 707 528 669 607 q 744 344 744 449 q 707 159 744 239 q 601 35 669 79 q 444 -10 533 -10 q 306 25 365 -10 q 217 124 247 60 l 217 49 q 202 8 217 24 q 161 -7 188 -7 q 119 8 135 -7 q 104 49 104 24 l 104 932 q 119 971 104 956 q 161 986 135 986 q 202 972 188 986 q 217 932 217 957 l 217 560 q 306 658 247 624 q 444 693 365 693 m 422 83 q 575 152 521 83 q 629 344 629 221 q 575 532 629 465 q 422 599 521 599 q 270 532 324 599 q 217 342 217 465 q 270 151 217 218 q 422 83 324 83 z "},"c":{"ha":665,"x_min":64,"x_max":633,"o":"m 383 -10 q 216 33 289 -10 q 103 156 143 76 q 64 339 64 235 q 105 524 64 443 q 219 649 146 604 q 389 693 293 693 q 494 678 442 693 q 585 636 546 664 q 620 603 610 619 q 631 568 631 588 q 620 536 631 549 q 593 524 610 524 q 572 529 583 524 q 553 540 561 535 q 543 547 546 546 q 474 585 507 571 q 394 599 442 599 q 237 530 293 599 q 181 339 181 461 q 237 150 181 217 q 394 83 293 83 q 476 97 442 83 q 544 135 510 111 q 574 151 560 144 q 597 158 588 158 q 623 146 613 158 q 633 114 633 133 q 624 81 633 96 q 588 49 614 67 q 494 6 549 22 q 383 -10 439 -10 z "},"ć":{"ha":665,"x_min":64,"x_max":638,"o":"m 383 -10 q 216 33 289 -10 q 103 156 143 76 q 64 339 64 235 q 105 524 64 443 q 219 649 146 604 q 389 693 293 693 q 494 678 442 693 q 585 636 546 664 q 620 603 610 619 q 631 568 631 588 q 620 536 631 549 q 593 524 610 524 q 572 529 583 524 q 553 540 561 535 q 543 547 546 546 q 474 585 507 571 q 394 599 442 599 q 237 530 293 599 q 181 339 181 461 q 237 150 181 217 q 394 83 293 83 q 476 97 442 83 q 544 135 510 111 q 574 151 560 144 q 597 158 588 158 q 623 146 613 158 q 633 114 633 133 q 624 81 633 96 q 588 49 614 67 q 494 6 549 22 q 383 -10 439 -10 m 414 767 q 392 758 403 758 q 368 767 378 758 q 358 789 358 776 q 367 810 358 800 l 528 1021 q 585 1053 553 1053 q 622 1038 607 1053 q 638 1001 638 1024 q 610 949 638 972 l 414 767 z "},"č":{"ha":665,"x_min":64,"x_max":633,"o":"m 383 -10 q 216 33 289 -10 q 103 156 143 76 q 64 339 64 235 q 105 524 64 443 q 219 649 146 604 q 389 693 293 693 q 494 678 442 693 q 585 636 546 664 q 620 603 610 619 q 631 568 631 588 q 620 536 631 549 q 593 524 610 524 q 572 529 583 524 q 553 540 561 535 q 543 547 546 546 q 474 585 507 571 q 394 599 442 599 q 237 530 293 599 q 181 339 181 461 q 237 150 181 217 q 394 83 293 83 q 476 97 442 83 q 544 135 510 111 q 574 151 560 144 q 597 158 588 158 q 623 146 613 158 q 633 114 633 133 q 624 81 633 96 q 588 49 614 67 q 494 6 549 22 q 383 -10 439 -10 m 389 758 q 336 792 358 758 l 208 982 q 199 1010 199 996 q 212 1039 199 1026 q 242 1051 225 1051 q 279 1028 265 1051 l 389 849 l 499 1028 q 536 1050 511 1050 q 566 1038 553 1050 q 579 1008 579 1025 q 571 982 579 997 l 442 792 q 389 758 419 758 z "},"ç":{"ha":665,"x_min":64,"x_max":633,"o":"m 597 158 q 623 146 613 158 q 633 114 633 133 q 624 81 633 96 q 588 49 614 67 q 506 10 553 25 q 410 -8 460 -6 l 404 -61 q 440 -57 421 -57 q 513 -81 483 -57 q 543 -153 543 -106 q 500 -236 543 -204 q 379 -268 457 -268 q 285 -251 329 -268 q 267 -238 274 -247 q 261 -219 261 -229 q 269 -198 261 -207 q 292 -189 278 -189 q 303 -190 299 -189 q 381 -201 340 -201 q 440 -189 419 -201 q 460 -153 460 -176 q 449 -125 460 -135 q 417 -115 438 -115 q 378 -122 401 -115 q 349 -128 354 -128 q 328 -120 338 -128 q 321 -101 319 -112 l 332 -7 q 137 103 210 11 q 64 339 64 196 q 105 524 64 443 q 219 649 146 604 q 389 693 293 693 q 494 678 442 693 q 585 636 546 664 q 620 603 610 619 q 631 568 631 588 q 620 536 631 549 q 593 524 610 524 q 572 529 583 524 q 553 540 561 535 q 543 547 546 546 q 474 585 507 571 q 394 599 442 599 q 237 530 293 599 q 181 339 181 461 q 237 150 181 217 q 394 83 293 83 q 476 97 442 83 q 544 135 510 111 q 574 151 560 144 q 597 158 588 158 z "},"ḉ":{"ha":665,"x_min":64,"x_max":638,"o":"m 414 767 q 392 758 403 758 q 368 767 378 758 q 358 789 358 776 q 367 810 358 800 l 528 1021 q 585 1053 553 1053 q 622 1038 607 1053 q 638 1001 638 1024 q 610 949 638 972 l 414 767 m 597 158 q 623 146 613 158 q 633 114 633 133 q 624 81 633 96 q 588 49 614 67 q 506 10 553 25 q 410 -8 460 -6 l 404 -61 q 440 -57 421 -57 q 513 -81 483 -57 q 543 -153 543 -106 q 500 -236 543 -204 q 379 -268 457 -268 q 285 -251 329 -268 q 267 -238 274 -247 q 261 -219 261 -229 q 269 -198 261 -207 q 292 -189 278 -189 q 303 -190 299 -189 q 381 -201 340 -201 q 440 -189 419 -201 q 460 -153 460 -176 q 449 -125 460 -135 q 417 -115 438 -115 q 378 -122 401 -115 q 349 -128 354 -128 q 328 -120 338 -128 q 321 -101 319 -112 l 332 -7 q 137 103 210 11 q 64 339 64 196 q 105 524 64 443 q 219 649 146 604 q 389 693 293 693 q 494 678 442 693 q 585 636 546 664 q 620 603 610 619 q 631 568 631 588 q 620 536 631 549 q 593 524 610 524 q 572 529 583 524 q 553 540 561 535 q 543 547 546 546 q 474 585 507 571 q 394 599 442 599 q 237 530 293 599 q 181 339 181 461 q 237 150 181 217 q 394 83 293 83 q 476 97 442 83 q 544 135 510 111 q 574 151 560 144 q 597 158 588 158 z "},"ĉ":{"ha":665,"x_min":64,"x_max":633,"o":"m 383 -10 q 216 33 289 -10 q 103 156 143 76 q 64 339 64 235 q 105 524 64 443 q 219 649 146 604 q 389 693 293 693 q 494 678 442 693 q 585 636 546 664 q 620 603 610 619 q 631 568 631 588 q 620 536 631 549 q 593 524 610 524 q 572 529 583 524 q 553 540 561 535 q 543 547 546 546 q 474 585 507 571 q 394 599 442 599 q 237 530 293 599 q 181 339 181 461 q 237 150 181 217 q 394 83 293 83 q 476 97 442 83 q 544 135 510 111 q 574 151 560 144 q 597 158 588 158 q 623 146 613 158 q 633 114 633 133 q 624 81 633 96 q 588 49 614 67 q 494 6 549 22 q 383 -10 439 -10 m 278 782 q 240 760 265 760 q 211 772 224 760 q 199 800 199 783 q 208 829 199 815 l 336 1018 q 389 1051 358 1051 q 442 1018 419 1051 l 571 829 q 581 801 581 815 q 567 772 581 785 q 538 760 554 760 q 500 782 513 760 l 389 963 l 278 782 z "},"ċ":{"ha":665,"x_min":64,"x_max":633,"o":"m 383 -10 q 216 33 289 -10 q 103 156 143 76 q 64 339 64 235 q 105 524 64 443 q 219 649 146 604 q 389 693 293 693 q 494 678 442 693 q 585 636 546 664 q 620 603 610 619 q 631 568 631 588 q 620 536 631 549 q 593 524 610 524 q 572 529 583 524 q 553 540 561 535 q 543 547 546 546 q 474 585 507 571 q 394 599 442 599 q 237 530 293 599 q 181 339 181 461 q 237 150 181 217 q 394 83 293 83 q 476 97 442 83 q 544 135 510 111 q 574 151 560 144 q 597 158 588 158 q 623 146 613 158 q 633 114 633 133 q 624 81 633 96 q 588 49 614 67 q 494 6 549 22 q 383 -10 439 -10 m 389 836 q 335 856 356 836 q 314 907 314 875 q 335 957 314 938 q 389 976 356 976 q 443 957 422 976 q 464 907 464 938 q 443 856 464 875 q 389 836 422 836 z "},"d":{"ha":808,"x_min":64,"x_max":704,"o":"m 647 986 q 689 971 674 986 q 704 932 704 956 l 704 49 q 689 8 704 24 q 647 -7 674 -7 q 606 8 621 -7 q 592 49 592 24 l 592 124 q 502 25 561 60 q 364 -10 443 -10 q 207 35 275 -10 q 101 159 139 79 q 64 344 64 239 q 101 528 64 449 q 207 650 139 607 q 364 693 275 693 q 502 658 443 693 q 592 560 561 624 l 592 932 q 606 972 592 957 q 647 986 621 986 m 386 83 q 538 151 485 83 q 592 342 592 218 q 538 532 592 465 q 386 599 485 599 q 233 532 288 599 q 178 344 178 465 q 233 152 178 221 q 386 83 288 83 z "},"ð":{"ha":776,"x_min":64,"x_max":713,"o":"m 561 801 q 713 392 713 632 q 628 93 713 196 q 382 -10 543 -10 q 215 30 288 -10 q 103 142 143 69 q 64 311 64 215 q 103 479 64 407 q 214 592 143 551 q 378 632 285 632 q 590 539 519 632 q 460 765 560 665 l 276 699 q 263 696 265 696 q 237 708 247 696 q 226 735 226 719 q 253 769 226 760 l 394 819 q 264 893 332 865 q 225 942 225 911 q 239 973 225 960 q 275 986 253 986 q 307 979 289 986 q 504 860 417 936 l 656 914 q 671 917 667 917 q 697 906 686 917 q 707 881 707 894 q 700 860 707 869 q 679 844 693 850 l 561 801 m 385 83 q 537 144 482 83 q 592 313 592 204 q 538 480 592 419 q 385 540 485 540 q 232 481 286 540 q 178 311 178 421 q 232 142 178 201 q 385 83 286 83 z "},"ď":{"ha":808,"x_min":64,"x_max":840,"o":"m 750 938 q 763 974 750 961 q 793 988 776 988 q 827 972 814 988 q 836 932 840 957 l 806 729 q 796 710 804 717 q 778 704 788 704 q 758 713 767 704 q 750 735 750 721 l 750 938 m 647 986 q 689 971 674 986 q 704 932 704 956 l 704 49 q 689 8 704 24 q 647 -7 674 -7 q 606 8 621 -7 q 592 49 592 24 l 592 124 q 502 25 561 60 q 364 -10 443 -10 q 207 35 275 -10 q 101 159 139 79 q 64 344 64 239 q 101 528 64 449 q 207 650 139 607 q 364 693 275 693 q 502 658 443 693 q 592 560 561 624 l 592 932 q 606 972 592 957 q 647 986 621 986 m 386 83 q 538 151 485 83 q 592 342 592 218 q 538 532 592 465 q 386 599 485 599 q 233 532 288 599 q 178 344 178 465 q 233 152 178 221 q 386 83 288 83 z "}}}
